<?xml version="1.0" encoding="UTF-8"?>
<svg width="206px" height="53px" viewBox="0 0 206 53" version="1.1" xmlns="http://www.w3.org/2000/svg" xmlns:xlink="http://www.w3.org/1999/xlink">
    <title>CC_Logo_dark</title>
    <defs>
        <path d="M69.5465959,0 L69.5465959,31.4927981 L15.746,31.492 L15.7463991,52.4879969 L0,52.4879969 L0,0 L69.5465959,0 Z" id="path-1"></path>
    </defs>
    <g id="Page-1" stroke="none" stroke-width="1" fill="none" fill-rule="evenodd">
        <g id="Group-5-Copy-2">
            <g id="Group-2">
                <mask id="mask-2" fill="white">
                    <use xlink:href="#path-1"></use>
                </mask>
                <g id="Combined-Shape"></g>
                <g id="Cloud_Logo_V4" mask="url(#mask-2)" stroke="#F0AB00">
                    <g transform="translate(0.656100, 1.656100)">
                        <ellipse id="Oval-Copy-13" stroke-width="1.50871933" transform="translate(40.068578, 8.332601) rotate(-90.000000) translate(-40.068578, -8.332601) " cx="40.0685784" cy="8.33260137" rx="1.80695364" ry="1.81451751"></ellipse>
                        <ellipse id="Oval-Copy-14" stroke-width="1.50871933" transform="translate(64.635312, 27.174446) rotate(-90.000000) translate(-64.635312, -27.174446) " cx="64.6353118" cy="27.1744464" rx="1.80695364" ry="1.81451751"></ellipse>
                        <path d="M39.5961412,10.6054895 C43.3366915,10.6054895 46.7420233,12.0141266 49.2871715,14.3220019 C51.8428255,16.6394036 53.53138,19.863872 53.8135208,23.4749736 C53.8449826,23.877652 53.8584216,24.2782972 53.8549787,24.6757018 C54.2487393,24.6393712 54.6481866,24.6207505 55.0524773,24.6206669 C58.4650987,24.6199613 61.5331788,25.9401818 63.7491948,28.0839857 C65.9593554,30.2221249 67.3199712,33.1794695 67.3199712,36.448167 C67.3199712,39.7114602 65.9641941,42.6644552 63.7763474,44.8025208 C61.5780312,46.9508177 58.5404445,48.2772222 55.1865682,48.2772222 L55.1865682,48.2772222 L9.38653423,48.2772222 C7.09704076,48.0641287 5.05393375,47.024823 3.58507877,45.4676012 C2.13223363,43.9273523 1.24247474,41.8788781 1.24247474,39.6277283 C1.24247474,37.5151367 2.02595546,35.5807421 3.32364419,34.0810183 C4.65219768,32.5456243 6.51827838,31.4644782 8.63944407,31.1070311 C8.96971102,31.0513764 9.29988523,31.0143238 9.62856106,30.9952305 C9.62914481,30.6600719 9.64322055,30.3228798 9.67122737,29.9842379 C9.94616071,26.6599065 11.5223945,23.6939388 13.8994667,21.562802 C16.2696867,19.4378084 19.4362354,18.1422275 22.9132033,18.1422275 C23.8900469,18.1422275 24.8423557,18.2443522 25.7594024,18.4384775 C26.062827,18.502708 26.3656997,18.5777107 26.6675838,18.6635538 C26.8019669,18.3821307 26.9459075,18.104994 27.0992839,17.8326813 C28.3335268,15.6413392 30.1516231,13.8106204 32.3469702,12.539929 C34.4716753,11.310126 36.9499992,10.6054895 39.5961412,10.6054895 Z" id="Combined-Shape" stroke-width="2.48494949" transform="translate(34.281223, 29.441356) scale(-1, 1) translate(-34.281223, -29.441356) "></path>
                        <path d="M65.5100937,25.1335426 C66.2241158,23.1803855 66.6136425,21.0716775 66.6136425,18.8722584 C66.6136425,8.77512478 58.4041261,0.589780674 48.2771744,0.589780674 C42.5531505,0.589780674 37.4417112,3.20484484 34.0790766,7.30209869" id="Oval" stroke-width="2.48494949" stroke-linecap="round"></path>
                        <path d="M58.3971891,27.5932293 C60.4258338,25.2550527 61.6530521,22.2065497 61.6530521,18.8722584 C61.6530521,11.5067165 55.6644677,5.535765 48.2771744,5.535765 C46.006886,5.535765 43.8687023,6.09970767 41.9958492,7.09475958" id="Oval" stroke-width="2.48494949" stroke-linecap="round"></path>
                        <path d="M56.2790792,18.8722584 C56.2790792,14.4659408 52.6965044,10.8939147 48.2771744,10.8939147 C46.798055,10.8939147 45.4126684,11.2940513 44.2239615,11.9916809" id="Oval" stroke-width="2.48494949" stroke-linecap="round"></path>
                    </g>
                </g>
            </g>
            <text id="Converged-Cloud" font-family="BentonSans-Black, BentonSans" font-size="17.7147" font-weight="800" line-spacing="19.87983" fill="#FFFFFF">
                <tspan x="19.683" y="50.992">CONVERGED CLOUD</tspan>
            </text>
        </g>
    </g>
</svg>