<?xml version="1.0" encoding="UTF-8"?>
<svg width="240px" height="85px" viewBox="0 0 240 85" version="1.1" xmlns="http://www.w3.org/2000/svg" xmlns:xlink="http://www.w3.org/1999/xlink">
    <title>CCplus1_Logo_light_250</title>
    <defs>
        <path d="M80.8681347,0 L80.8681347,36.5116279 L18.309,36.511 L18.3097664,61.0325545 L0,61.0325545 L0,0 L80.8681347,0 Z" id="path-1"></path>
        <rect id="path-3" x="0" y="0" width="26.5736434" height="23.620914"></rect>
    </defs>
    <g id="Final_State" stroke="none" stroke-width="1" fill="none" fill-rule="evenodd">
        <g id="CCplus1_Logo_light_250">
            <g id="Group-5-Copy-2">
                <g id="Group-2" transform="translate(0.651163, 0.651163)">
                    <mask id="mask-2" fill="white">
                        <use xlink:href="#path-1"></use>
                    </mask>
                    <g id="Combined-Shape"></g>
                    <g id="Group" mask="url(#mask-2)">
                        <g transform="translate(0.762907, 0.762907)" id="Cloud_Logo_V4">
                            <ellipse id="Oval-Copy-13" stroke="#F0AB00" stroke-width="1.7543248" transform="translate(47.551029, 10.235729) rotate(-90.000000) translate(-47.551029, -10.235729) " cx="47.5510286" cy="10.2357294" rx="2.10112675" ry="2.10979752"></ellipse>
                            <ellipse id="Oval-Copy-14" stroke="#F0AB00" stroke-width="1.7543248" transform="translate(75.154658, 32.761181) rotate(-90.000000) translate(-75.154658, -32.761181) " cx="75.1546582" cy="32.7611807" rx="2.10112675" ry="2.10979752"></ellipse>
                            <path d="M46.0403822,13.4948275 C50.3896402,13.4948275 54.3491309,15.1327507 57.3084756,17.8162821 C60.2800606,20.5109131 62.2434427,24.2602709 62.5715593,28.4592061 C62.608148,28.9274346 62.623781,29.3932991 62.6197647,29.8553444 C63.0776133,29.8131134 63.5420733,29.7914751 64.0121636,29.7913914 C67.9802007,29.7906852 71.5476145,31.3259021 74.1242843,33.8187494 C76.6941446,36.3050086 78.2761922,39.7438063 78.2761922,43.5446414 C78.2761922,47.3392002 76.6997646,50.7729471 74.1558404,53.2590918 C71.5997647,55.757112 68.0678347,57.299448 64.1681389,57.299448 L64.1681389,57.299448 L10.9141812,57.299448 C8.25212707,57.0517019 5.87652635,55.84321 4.16862298,54.0324831 C2.47931812,52.2414745 1.44473807,49.8594874 1.44473807,47.2418279 C1.44473807,44.7851521 2.35584084,42.535708 3.86489819,40.7917803 C5.40982117,39.0064048 7.57979603,37.7492965 10.0463666,37.3338291 C10.4305638,37.2691152 10.8146514,37.2260515 11.1966512,37.2037855 C11.1973179,36.8140593 11.2136718,36.4219651 11.2462234,36.0281812 C11.5657712,32.16254 13.3983163,28.7138231 16.1620085,26.2358492 C18.9178316,23.7649308 22.5996128,22.2585289 26.6423092,22.2585289 C27.7780348,22.2585289 28.8852373,22.3772595 29.9514467,22.6029512 C30.3042901,22.67764 30.6564915,22.7648571 31.0076299,22.8645093 C31.1638477,22.5372954 31.3311784,22.2150698 31.5094803,21.8984577 C32.9443024,19.3506324 35.0582994,17.2218705 37.6110911,15.7442603 C40.0816221,14.3142643 42.9634263,13.4948275 46.0403822,13.4948275 Z" id="Combined-Shape" stroke="#F0AB00" stroke-width="2.88947615" transform="translate(39.860465, 35.397138) scale(-1, 1) translate(-39.860465, -35.397138) "></path>
                            <g id="Group" transform="translate(48.615348, 5.408847)">
                                <mask id="mask-4" fill="white">
                                    <use xlink:href="#path-3"></use>
                                </mask>
                                <g id="Rectangle"></g>
                                <path d="M22.7677272,20.7705718 C22.9656811,19.7641784 23.0716904,18.7282577 23.0716904,17.6985689 C23.0716904,9.13393385 16.1084686,2.19092535 7.5188991,2.19092535 C5.21653864,2.19092535 3.03102509,2.68975418 1.06513468,3.58493394" id="Oval" stroke="#F0AB00" stroke-width="2.88947615" stroke-linecap="round" mask="url(#mask-4)"></path>
                            </g>
                            <path d="M65.3658419,21.942745 C64.7912842,17.368836 60.877213,13.8302163 56.1342467,13.8302163 C54.4144018,13.8302163 52.8035446,14.2954942 51.4213766,15.1066963" id="Oval" stroke="#F0AB00" stroke-width="2.88947615" stroke-linecap="round"></path>
                            <path d="M76.1718101,30.3880225 C77.0020387,28.116896 77.4549606,25.6648952 77.4549606,23.1074158 C77.4549606,11.3664923 67.9093519,1.84859327 56.1342467,1.84859327 C49.4786424,1.84859327 43.5353204,4.88938379 39.6254196,9.65366103" id="Oval" stroke="#F0AB00" stroke-width="2.88947615" stroke-linecap="round"></path>
                        </g>
                    </g>
                </g>
                <path d="M31.3834995,60.7472941 C32.4295165,60.7472941 33.326342,60.6131894 34.0739759,60.3449799 C34.8216098,60.0767704 35.4602837,59.7046297 35.9899974,59.2285579 C36.5197111,58.7524861 36.9454937,58.1892461 37.2673451,57.5388381 C37.5891964,56.8884301 37.8473481,56.177675 38.0417999,55.4065727 L38.0417999,55.4065727 L34.1494098,54.5415972 C33.9147265,55.4937408 33.5979041,56.2162301 33.1989424,56.709065 C32.7999808,57.2019 32.2015384,57.4483174 31.4036152,57.4483174 C30.3911244,57.4483174 29.63008,57.0292401 29.120482,56.1910855 C28.610884,55.3529308 28.3560849,54.2331562 28.3560849,52.8317617 C28.3560849,51.4035462 28.6008261,50.2955058 29.0903084,49.5076404 C29.5797907,48.719775 30.3374825,48.3258424 31.3633838,48.3258424 C31.765698,48.3258424 32.1076651,48.394571 32.3892851,48.5320284 C32.670905,48.6694858 32.9072646,48.8538798 33.0983639,49.0852105 C33.2894631,49.3165411 33.4503888,49.5914559 33.581141,49.9099546 C33.7118931,50.2284534 33.830911,50.5720968 33.9381948,50.9408848 L33.9381948,50.9408848 L37.830585,49.7842314 C37.6696593,49.1137077 37.4383286,48.4800628 37.1365929,47.8832967 C36.8348573,47.2865306 36.432543,46.7719037 35.9296503,46.3394159 C35.4267575,45.9069281 34.8048467,45.5632847 34.063918,45.3084857 C33.3229893,45.0536867 32.4295165,44.9262872 31.3834995,44.9262872 C30.4112401,44.9262872 29.4926226,45.077155 28.6276471,45.3788907 C27.7626715,45.6806263 27.006656,46.1499929 26.3596006,46.7869905 C25.7125452,47.423988 25.1979183,48.2403506 24.8157198,49.2360783 C24.4335212,50.231806 24.242422,51.4303671 24.242422,52.8317617 C24.242422,54.2331562 24.426816,55.4317174 24.795604,56.4274451 C25.1643921,57.4231728 25.6689612,58.2412117 26.3093113,58.8815619 C26.9496615,59.521912 27.705677,59.9929549 28.5773578,60.2946906 C29.4490386,60.5964263 30.3844192,60.7472941 31.3834995,60.7472941 Z M47.0033493,60.7472941 C47.9219668,60.7472941 48.8288501,60.5964263 49.7239993,60.2946906 C50.6191484,59.9929549 51.4204243,59.521912 52.1278268,58.8815619 C52.8352293,58.2412117 53.4051744,57.4231728 53.8376622,56.4274451 C54.27015,55.4317174 54.4863939,54.2331562 54.4863939,52.8317617 C54.4863939,51.4303671 54.27015,50.231806 53.8376622,49.2360783 C53.4051744,48.2403506 52.8352293,47.423988 52.1278268,46.7869905 C51.4204243,46.1499929 50.6191484,45.6806263 49.7239993,45.3788907 C48.8288501,45.077155 47.9219668,44.9262872 47.0033493,44.9262872 C46.0847318,44.9262872 45.1761722,45.077155 44.2776704,45.3788907 C43.3791687,45.6806263 42.5762165,46.1499929 41.868814,46.7869905 C41.1614115,47.423988 40.5914663,48.2403506 40.1589786,49.2360783 C39.7264908,50.231806 39.5102469,51.4303671 39.5102469,52.8317617 C39.5102469,54.2331562 39.7264908,55.4317174 40.1589786,56.4274451 C40.5914663,57.4231728 41.1614115,58.2412117 41.868814,58.8815619 C42.5762165,59.521912 43.3791687,59.9929549 44.2776704,60.2946906 C45.1761722,60.5964263 46.0847318,60.7472941 47.0033493,60.7472941 Z M47.0033493,57.4483174 C45.9171009,57.4483174 45.0822989,57.0292401 44.4989433,56.1910855 C43.9155876,55.3529308 43.6239098,54.2331562 43.6239098,52.8317617 C43.6239098,51.4169567 43.9155876,50.3122689 44.4989433,49.5176983 C45.0822989,48.7231277 45.9171009,48.3258424 47.0033493,48.3258424 C48.0761873,48.3258424 48.904284,48.7231277 49.4876397,49.5176983 C50.0709953,50.3122689 50.3626731,51.4169567 50.3626731,52.8317617 C50.3626731,54.2331562 50.0709953,55.3529308 49.4876397,56.1910855 C48.904284,57.0292401 48.0761873,57.4483174 47.0033493,57.4483174 Z M60.3702395,60.4556163 L60.3702395,51.9265547 L60.4104709,51.9265547 L66.2440272,60.4556163 L70.0559545,60.4556163 L70.0559545,45.2079071 L66.2842586,45.2079071 L66.2842586,53.7570844 L66.2440272,53.7570844 L60.6619173,45.2079071 L56.5985436,45.2079071 L56.5985436,60.4556163 L60.3702395,60.4556163 Z M80.7876865,60.5159634 L85.97754,45.2079071 L82.145497,45.2079071 L78.9269832,55.1249528 L78.8867517,55.1249528 L75.8392215,45.2079071 L71.6752692,45.2079071 L76.8751806,60.5159634 L80.7876865,60.5159634 Z M98.8214216,60.4556163 L98.8214216,57.1365239 L91.7205755,57.1365239 L91.7205755,54.3203243 L96.5382884,54.3203243 L96.5382884,51.1018105 L91.7205755,51.1018105 L91.7205755,48.627578 L98.4794545,48.627578 L98.4794545,45.2079071 L87.5968547,45.2079071 L87.5968547,60.4556163 L98.8214216,60.4556163 Z M104.92654,60.4556163 L104.92654,55.1651842 L106.05302,55.1651842 L108.999972,60.4556163 L113.365081,60.4556163 L110.136509,54.62206 C111.13559,54.2800929 111.886576,53.7554081 112.389469,53.0480056 C112.892362,52.3406031 113.143808,51.3834305 113.143808,50.1764878 C113.143808,49.2578703 112.999645,48.4817391 112.71132,47.8480942 C112.422995,47.2144493 112.00727,46.703175 111.464146,46.3142712 C110.921022,45.9253675 110.25888,45.6437475 109.47772,45.4694114 C108.69656,45.2950752 107.816497,45.2079071 106.837533,45.2079071 L106.837533,45.2079071 L100.883282,45.2079071 L100.883282,60.4556163 L104.92654,60.4556163 Z M106.696723,52.0271332 L104.92654,52.0271332 L104.92654,48.5471152 L106.696723,48.5471152 C107.548288,48.5471152 108.166846,48.6745147 108.552397,48.9293137 C108.937948,49.1841127 109.130724,49.6333636 109.130724,50.2770664 C109.130724,50.9274744 108.937948,51.3817542 108.552397,51.6399058 C108.166846,51.8980574 107.548288,52.0271332 106.696723,52.0271332 L106.696723,52.0271332 Z M121.803622,60.7472941 C122.380272,60.7472941 122.891547,60.660126 123.337445,60.4857898 C123.783343,60.3114537 124.167218,60.1052676 124.489069,59.8672317 C124.810921,59.6291958 125.067396,59.3794257 125.258495,59.1179215 C125.449594,58.8564172 125.571965,58.6284392 125.625607,58.4339873 L125.625607,58.4339873 L125.675896,58.4339873 L125.675896,60.4556163 L128.904468,60.4556163 L128.904468,52.6104889 L122.769176,52.6104889 L122.769176,55.6177877 L124.991962,55.6177877 C124.770689,56.1810276 124.433751,56.6269259 123.981148,56.9554825 C123.528544,57.2840391 122.973686,57.4483174 122.316572,57.4483174 C122.041658,57.4483174 121.721483,57.3997045 121.356047,57.3024785 C120.990612,57.2052526 120.643616,56.9957139 120.315059,56.6738626 C119.986503,56.3520112 119.704883,55.879292 119.470199,55.2557049 C119.235516,54.6321179 119.118174,53.7839054 119.118174,52.7110674 C119.118174,51.8595023 119.203666,51.1520998 119.37465,50.5888599 C119.545633,50.02562 119.771935,49.5763691 120.053555,49.2411072 C120.335175,48.9058454 120.658703,48.6694858 121.024138,48.5320284 C121.389573,48.394571 121.756685,48.3258424 122.125473,48.3258424 C122.715534,48.3258424 123.233514,48.5169416 123.679412,48.8991401 C124.12531,49.2813387 124.50248,49.9619202 124.810921,50.9408848 L124.810921,50.9408848 L128.572559,49.88481 C128.297644,48.8857297 127.943943,48.0660144 127.511455,47.4256643 C127.078967,46.7853141 126.584456,46.280745 126.027921,45.911957 C125.471386,45.543169 124.864563,45.2866936 124.207449,45.1425311 C123.550336,44.9983685 122.863049,44.9262872 122.145589,44.9262872 C121.005699,44.9262872 119.993208,45.1106812 119.108116,45.4794692 C118.223025,45.8482573 117.475391,46.3729421 116.865215,47.0535236 C116.255038,47.7341052 115.789024,48.5588494 115.467173,49.5277561 C115.145321,50.4966629 114.984396,51.5778824 114.984396,52.7714146 C114.984396,53.9247153 115.110119,54.9858191 115.361565,55.9547259 C115.613012,56.9236326 116.01365,57.7651399 116.563479,58.4792476 C117.113308,59.1933554 117.817358,59.7498901 118.675629,60.1488517 C119.533899,60.5478133 120.576563,60.7472941 121.803622,60.7472941 Z M142.905003,60.4556163 L142.905003,57.1365239 L135.804157,57.1365239 L135.804157,54.3203243 L140.62187,54.3203243 L140.62187,51.1018105 L135.804157,51.1018105 L135.804157,48.627578 L142.563036,48.627578 L142.563036,45.2079071 L131.680436,45.2079071 L131.680436,60.4556163 L142.905003,60.4556163 Z M149.975675,60.4556163 C151.088745,60.4556163 152.153201,60.334922 153.169045,60.0935335 C154.184888,59.8521449 155.076685,59.4364202 155.844434,58.8463594 C156.612184,58.2562985 157.224037,57.4634042 157.679993,56.4676765 C158.135949,55.4719488 158.363927,54.226451 158.363927,52.7311831 C158.363927,51.2895572 158.139302,50.0842908 157.690051,49.115384 C157.2408,48.1464773 156.6323,47.3736987 155.86455,46.7970483 C155.0968,46.2203979 154.205004,45.8113785 153.18916,45.5699899 C152.173317,45.3286014 151.102155,45.2079071 149.975675,45.2079071 L149.975675,45.2079071 L144.966863,45.2079071 L144.966863,60.4556163 L149.975675,60.4556163 Z M150.207006,57.1365239 L149.070468,57.1365239 L149.070468,48.627578 L150.156717,48.627578 C150.94123,48.627578 151.59499,48.7113935 152.117999,48.8790244 C152.641007,49.0466554 153.060085,49.3014544 153.375231,49.6434215 C153.690377,49.9853885 153.913326,50.4178763 154.044078,50.9408848 C154.17483,51.4638933 154.240206,52.0740699 154.240206,52.7714146 C154.240206,53.5425168 154.17483,54.2063353 154.044078,54.76287 C153.913326,55.3194047 153.693729,55.7720082 153.385289,56.1206805 C153.076848,56.4693528 152.664476,56.7258281 152.148172,56.8901065 C151.631869,57.0543848 150.984814,57.1365239 150.207006,57.1365239 L150.207006,57.1365239 Z M172.79695,60.7472941 C173.842967,60.7472941 174.739792,60.6131894 175.487426,60.3449799 C176.23506,60.0767704 176.873734,59.7046297 177.403448,59.2285579 C177.933162,58.7524861 178.358944,58.1892461 178.680796,57.5388381 C179.002647,56.8884301 179.260799,56.177675 179.45525,55.4065727 L179.45525,55.4065727 L175.56286,54.5415972 C175.328177,55.4937408 175.011354,56.2162301 174.612393,56.709065 C174.213431,57.2019 173.614989,57.4483174 172.817066,57.4483174 C171.804575,57.4483174 171.04353,57.0292401 170.533932,56.1910855 C170.024334,55.3529308 169.769535,54.2331562 169.769535,52.8317617 C169.769535,51.4035462 170.014277,50.2955058 170.503759,49.5076404 C170.993241,48.719775 171.750933,48.3258424 172.776834,48.3258424 C173.179148,48.3258424 173.521116,48.394571 173.802736,48.5320284 C174.084355,48.6694858 174.320715,48.8538798 174.511814,49.0852105 C174.702914,49.3165411 174.863839,49.5914559 174.994591,49.9099546 C175.125344,50.2284534 175.244361,50.5720968 175.351645,50.9408848 L175.351645,50.9408848 L179.244035,49.7842314 C179.08311,49.1137077 178.851779,48.4800628 178.550043,47.8832967 C178.248308,47.2865306 177.845993,46.7719037 177.343101,46.3394159 C176.840208,45.9069281 176.218297,45.5632847 175.477368,45.3084857 C174.73644,45.0536867 173.842967,44.9262872 172.79695,44.9262872 C171.824691,44.9262872 170.906073,45.077155 170.041097,45.3788907 C169.176122,45.6806263 168.420106,46.1499929 167.773051,46.7869905 C167.125996,47.423988 166.611369,48.2403506 166.22917,49.2360783 C165.846972,50.231806 165.655872,51.4303671 165.655872,52.8317617 C165.655872,54.2331562 165.840266,55.4317174 166.209054,56.4274451 C166.577843,57.4231728 167.082412,58.2412117 167.722762,58.8815619 C168.363112,59.521912 169.119127,59.9929549 169.990808,60.2946906 C170.862489,60.5964263 171.79787,60.7472941 172.79695,60.7472941 Z M192.16838,60.4556163 L192.16838,57.1365239 L185.761526,57.1365239 L185.761526,45.2079071 L181.637805,45.2079071 L181.637805,60.4556163 L192.16838,60.4556163 Z M200.677326,60.7472941 C201.595943,60.7472941 202.502827,60.5964263 203.397976,60.2946906 C204.293125,59.9929549 205.094401,59.521912 205.801803,58.8815619 C206.509206,58.2412117 207.079151,57.4231728 207.511639,56.4274451 C207.944127,55.4317174 208.16037,54.2331562 208.16037,52.8317617 C208.16037,51.4303671 207.944127,50.231806 207.511639,49.2360783 C207.079151,48.2403506 206.509206,47.423988 205.801803,46.7869905 C205.094401,46.1499929 204.293125,45.6806263 203.397976,45.3788907 C202.502827,45.077155 201.595943,44.9262872 200.677326,44.9262872 C199.758708,44.9262872 198.850149,45.077155 197.951647,45.3788907 C197.053145,45.6806263 196.250193,46.1499929 195.54279,46.7869905 C194.835388,47.423988 194.265443,48.2403506 193.832955,49.2360783 C193.400467,50.231806 193.184223,51.4303671 193.184223,52.8317617 C193.184223,54.2331562 193.400467,55.4317174 193.832955,56.4274451 C194.265443,57.4231728 194.835388,58.2412117 195.54279,58.8815619 C196.250193,59.521912 197.053145,59.9929549 197.951647,60.2946906 C198.850149,60.5964263 199.758708,60.7472941 200.677326,60.7472941 Z M200.677326,57.4483174 C199.591077,57.4483174 198.756275,57.0292401 198.17292,56.1910855 C197.589564,55.3529308 197.297886,54.2331562 197.297886,52.8317617 C197.297886,51.4169567 197.589564,50.3122689 198.17292,49.5176983 C198.756275,48.7231277 199.591077,48.3258424 200.677326,48.3258424 C201.750164,48.3258424 202.578261,48.7231277 203.161616,49.5176983 C203.744972,50.3122689 204.03665,51.4169567 204.03665,52.8317617 C204.03665,54.2331562 203.744972,55.3529308 203.161616,56.1910855 C202.578261,57.0292401 201.750164,57.4483174 200.677326,57.4483174 Z M216.377638,60.686947 C218.597072,60.686947 220.21471,60.1337649 221.230554,59.0274008 C222.246397,57.9210367 222.754319,56.3587164 222.754319,54.34044 L222.754319,54.34044 L222.754319,45.2079071 L218.721119,45.2079071 L218.721119,54.3203243 C218.721119,55.3730466 218.541754,56.1441488 218.183024,56.6336311 C217.824293,57.1231134 217.235909,57.3678546 216.41787,57.3678546 C215.593126,57.3678546 214.998036,57.1231134 214.632601,56.6336311 C214.267165,56.1441488 214.084447,55.3730466 214.084447,54.3203243 L214.084447,54.3203243 L214.084447,45.2079071 L209.970784,45.2079071 L209.970784,54.34044 C209.970784,56.3587164 210.482059,57.9210367 211.504607,59.0274008 C212.527156,60.1337649 214.1515,60.686947 216.377638,60.686947 Z M230.297711,60.4556163 C231.41078,60.4556163 232.475236,60.334922 233.49108,60.0935335 C234.506923,59.8521449 235.39872,59.4364202 236.166469,58.8463594 C236.934219,58.2562985 237.546072,57.4634042 238.002028,56.4676765 C238.457984,55.4719488 238.685962,54.226451 238.685962,52.7311831 C238.685962,51.2895572 238.461337,50.0842908 238.012086,49.115384 C237.562835,48.1464773 236.954335,47.3736987 236.186585,46.7970483 C235.418836,46.2203979 234.527039,45.8113785 233.511196,45.5699899 C232.495352,45.3286014 231.424191,45.2079071 230.297711,45.2079071 L230.297711,45.2079071 L225.288899,45.2079071 L225.288899,60.4556163 L230.297711,60.4556163 Z M230.529041,57.1365239 L229.392504,57.1365239 L229.392504,48.627578 L230.478752,48.627578 C231.263265,48.627578 231.917025,48.7113935 232.440034,48.8790244 C232.963042,49.0466554 233.38212,49.3014544 233.697266,49.6434215 C234.012412,49.9853885 234.235361,50.4178763 234.366113,50.9408848 C234.496865,51.4638933 234.562241,52.0740699 234.562241,52.7714146 C234.562241,53.5425168 234.496865,54.2063353 234.366113,54.76287 C234.235361,55.3194047 234.015765,55.7720082 233.707324,56.1206805 C233.398883,56.4693528 232.986511,56.7258281 232.470208,56.8901065 C231.953904,57.0543848 231.306849,57.1365239 230.529041,57.1365239 L230.529041,57.1365239 Z" id="CONVERGEDCLOUD" fill="#FFFFFF" fill-rule="nonzero"></path>
            </g>
            <path d="M28.4010719,79.9293605 L28.4010719,74.7880996 L30.4518532,74.7880996 C31.1704215,74.7880996 31.8842206,74.7260992 32.5932504,74.6020985 C33.3022802,74.4780977 33.9413608,74.2444041 34.5104924,73.9010174 C35.0796239,73.5576308 35.535883,73.0822947 35.8792696,72.4750091 C36.2226562,71.8677235 36.3943496,71.0776163 36.3943496,70.1046875 C36.3943496,69.1508358 36.2321948,68.3750363 35.9078852,67.7772892 C35.5835756,67.1795422 35.1479833,66.7073855 34.6011083,66.3608194 C34.0542333,66.0142533 33.4246911,65.7789698 32.7124818,65.6549691 C32.0002725,65.5309684 31.2626272,65.468968 30.4995458,65.468968 L30.4995458,65.468968 L25.2438227,65.468968 L25.2438227,79.9293605 L28.4010719,79.9293605 Z M30.5758539,72.3271621 L28.4010719,72.3271621 L28.4010719,68.0729833 L30.5758539,68.0729833 C31.5742187,68.0729833 32.2752998,68.2558049 32.679097,68.621448 C33.0828943,68.9870912 33.2847929,69.5069404 33.2847929,70.1809956 C33.2847929,70.8868459 33.0797148,71.4210029 32.6695585,71.7834666 C32.2594023,72.1459302 31.5615007,72.3271621 30.5758539,72.3271621 L30.5758539,72.3271621 Z M41.1599746,79.9293605 L41.1599746,65.468968 L38.0313408,65.468968 L38.0313408,79.9293605 L41.1599746,79.9293605 Z M46.3739099,80.1487464 C46.8317587,80.1487464 47.2466842,80.0899255 47.6186864,79.9722838 C47.9906886,79.8546421 48.3261265,79.7067951 48.625,79.5287427 C48.9238735,79.3506904 49.1830033,79.1519713 49.4023892,78.9325854 C49.6217751,78.7131995 49.8109557,78.5049419 49.969931,78.3078125 L49.969931,78.3078125 L49.969931,79.9293605 L53.1176417,79.9293605 L53.1176417,69.5132994 L49.969931,69.5132994 L49.969931,76.5908794 C49.6201853,76.8897529 49.2593114,77.1393441 48.8873092,77.339653 C48.5153071,77.5399618 48.1194586,77.6401163 47.6997638,77.6401163 C47.260992,77.6401163 46.9462209,77.5177053 46.7554506,77.2728834 C46.5646802,77.0280614 46.4692951,76.670367 46.4692951,76.1998001 L46.4692951,76.1998001 L46.4692951,69.5132994 L43.3311228,69.5132994 L43.3311228,77.1154978 C43.3311228,77.6496548 43.4058412,78.1090934 43.555278,78.4938136 C43.7047148,78.8785338 43.9161519,79.1948946 44.1895894,79.4428961 C44.4630269,79.6908975 44.7857467,79.8705396 45.1577489,79.9818223 C45.5297511,80.093105 45.9351381,80.1487464 46.3739099,80.1487464 Z M59.3712754,80.1487464 C59.9690225,80.1487464 60.5445131,80.0835665 61.0977471,79.9532068 C61.6509811,79.822847 62.1390352,79.6177689 62.5619095,79.3379724 C62.9847838,79.0581759 63.3234012,78.6925327 63.5777616,78.2410429 C63.8321221,77.7895531 63.9593023,77.2522166 63.9593023,76.6290334 C63.9593023,76.0440044 63.8353016,75.5623092 63.5873001,75.183948 C63.3392987,74.8055868 63.0181686,74.501944 62.6239099,74.2730196 C62.2296512,74.0440952 61.7781613,73.8708121 61.2694404,73.7531704 C60.7607195,73.6355287 60.2519985,73.5321948 59.7432776,73.4431686 C59.0946584,73.3287064 58.6225018,73.1919876 58.3268078,73.0330124 C58.0311137,72.8740371 57.8832667,72.6387536 57.8832667,72.3271621 C57.8832667,72.0410065 58.0040879,71.8168514 58.2457304,71.6546966 C58.4873728,71.4925418 58.8371185,71.4114644 59.2949673,71.4114644 C59.7909702,71.4114644 60.2917424,71.5100291 60.7972838,71.7071584 C61.3028252,71.9042878 61.8226744,72.1840843 62.3568314,72.546548 L62.3568314,72.546548 L63.5873001,70.7628452 C63.0149891,70.3113554 62.3774982,69.9552507 61.6748274,69.6945312 C60.9721566,69.4338118 60.0866642,69.303452 59.0183503,69.303452 C58.4333212,69.303452 57.8959847,69.3781704 57.4063408,69.5276072 C56.916697,69.677044 56.4906432,69.8916606 56.1281795,70.1714571 C55.7657158,70.4512536 55.4827398,70.79623 55.2792515,71.2063863 C55.0757631,71.6165425 54.9740189,72.0823401 54.9740189,72.6037791 C54.9740189,73.2142442 55.0948401,73.7118368 55.3364826,74.096557 C55.578125,74.4812773 55.8913063,74.7912791 56.2760265,75.0265625 C56.6607467,75.2618459 57.096339,75.4383085 57.5828034,75.5559502 C58.0692678,75.6735919 58.5605015,75.7769259 59.0565044,75.865952 C59.7750727,75.9931323 60.2837936,76.142569 60.5826672,76.3142624 C60.8815407,76.4859557 61.0309775,76.7530342 61.0309775,77.1154978 C61.0309775,77.4525254 60.8783612,77.7068859 60.5731286,77.8785792 C60.2678961,78.0502725 59.8672783,78.1361192 59.3712754,78.1361192 C58.7353743,78.1361192 58.0915243,78.015298 57.4397257,77.7736555 C56.787927,77.5320131 56.2267442,77.2013445 55.7561773,76.7816497 L55.7561773,76.7816497 L54.5066315,78.5462754 C55.0407885,78.9977653 55.6989462,79.3777162 56.4811047,79.6861283 C57.2632631,79.9945403 58.2266533,80.1487464 59.3712754,80.1487464 Z M71.9012536,80.2059775 C72.7724382,80.2059775 73.6150073,80.0517714 74.4289608,79.7433594 C75.2429142,79.4349473 75.9662518,78.9723292 76.5989735,78.3555051 C77.2316951,77.738681 77.7388263,76.9612918 78.120367,76.0233376 C78.5019077,75.0853834 78.6926781,73.9773256 78.6926781,72.6991642 C78.6926781,71.4400799 78.5019077,70.3383812 78.120367,69.394068 C77.7388263,68.4497547 77.2316951,67.6675963 76.5989735,67.0475927 C75.9662518,66.427589 75.2429142,65.9649709 74.4289608,65.6597384 C73.6150073,65.3545058 72.7724382,65.2018895 71.9012536,65.2018895 C71.030069,65.2018895 70.1827307,65.3545058 69.3592387,65.6597384 C68.5357467,65.9649709 67.8092297,66.427589 67.1796875,67.0475927 C66.5501454,67.6675963 66.0430142,68.4497547 65.658294,69.394068 C65.2735738,70.3383812 65.0812137,71.4400799 65.0812137,72.6991642 C65.0812137,73.9773256 65.2735738,75.0853834 65.658294,76.0233376 C66.0430142,76.9612918 66.5501454,77.738681 67.1796875,78.3555051 C67.8092297,78.9723292 68.5357467,79.4349473 69.3592387,79.7433594 C70.1827307,80.0517714 71.030069,80.2059775 71.9012536,80.2059775 Z M71.9012536,77.6401163 C71.3416606,77.6401163 70.8361192,77.5272438 70.3846294,77.3014989 C69.9331395,77.075754 69.5515988,76.7482649 69.2400073,76.3190316 C68.9284157,75.8897983 68.688363,75.3683594 68.5198492,74.7547148 C68.3513354,74.1410701 68.2670785,73.4558866 68.2670785,72.6991642 C68.2670785,71.1793605 68.5897983,69.9886355 69.235238,69.1269895 C69.8806777,68.2653434 70.7693496,67.8345203 71.9012536,67.8345203 C73.0204397,67.8345203 73.9059321,68.2653434 74.5577307,69.1269895 C75.2095294,69.9886355 75.5354288,71.1793605 75.5354288,72.6991642 C75.5354288,73.4558866 75.4495821,74.1410701 75.2778888,74.7547148 C75.1061955,75.3683594 74.8645531,75.8897983 74.5529615,76.3190316 C74.2413699,76.7482649 73.861419,77.075754 73.4131087,77.3014989 C72.9647983,77.5272438 72.4608467,77.6401163 71.9012536,77.6401163 Z M83.4487645,79.9293605 L83.4487645,72.9376272 C83.7985102,72.6387536 84.1593841,72.3907522 84.5313863,72.1936228 C84.9033884,71.9964935 85.2960574,71.8979288 85.7093932,71.8979288 C86.154524,71.8979288 86.4708848,72.01875 86.6584757,72.2603924 C86.8460665,72.5020349 86.9398619,72.8581395 86.9398619,73.3287064 L86.9398619,73.3287064 L86.9398619,79.9293605 L90.0684956,79.9293605 L90.0684956,72.3271621 C90.0684956,71.7930051 89.9937773,71.3351562 89.8443405,70.9536156 C89.6949037,70.5720749 89.4866461,70.2604833 89.2195676,70.0188408 C88.9524891,69.7771984 88.6329488,69.5975563 88.2609466,69.4799146 C87.8889444,69.3622729 87.4835574,69.303452 87.0447856,69.303452 C86.5869368,69.303452 86.1720113,69.3622729 85.8000091,69.4799146 C85.4280069,69.5975563 85.092569,69.7469931 84.7936955,69.9282249 C84.494822,70.1094568 84.2341025,70.3081759 84.0115371,70.5243823 C83.7889717,70.7405887 83.6013808,70.950436 83.4487645,71.1539244 L83.4487645,71.1539244 L83.4487645,69.5132994 L80.3010538,69.5132994 L80.3010538,79.9293605 L83.4487645,79.9293605 Z M96.8753634,80.1487464 C98.6686047,80.1487464 100.17887,79.6273074 101.406159,78.5844295 L101.406159,78.5844295 L100.194767,76.7053416 C99.8386628,77.0296512 99.3903525,77.3189862 98.8498365,77.5733467 C98.3093205,77.8277071 97.7274709,77.9548874 97.1042878,77.9548874 C96.4429506,77.9548874 95.8944858,77.7720658 95.4588935,77.4064226 C95.0233012,77.0407794 94.7641715,76.4287246 94.6815044,75.570258 L94.6815044,75.570258 L101.577852,75.570258 L101.577852,75.1028706 C101.577852,73.9200945 101.428416,72.9535247 101.129542,72.2031613 C100.830669,71.452798 100.450718,70.8629996 99.9896893,70.4337664 C99.528661,70.0045331 99.013581,69.708839 98.4444495,69.5466842 C97.875318,69.3845294 97.3236737,69.303452 96.7895167,69.303452 C96.2553597,69.303452 95.6830487,69.3972475 95.0725836,69.5848383 C94.4621185,69.7724291 93.8961664,70.0776617 93.3747275,70.500536 C92.8532885,70.9234102 92.4208757,71.4798238 92.0774891,72.1697765 C91.7341025,72.8597293 91.5624092,73.7134266 91.5624092,74.7308685 C91.5624092,75.7355923 91.7118459,76.5829306 92.0107195,77.2728834 C92.309593,77.9628361 92.7054415,78.5192496 93.1982649,78.9421239 C93.6910883,79.3649982 94.2570403,79.6718205 94.896121,79.8625908 C95.5352017,80.0533612 96.1949491,80.1487464 96.8753634,80.1487464 Z M98.7639898,73.7197856 L94.7196584,73.7197856 C94.8404797,72.9503452 95.0900709,72.3955214 95.4684321,72.0553143 C95.8467932,71.7151072 96.2807958,71.5450036 96.7704397,71.5450036 C97.9468568,71.5450036 98.6113736,72.269931 98.7639898,73.7197856 L98.7639898,73.7197856 Z M111.805414,79.9293605 L111.805414,65.468968 L108.638626,65.468968 L108.638626,79.9293605 L111.805414,79.9293605 Z M117.572584,79.9293605 L117.572584,72.9376272 C117.922329,72.6387536 118.283203,72.3907522 118.655205,72.1936228 C119.027207,71.9964935 119.419876,71.8979288 119.833212,71.8979288 C120.278343,71.8979288 120.594704,72.01875 120.782295,72.2603924 C120.969886,72.5020349 121.063681,72.8581395 121.063681,73.3287064 L121.063681,73.3287064 L121.063681,79.9293605 L124.192315,79.9293605 L124.192315,72.3271621 C124.192315,71.7930051 124.117596,71.3351562 123.96816,70.9536156 C123.818723,70.5720749 123.610465,70.2604833 123.343387,70.0188408 C123.076308,69.7771984 122.756768,69.5975563 122.384766,69.4799146 C122.012763,69.3622729 121.607376,69.303452 121.168605,69.303452 C120.710756,69.303452 120.29583,69.3622729 119.923828,69.4799146 C119.551826,69.5975563 119.216388,69.7469931 118.917515,69.9282249 C118.618641,70.1094568 118.357922,70.3081759 118.135356,70.5243823 C117.912791,70.7405887 117.7252,70.950436 117.572584,71.1539244 L117.572584,71.1539244 L117.572584,69.5132994 L114.424873,69.5132994 L114.424873,79.9293605 L117.572584,79.9293605 Z M130.312409,79.9293605 L130.312409,71.8025436 L132.573038,71.8025436 L132.573038,69.5132994 L130.312409,69.5132994 L130.312409,68.8932958 C130.312409,68.6198583 130.350563,68.3988826 130.426871,68.2303688 C130.50318,68.061855 130.609693,67.9346748 130.746412,67.8488281 C130.88313,67.7629815 131.040516,67.7073401 131.218568,67.6819041 C131.396621,67.656468 131.584211,67.64375 131.781341,67.64375 C131.933957,67.64375 132.104061,67.650109 132.291652,67.662827 C132.479242,67.6755451 132.614371,67.6946221 132.697039,67.7200581 L132.697039,67.7200581 L132.697039,65.5357376 C132.658884,65.5230196 132.565089,65.5087118 132.415652,65.4928143 C132.266215,65.4769168 132.096112,65.462609 131.905342,65.449891 C131.714571,65.437173 131.522211,65.4244549 131.328261,65.4117369 C131.134311,65.3990189 130.957849,65.3926599 130.798874,65.3926599 C130.029433,65.3926599 129.40784,65.4880451 128.934093,65.6788154 C128.460347,65.8695858 128.093114,66.1239462 127.832395,66.4418968 C127.571675,66.7598474 127.398392,67.1239008 127.312545,67.534057 C127.226699,67.9442133 127.183775,68.3654978 127.183775,68.7979106 L127.183775,68.7979106 L127.183775,69.5132994 L125.447765,69.5132994 L125.447765,71.8025436 L127.183775,71.8025436 L127.183775,79.9293605 L130.312409,79.9293605 Z M137.071584,79.9293605 L137.071584,73.4622456 C137.370458,73.087064 137.750409,72.7563953 138.211437,72.4702398 C138.672465,72.1840843 139.214571,72.0410065 139.837754,72.0410065 C139.945858,72.0410065 140.093705,72.0473656 140.281295,72.0600836 C140.468886,72.0728016 140.594477,72.0855196 140.658067,72.0982376 L140.658067,72.0982376 L140.705759,69.303452 L140.600836,69.303452 C140.111192,69.303452 139.680369,69.3654524 139.308367,69.4894531 C138.936364,69.6134539 138.610465,69.7692496 138.330669,69.9568405 C138.050872,70.1444313 137.80923,70.352689 137.605741,70.5816134 C137.402253,70.8105378 137.23056,71.0362827 137.090661,71.2588481 L137.090661,71.2588481 L137.071584,71.2588481 L137.071584,69.5132994 L133.923874,69.5132994 L133.923874,79.9293605 L137.071584,79.9293605 Z M143.935683,80.0819767 C144.711483,80.0819767 145.390307,79.938899 145.972157,79.6527435 C146.554006,79.3665879 147.083394,78.9500727 147.56032,78.4031977 C147.56032,78.7020712 147.584166,78.9755087 147.631859,79.2235102 C147.679551,79.4715116 147.735193,79.7067951 147.798783,79.9293605 L147.798783,79.9293605 L150.927416,79.9293605 C150.819313,79.668641 150.743005,79.3363826 150.698492,78.9325854 C150.653979,78.5287882 150.631722,78.015298 150.631722,77.3921148 L150.631722,77.3921148 L150.631722,73.3859375 C150.631722,72.044186 150.318541,71.0283339 149.692178,70.3383812 C149.065816,69.6484284 148.037246,69.303452 146.606468,69.303452 C145.957849,69.303452 145.36964,69.3559139 144.841842,69.4608376 C144.314044,69.5657613 143.841888,69.7056595 143.425372,69.8805323 C143.008857,70.0554052 142.633676,70.2541243 142.299827,70.4766897 C141.965979,70.6992551 141.668696,70.925 141.407976,71.1539244 L141.407976,71.1539244 L142.743368,72.9567042 C143.220294,72.5751635 143.743323,72.2651617 144.312455,72.0266988 C144.881586,71.7882358 145.496821,71.6690044 146.158158,71.6690044 C146.666879,71.6690044 147.027753,71.7818768 147.240779,72.0076217 C147.453806,72.2333666 147.56032,72.5370094 147.56032,72.9185501 L147.56032,72.9185501 L147.56032,73.1665516 C145.271076,73.3509629 143.598656,73.781786 142.54306,74.4590207 C141.487464,75.1362555 140.959666,76.0726199 140.959666,77.2681141 C140.959666,77.7132449 141.037564,78.1122729 141.193359,78.465198 C141.349155,78.8181232 141.563772,79.1138172 141.837209,79.3522802 C142.110647,79.5907431 142.427008,79.7719749 142.786292,79.8959757 C143.145576,80.0199764 143.528706,80.0819767 143.935683,80.0819767 Z M145.185229,77.7259629 C144.841842,77.7259629 144.563636,77.6432958 144.350609,77.4779615 C144.137582,77.3126272 144.031068,77.0614462 144.031068,76.7244186 C144.031068,76.2411337 144.307685,75.846875 144.860919,75.5416424 C145.414153,75.2364099 146.313953,75.0202035 147.56032,74.8930233 L147.56032,74.8930233 L147.56032,76.8198038 C147.305959,77.0805233 146.983239,77.2967297 146.59216,77.468423 C146.201081,77.6401163 145.732104,77.7259629 145.185229,77.7259629 Z M156.789971,80.1487464 C157.387718,80.1487464 157.963209,80.0835665 158.516443,79.9532068 C159.069677,79.822847 159.557731,79.6177689 159.980605,79.3379724 C160.403479,79.0581759 160.742097,78.6925327 160.996457,78.2410429 C161.250818,77.7895531 161.377998,77.2522166 161.377998,76.6290334 C161.377998,76.0440044 161.253997,75.5623092 161.005996,75.183948 C160.757994,74.8055868 160.436864,74.501944 160.042605,74.2730196 C159.648347,74.0440952 159.196857,73.8708121 158.688136,73.7531704 C158.179415,73.6355287 157.670694,73.5321948 157.161973,73.4431686 C156.513354,73.3287064 156.041197,73.1919876 155.745503,73.0330124 C155.449809,72.8740371 155.301962,72.6387536 155.301962,72.3271621 C155.301962,72.0410065 155.422783,71.8168514 155.664426,71.6546966 C155.906068,71.4925418 156.255814,71.4114644 156.713663,71.4114644 C157.209666,71.4114644 157.710438,71.5100291 158.215979,71.7071584 C158.721521,71.9042878 159.24137,72.1840843 159.775527,72.546548 L159.775527,72.546548 L161.005996,70.7628452 C160.433685,70.3113554 159.796194,69.9552507 159.093523,69.6945312 C158.390852,69.4338118 157.50536,69.303452 156.437046,69.303452 C155.852017,69.303452 155.31468,69.3781704 154.825036,69.5276072 C154.335392,69.677044 153.909339,69.8916606 153.546875,70.1714571 C153.184411,70.4512536 152.901435,70.79623 152.697947,71.2063863 C152.494459,71.6165425 152.392714,72.0823401 152.392714,72.6037791 C152.392714,73.2142442 152.513536,73.7118368 152.755178,74.096557 C152.996821,74.4812773 153.310002,74.7912791 153.694722,75.0265625 C154.079442,75.2618459 154.515035,75.4383085 155.001499,75.5559502 C155.487963,75.6735919 155.979197,75.7769259 156.4752,75.865952 C157.193768,75.9931323 157.702489,76.142569 158.001363,76.3142624 C158.300236,76.4859557 158.449673,76.7530342 158.449673,77.1154978 C158.449673,77.4525254 158.297057,77.7068859 157.991824,77.8785792 C157.686592,78.0502725 157.285974,78.1361192 156.789971,78.1361192 C156.15407,78.1361192 155.51022,78.015298 154.858421,77.7736555 C154.206622,77.5320131 153.64544,77.2013445 153.174873,76.7816497 L153.174873,76.7816497 L151.925327,78.5462754 C152.459484,78.9977653 153.117642,79.3777162 153.8998,79.6861283 C154.681959,79.9945403 155.645349,80.1487464 156.789971,80.1487464 Z M167.078398,80.0628997 C167.243732,80.0628997 167.434502,80.0565407 167.650709,80.0438227 C167.866915,80.0311047 168.075173,80.0183866 168.275481,80.0056686 C168.47579,79.9929506 168.655432,79.9770531 168.814408,79.957976 C168.973383,79.938899 169.084666,79.9230015 169.148256,79.9102834 L169.148256,79.9102834 L169.148256,77.6591933 C169.040153,77.7037064 168.885947,77.7355015 168.685638,77.7545785 C168.485329,77.7736555 168.292969,77.783194 168.108557,77.783194 C167.536246,77.783194 167.153116,77.6782703 166.959166,77.468423 C166.765216,77.2585756 166.668241,76.8738554 166.668241,76.3142624 L166.668241,76.3142624 L166.668241,71.8025436 L169.339026,71.8025436 L169.339026,69.5132994 L166.668241,69.5132994 L166.668241,65.9458939 L163.539608,65.9458939 L163.539608,69.5132994 L161.803597,69.5132994 L161.803597,71.8025436 L163.539608,71.8025436 L163.539608,77.0010356 C163.539608,77.4970385 163.579351,77.9326308 163.658839,78.3078125 C163.738327,78.6829942 163.900481,79.0009448 164.145303,79.2616642 C164.390125,79.5223837 164.74782,79.7211028 165.218387,79.8578216 C165.688954,79.9945403 166.308957,80.0628997 167.078398,80.0628997 Z M173.952035,79.9293605 L173.952035,73.4622456 C174.250908,73.087064 174.630859,72.7563953 175.091888,72.4702398 C175.552916,72.1840843 176.095022,72.0410065 176.718205,72.0410065 C176.826308,72.0410065 176.974155,72.0473656 177.161746,72.0600836 C177.349337,72.0728016 177.474927,72.0855196 177.538517,72.0982376 L177.538517,72.0982376 L177.58621,69.303452 L177.481286,69.303452 C176.991642,69.303452 176.560819,69.3654524 176.188817,69.4894531 C175.816815,69.6134539 175.490916,69.7692496 175.211119,69.9568405 C174.931323,70.1444313 174.68968,70.352689 174.486192,70.5816134 C174.282704,70.8105378 174.11101,71.0362827 173.971112,71.2588481 L173.971112,71.2588481 L173.952035,71.2588481 L173.952035,69.5132994 L170.804324,69.5132994 L170.804324,79.9293605 L173.952035,79.9293605 Z M181.779524,80.1487464 C182.237373,80.1487464 182.652298,80.0899255 183.024301,79.9722838 C183.396303,79.8546421 183.731741,79.7067951 184.030614,79.5287427 C184.329488,79.3506904 184.588617,79.1519713 184.808003,78.9325854 C185.027389,78.7131995 185.21657,78.5049419 185.375545,78.3078125 L185.375545,78.3078125 L185.375545,79.9293605 L188.523256,79.9293605 L188.523256,69.5132994 L185.375545,69.5132994 L185.375545,76.5908794 C185.025799,76.8897529 184.664926,77.1393441 184.292923,77.339653 C183.920921,77.5399618 183.525073,77.6401163 183.105378,77.6401163 C182.666606,77.6401163 182.351835,77.5177053 182.161065,77.2728834 C181.970294,77.0280614 181.874909,76.670367 181.874909,76.1998001 L181.874909,76.1998001 L181.874909,69.5132994 L178.736737,69.5132994 L178.736737,77.1154978 C178.736737,77.6496548 178.811455,78.1090934 178.960892,78.4938136 C179.110329,78.8785338 179.321766,79.1948946 179.595204,79.4428961 C179.868641,79.6908975 180.191361,79.8705396 180.563363,79.9818223 C180.935365,80.093105 181.340752,80.1487464 181.779524,80.1487464 Z M195.2252,80.1487464 C195.918332,80.1487464 196.520848,80.0597202 197.032749,79.8816679 C197.544649,79.7036156 197.986601,79.4683321 198.358603,79.1758176 C198.730605,78.8833031 199.043786,78.5446857 199.298147,78.1599655 C199.552507,77.7752453 199.765534,77.3825763 199.937227,76.9819586 L199.937227,76.9819586 L197.333212,76.0853379 C197.110647,76.7848292 196.818132,77.2681141 196.455669,77.5351926 C196.093205,77.8022711 195.702126,77.9358103 195.282431,77.9358103 C194.919967,77.9358103 194.611555,77.8579124 194.357195,77.7021166 C194.102834,77.5463209 193.894577,77.3253452 193.732422,77.0391897 C193.570267,76.7530342 193.449446,76.4175963 193.369958,76.0328761 C193.290471,75.6481559 193.250727,75.2205124 193.250727,74.7499455 C193.250727,73.7070676 193.436728,72.9233194 193.80873,72.3987009 C194.180732,71.8740825 194.684684,71.6117733 195.320585,71.6117733 C195.778434,71.6117733 196.163154,71.7373637 196.474746,71.9885447 C196.786337,72.2397257 197.047057,72.6991642 197.256904,73.3668605 L197.256904,73.3668605 L199.899073,72.4893169 C199.740098,72.0696221 199.549328,71.6674146 199.326762,71.2826944 C199.104197,70.8979742 198.818041,70.5593568 198.468296,70.2668423 C198.11855,69.9743278 197.689317,69.7406341 197.180596,69.5657613 C196.671875,69.3908884 196.064589,69.303452 195.358739,69.303452 C194.786428,69.303452 194.19186,69.3908884 193.575036,69.5657613 C192.958212,69.7406341 192.39226,70.0363281 191.87718,70.4528434 C191.3621,70.8693586 190.939226,71.4257722 190.608557,72.1220839 C190.277889,72.8183957 190.112555,73.6879906 190.112555,74.7308685 C190.112555,75.7483103 190.265171,76.6020076 190.570403,77.2919604 C190.875636,77.9819132 191.271484,78.5383267 191.757949,78.9612009 C192.244413,79.3840752 192.791288,79.687718 193.398574,79.8721294 C194.005859,80.0565407 194.614735,80.1487464 195.2252,80.1487464 Z M205.666243,80.0628997 C205.831577,80.0628997 206.022347,80.0565407 206.238554,80.0438227 C206.45476,80.0311047 206.663018,80.0183866 206.863327,80.0056686 C207.063636,79.9929506 207.243278,79.9770531 207.402253,79.957976 C207.561228,79.938899 207.672511,79.9230015 207.736101,79.9102834 L207.736101,79.9102834 L207.736101,77.6591933 C207.627998,77.7037064 207.473792,77.7355015 207.273483,77.7545785 C207.073174,77.7736555 206.880814,77.783194 206.696403,77.783194 C206.124092,77.783194 205.740961,77.6782703 205.547011,77.468423 C205.353061,77.2585756 205.256086,76.8738554 205.256086,76.3142624 L205.256086,76.3142624 L205.256086,71.8025436 L207.926871,71.8025436 L207.926871,69.5132994 L205.256086,69.5132994 L205.256086,65.9458939 L202.127453,65.9458939 L202.127453,69.5132994 L200.391443,69.5132994 L200.391443,71.8025436 L202.127453,71.8025436 L202.127453,77.0010356 C202.127453,77.4970385 202.167197,77.9326308 202.246684,78.3078125 C202.326172,78.6829942 202.488327,79.0009448 202.733149,79.2616642 C202.977971,79.5223837 203.335665,79.7211028 203.806232,79.8578216 C204.276799,79.9945403 204.896802,80.0628997 205.666243,80.0628997 Z M212.339571,80.1487464 C212.79742,80.1487464 213.212346,80.0899255 213.584348,79.9722838 C213.95635,79.8546421 214.291788,79.7067951 214.590661,79.5287427 C214.889535,79.3506904 215.148665,79.1519713 215.368051,78.9325854 C215.587436,78.7131995 215.776617,78.5049419 215.935592,78.3078125 L215.935592,78.3078125 L215.935592,79.9293605 L219.083303,79.9293605 L219.083303,69.5132994 L215.935592,69.5132994 L215.935592,76.5908794 C215.585847,76.8897529 215.224973,77.1393441 214.852971,77.339653 C214.480968,77.5399618 214.08512,77.6401163 213.665425,77.6401163 C213.226653,77.6401163 212.911882,77.5177053 212.721112,77.2728834 C212.530342,77.0280614 212.434956,76.670367 212.434956,76.1998001 L212.434956,76.1998001 L212.434956,69.5132994 L209.296784,69.5132994 L209.296784,77.1154978 C209.296784,77.6496548 209.371503,78.1090934 209.520939,78.4938136 C209.670376,78.8785338 209.881813,79.1948946 210.155251,79.4428961 C210.428688,79.6908975 210.751408,79.8705396 211.12341,79.9818223 C211.495412,80.093105 211.900799,80.1487464 212.339571,80.1487464 Z M224.383085,79.9293605 L224.383085,73.4622456 C224.681959,73.087064 225.06191,72.7563953 225.522938,72.4702398 C225.983966,72.1840843 226.526072,72.0410065 227.149255,72.0410065 C227.257358,72.0410065 227.405205,72.0473656 227.592796,72.0600836 C227.780387,72.0728016 227.905977,72.0855196 227.969568,72.0982376 L227.969568,72.0982376 L228.01726,69.303452 L227.912336,69.303452 C227.422693,69.303452 226.99187,69.3654524 226.619867,69.4894531 C226.247865,69.6134539 225.921966,69.7692496 225.642169,69.9568405 C225.362373,70.1444313 225.12073,70.352689 224.917242,70.5816134 C224.713754,70.8105378 224.54206,71.0362827 224.402162,71.2588481 L224.402162,71.2588481 L224.383085,71.2588481 L224.383085,69.5132994 L221.235374,69.5132994 L221.235374,79.9293605 L224.383085,79.9293605 Z M233.565044,80.1487464 C235.358285,80.1487464 236.86855,79.6273074 238.095839,78.5844295 L238.095839,78.5844295 L236.884448,76.7053416 C236.528343,77.0296512 236.080033,77.3189862 235.539517,77.5733467 C234.999001,77.8277071 234.417151,77.9548874 233.793968,77.9548874 C233.132631,77.9548874 232.584166,77.7720658 232.148574,77.4064226 C231.712981,77.0407794 231.453852,76.4287246 231.371185,75.570258 L231.371185,75.570258 L238.267533,75.570258 L238.267533,75.1028706 C238.267533,73.9200945 238.118096,72.9535247 237.819222,72.2031613 C237.520349,71.452798 237.140398,70.8629996 236.67937,70.4337664 C236.218341,70.0045331 235.703261,69.708839 235.13413,69.5466842 C234.564998,69.3845294 234.013354,69.303452 233.479197,69.303452 C232.94504,69.303452 232.372729,69.3972475 231.762264,69.5848383 C231.151799,69.7724291 230.585847,70.0776617 230.064408,70.500536 C229.542969,70.9234102 229.110556,71.4798238 228.767169,72.1697765 C228.423783,72.8597293 228.252089,73.7134266 228.252089,74.7308685 C228.252089,75.7355923 228.401526,76.5829306 228.7004,77.2728834 C228.999273,77.9628361 229.395122,78.5192496 229.887945,78.9421239 C230.380769,79.3649982 230.946721,79.6718205 231.585801,79.8625908 C232.224882,80.0533612 232.884629,80.1487464 233.565044,80.1487464 Z M235.45367,73.7197856 L231.409339,73.7197856 C231.53016,72.9503452 231.779751,72.3955214 232.158112,72.0553143 C232.536473,71.7151072 232.970476,71.5450036 233.46012,71.5450036 C234.636537,71.5450036 235.301054,72.269931 235.45367,73.7197856 L235.45367,73.7197856 Z" id="PlusOneInfrastructure" fill="#F0AB00" fill-rule="nonzero"></path>
        </g>
    </g>
</svg>