<svg width="59" height="42" viewBox="0 0 59 42" fill="none" xmlns="http://www.w3.org/2000/svg">
<path d="M59.3825 11.1608C59.3545 11.1402 59.3267 11.1209 59.299 11.1029C56.8161 9.48915 53.8572 8.55235 50.6806 8.55235C49.5105 8.55235 48.3701 8.67944 47.272 8.92064C44.3685 3.66326 38.8166 0.108856 32.4447 0.108856C23.4894 0.108856 16.1537 7.12988 15.514 16.032L15.3487 16.0309L15.1066 16.0329C7.13468 16.1633 0.712036 22.728 0.712036 30.807C0.712036 35.0932 2.69502 38.9531 5.7492 41.6521H10.3029C6.42919 39.7347 3.75866 35.6852 3.75866 30.9998C3.75866 24.4639 8.95513 19.1655 15.3653 19.1655C16.2819 19.1655 17.1736 19.2738 18.0286 19.4792C17.9603 18.8925 17.9251 18.2952 17.9251 17.6896C17.9251 9.4705 24.4057 2.80763 32.4 2.80763C38.5297 2.80763 43.7695 6.72481 45.8801 12.2573C47.317 11.7139 48.8714 11.417 50.4937 11.417C53.699 11.417 56.6389 12.5758 58.9323 14.505C59.0819 14.6309 59.2321 14.8185 59.3825 15.0614V11.1608Z" fill="#F0AB00"/>
</svg>
