<svg xmlns="http://www.w3.org/2000/svg" width="250" height="95" viewBox="0 0 250 95"><g fill="none" fill-rule="evenodd" transform="translate(0 3)"><path fill="#F0AB00" d="M19.910082,61.1351644 C11.3366605,60.9812495 4.43581237,54.2382743 4.43581237,45.9426635 C4.43581237,37.6470527 11.3366605,30.9040775 19.910082,30.7501626 L20.2098251,30.7474741 L20.3682505,30.7493997 C21.0905947,21.6352587 28.9752223,14.4571359 38.5954293,14.4571359 C45.4920614,14.4571359 51.4967245,18.1461998 54.6102861,23.5938514 C55.7892719,23.3478949 57.0135649,23.2183262 58.2694186,23.2183262 C66.471011,23.2183262 73.3265378,28.7444213 75.0066721,36.1250237 C75.1389672,37.3316945 74.2537025,37.631527 73.595713,37.631527 C72.9723546,37.631527 72.3159723,37.1757629 72.0343362,36.2783483 L71.9973298,36.1479426 C70.3740468,30.3530562 64.8249148,26.1069917 58.2694186,26.1069917 C57.3801575,26.1069917 56.5028626,26.184591 55.6445705,26.3373116 L55.2170407,26.4199205 L53.1128474,26.8588912 L52.0571289,25.0117504 C49.431785,20.4183101 44.467797,17.4656354 38.9348754,17.3493657 L38.5954293,17.3458014 C30.6500361,17.3458014 24.0669369,23.1714074 23.3161115,30.680967 L23.2898194,30.9743902 L23.0760831,33.6711976 L20.2098251,33.6361396 C13.1016291,33.6361396 7.3662836,39.1610281 7.3662836,45.9426635 C7.3662836,52.5438809 12.8062892,57.9686811 19.6402769,58.2382534 L19.9298553,58.2465646 L20.8644708,58.2507574 C21.6628427,58.2507574 22.310051,58.8979657 22.310051,59.6963376 C22.310051,60.4947095 21.6628427,61.1419178 20.8644708,61.1419178 L19.910082,61.1351644 Z"/><path fill="#F0AB00" fill-rule="nonzero" d="M83.5478934,23.0010895 C83.6844381,25.6065172 83.3696749,28.1753578 82.6298206,30.6195594 C82.5947806,30.7353185 82.5461846,30.8430699 82.4863366,30.9415779 C82.8146193,31.3770458 83.0218827,31.9136308 83.0526814,32.5013048 C83.1348112,34.0684355 81.9309801,35.4054254 80.3638494,35.4875553 C78.7967186,35.5696851 77.4597288,34.365854 77.3775989,32.7987233 C77.2966894,31.2548768 78.4638113,29.9343832 79.9968218,29.8169614 C79.9987468,29.8126968 80.0006121,29.8063772 80.002524,29.8000609 C80.6484002,27.666328 80.9232194,25.4234771 80.8038043,23.1449011 C80.2463732,12.5084807 71.2569813,4.33172119 60.7235236,4.88375632 C54.9254336,5.18762134 49.6942376,8.09650922 46.3256832,12.7313311 C45.8760582,13.3499739 45.01603,13.4815395 44.4047565,13.025191 C43.7934831,12.5688425 43.6624411,11.6973899 44.1120662,11.078747 C47.9633022,5.77979946 53.9497253,2.45095581 60.5778214,2.10359201 C72.6249892,1.4722267 82.9098968,10.8273885 83.5478934,23.0010895 Z M80.1540268,31.4839018 C79.5061845,31.5178538 79.0104125,32.0684644 79.0441065,32.7113853 C79.0778006,33.3543062 79.6284112,33.8500783 80.2762535,33.8161263 C80.9240958,33.7821743 81.4198678,33.2315637 81.3861738,32.5886428 C81.3524797,31.9457219 80.8018691,31.4499498 80.1540268,31.4839018 Z M77.8556658,23.214442 C77.9114736,24.2793198 77.8622296,25.366533 77.7125822,26.4415701 C77.6070978,27.1993487 76.9185649,27.7252984 76.1747008,27.6163116 C75.4308368,27.5073249 74.9133278,26.8046727 75.0188122,26.0468941 C75.1440041,25.1475405 75.185107,24.2400675 75.1388183,23.356826 C74.7488402,15.9156012 68.4942508,10.1928557 61.1669094,10.5768654 C59.2400884,10.6778458 57.3956511,11.1923401 55.7249133,12.0766843 C55.5984271,12.1436352 55.4663365,12.1883206 55.3329521,12.2121306 L55.3317549,12.1455863 C55.4138847,13.712717 54.2100536,15.0497069 52.6429229,15.1318367 C51.0757921,15.2139666 49.7388023,14.0101355 49.6566724,12.4430048 C49.5745426,10.875874 50.7783737,9.53888417 52.3455044,9.45675433 C52.9822704,9.42338283 53.58104,9.60232458 54.07307,9.93168304 C54.1799745,9.80543021 54.3125235,9.69763818 54.4669944,9.6158746 C56.4809853,8.54984182 58.7046462,7.92956554 61.0218061,7.80812834 C69.8478304,7.345576 77.3854534,14.2422554 77.8556658,23.214442 Z M71.3677388,22.0071208 C71.5000628,22.7679732 71.0164596,23.4939209 70.287581,23.6285704 C69.5587023,23.76322 68.8605597,23.2555823 68.7282358,22.4947299 C68.0777526,18.7545022 64.835946,16.057604 61.1517018,16.2506871 C59.8335575,16.3197681 58.5887733,16.7491481 57.515077,17.4864826 C56.897608,17.9105142 56.0652678,17.7306311 55.6559932,17.0847023 C55.2467187,16.4387736 55.4154936,15.5713993 56.0329627,15.1473676 C57.5019772,14.138558 59.2072498,13.5503356 61.005244,13.4561067 C66.0423752,13.1921219 70.4761661,16.8806462 71.3677388,22.0071208 Z M52.4331003,11.1281833 C51.785258,11.1621353 51.289486,11.7127459 51.32318,12.3556668 C51.3568741,12.9985877 51.9074847,13.4943597 52.555327,13.4604078 C53.2031693,13.4264558 53.6989413,12.8758452 53.6652473,12.2329243 C53.6315532,11.5900034 53.0809426,11.0942313 52.4331003,11.1281833 Z"/><path fill="#FFF" fill-rule="nonzero" d="M34.2034098,62.0965083 C35.2716887,62.0965083 36.187601,61.9581494 36.9511465,61.6814315 C37.714692,61.4047137 38.3669585,61.0207677 38.9079459,60.5295936 C39.4489333,60.0384194 39.8837777,59.457312 40.2124789,58.7862713 C40.5411801,58.1152305 40.8048259,57.3819283 41.0034162,56.5863645 L41.0034162,56.5863645 L37.0281858,55.6939495 C36.7885079,56.6762978 36.4649426,57.4217065 36.0574901,57.9301755 C35.6500375,58.4386445 35.0388587,58.692879 34.2239536,58.692879 C33.1899144,58.692879 32.4126729,58.2605074 31.8922294,57.3957642 C31.3717858,56.531021 31.111564,55.375724 31.111564,53.9298734 C31.111564,52.4563509 31.3615139,51.3131604 31.8614136,50.5003018 C32.3613134,49.6874431 33.1351308,49.2810138 34.182866,49.2810138 C34.5937425,49.2810138 34.9429875,49.3519228 35.2306011,49.4937407 C35.5182146,49.6355586 35.7596046,49.8258021 35.9547709,50.0644712 C36.1499373,50.3031403 36.3142879,50.5867761 36.4478228,50.9153785 C36.5813576,51.2439809 36.7029086,51.5985257 36.8124757,51.9790127 L36.8124757,51.9790127 L40.787706,50.785667 C40.6233554,50.0938725 40.3871014,49.4401266 40.078944,48.8244294 C39.7707866,48.2087322 39.3599101,47.6777799 38.8463144,47.2315724 C38.3327188,46.7853649 37.6975722,46.4308202 36.9408746,46.1679383 C36.184177,45.9050563 35.2716887,45.7736154 34.2034098,45.7736154 C33.2104582,45.7736154 32.2722901,45.9292691 31.3889056,46.2405767 C30.5055211,46.5518842 29.7334156,47.0361404 29.0725892,47.6933453 C28.4117628,48.3505501 27.8861833,49.19281 27.4958506,50.220125 C27.1055179,51.2474399 26.9103516,52.4840227 26.9103516,53.9298734 C26.9103516,55.375724 27.09867,56.6123068 27.4753068,57.6396218 C27.8519436,58.6669367 28.3672512,59.5109261 29.0212297,60.1715899 C29.6752081,60.8322537 30.4473136,61.3182394 31.3375461,61.6295469 C32.2277785,61.9408545 33.1830664,62.0965083 34.2034098,62.0965083 Z M50.1556906,62.0965083 C51.0938587,62.0965083 52.0200428,61.9408545 52.9342431,61.6295469 C53.8484434,61.3182394 54.6667724,60.8322537 55.3892303,60.1715899 C56.1116882,59.5109261 56.6937632,58.6669367 57.1354555,57.6396218 C57.5771478,56.6123068 57.7979939,55.375724 57.7979939,53.9298734 C57.7979939,52.4840227 57.5771478,51.2474399 57.1354555,50.220125 C56.6937632,49.19281 56.1116882,48.3505501 55.3892303,47.6933453 C54.6667724,47.0361404 53.8484434,46.5518842 52.9342431,46.2405767 C52.0200428,45.9292691 51.0938587,45.7736154 50.1556906,45.7736154 C49.2175226,45.7736154 48.2896264,45.9292691 47.3720022,46.2405767 C46.454378,46.5518842 45.6343369,47.0361404 44.9118791,47.6933453 C44.1894212,48.3505501 43.6073461,49.19281 43.1656539,50.220125 C42.7239616,51.2474399 42.5031155,52.4840227 42.5031155,53.9298734 C42.5031155,55.375724 42.7239616,56.6123068 43.1656539,57.6396218 C43.6073461,58.6669367 44.1894212,59.5109261 44.9118791,60.1715899 C45.6343369,60.8322537 46.454378,61.3182394 47.3720022,61.6295469 C48.2896264,61.9408545 49.2175226,62.0965083 50.1556906,62.0965083 Z M50.1556906,58.692879 C49.046324,58.692879 48.1937553,58.2605074 47.5979843,57.3957642 C47.0022134,56.531021 46.7043279,55.375724 46.7043279,53.9298734 C46.7043279,52.4701868 47.0022134,51.3304553 47.5979843,50.5106787 C48.1937553,49.6909021 49.046324,49.2810138 50.1556906,49.2810138 C51.2513614,49.2810138 52.0970822,49.6909021 52.6928531,50.5106787 C53.2886241,51.3304553 53.5865096,52.4701868 53.5865096,53.9298734 C53.5865096,55.375724 53.2886241,56.531021 52.6928531,57.3957642 C52.0970822,58.2605074 51.2513614,58.692879 50.1556906,58.692879 Z M63.807063,61.7955776 L63.807063,52.9959507 L63.8481506,52.9959507 L69.8058602,61.7955776 L73.6989152,61.7955776 L73.6989152,46.0641691 L69.8469478,46.0641691 L69.8469478,54.8845499 L69.8058602,54.8845499 L64.1049485,46.0641691 L59.9550956,46.0641691 L59.9550956,61.7955776 L63.807063,61.7955776 Z M84.6590463,61.8578392 L89.9593534,46.0641691 L86.0457546,46.0641691 L82.7587424,56.2958108 L82.7176548,56.2958108 L79.6052652,46.0641691 L75.3526932,46.0641691 L80.6632722,61.8578392 L84.6590463,61.8578392 Z M103.076586,61.7955776 L103.076586,58.3711945 L95.8246157,58.3711945 L95.8246157,55.4656573 L100.744862,55.4656573 L100.744862,52.1450434 L95.8246157,52.1450434 L95.8246157,49.5923214 L102.727341,49.5923214 L102.727341,46.0641691 L91.6131314,46.0641691 L91.6131314,61.7955776 L103.076586,61.7955776 Z M109.311637,61.7955776 L109.311637,56.3373185 L110.462092,56.3373185 L113.471762,61.7955776 L117.929772,61.7955776 L114.632488,55.7769649 C115.652832,55.4241496 116.419801,54.8828204 116.933397,54.1529771 C117.446993,53.4231338 117.70379,52.4355971 117.70379,51.1903669 C117.70379,50.2426083 117.55656,49.4418561 117.262098,48.7881102 C116.967637,48.1343643 116.543064,47.606871 115.988381,47.2056301 C115.433698,46.8043893 114.757463,46.5138355 113.959678,46.333969 C113.161893,46.1541024 112.2631,46.0641691 111.263301,46.0641691 L111.263301,46.0641691 L105.182328,46.0641691 L105.182328,61.7955776 L109.311637,61.7955776 Z M111.119494,53.0997199 L109.311637,53.0997199 L109.311637,49.509306 L111.119494,49.509306 C111.989183,49.509306 112.620905,49.640747 113.014662,49.903629 C113.408419,50.1665109 113.605297,50.6300133 113.605297,51.294136 C113.605297,51.9651768 113.408419,52.4338676 113.014662,52.7002085 C112.620905,52.9665494 111.989183,53.0997199 111.119494,53.0997199 L111.119494,53.0997199 Z M126.547907,62.0965083 C127.13683,62.0965083 127.658986,62.006575 128.114374,61.8267084 C128.569762,61.6468418 128.961807,61.434115 129.290508,61.1885279 C129.619209,60.9429408 129.881143,60.6852474 130.07631,60.4154475 C130.271476,60.1456476 130.396451,59.9104374 130.451234,59.709817 L130.451234,59.709817 L130.502594,59.709817 L130.502594,61.7955776 L133.799878,61.7955776 L133.799878,53.7015812 L127.534011,53.7015812 L127.534011,56.8042798 L129.804104,56.8042798 C129.578122,57.3853872 129.234013,57.8454306 128.771777,58.18441 C128.309541,58.5233893 127.742873,58.692879 127.071775,58.692879 C126.791009,58.692879 126.46402,58.6427239 126.090807,58.5424137 C125.717595,58.4421035 125.363214,58.2259177 125.027664,57.8938563 C124.692115,57.5617949 124.404502,57.0740797 124.164824,56.4307107 C123.925146,55.7873418 123.805307,54.9122217 123.805307,53.8053503 C123.805307,52.9267712 123.892618,52.196928 124.06724,51.6158205 C124.241863,51.0347131 124.472981,50.5712107 124.760595,50.2253134 C125.048208,49.8794161 125.378621,49.6355586 125.751834,49.4937407 C126.125047,49.3519228 126.499972,49.2810138 126.876609,49.2810138 C127.479228,49.2810138 128.008231,49.4781753 128.463619,49.8724982 C128.919007,50.2668211 129.304204,50.9689926 129.619209,51.9790127 L129.619209,51.9790127 L133.460905,50.8894362 C133.180139,49.8586623 132.81891,49.0129434 132.377218,48.3522796 C131.935526,47.6916158 131.43049,47.1710404 130.862111,46.7905534 C130.293732,46.4100664 129.673993,46.1454549 129.002895,45.9967191 C128.331796,45.8479833 127.629882,45.7736154 126.897153,45.7736154 C125.733002,45.7736154 124.698963,45.9638589 123.795035,46.3443459 C122.891106,46.7248329 122.127561,47.2661621 121.504398,47.9683336 C120.881235,48.6705051 120.405304,49.5214124 120.076602,50.5210556 C119.747901,51.5206988 119.58355,52.6362175 119.58355,53.8676118 C119.58355,55.0574985 119.711949,56.1522634 119.968747,57.1519066 C120.225545,58.1515497 120.63471,59.0197519 121.196241,59.7565131 C121.757772,60.4932744 122.476806,61.0674639 123.353343,61.4790816 C124.229879,61.8906994 125.294734,62.0965083 126.547907,62.0965083 Z M148.098381,61.7955776 L148.098381,58.3711945 L140.84641,58.3711945 L140.84641,55.4656573 L145.766657,55.4656573 L145.766657,52.1450434 L140.84641,52.1450434 L140.84641,49.5923214 L147.749136,49.5923214 L147.749136,46.0641691 L136.634926,46.0641691 L136.634926,61.7955776 L148.098381,61.7955776 Z M155.319536,61.7955776 C156.456294,61.7955776 157.543405,61.6710546 158.580868,61.4220086 C159.618331,61.1729625 160.529108,60.7440499 161.313197,60.1352707 C162.097286,59.5264914 162.722161,58.7084444 163.187821,57.6811294 C163.653481,56.6538145 163.886311,55.3688061 163.886311,53.8261042 C163.886311,52.3387458 163.656905,51.0952451 163.198093,50.0956019 C162.739281,49.0959588 162.11783,48.2986655 161.333741,47.7037222 C160.549651,47.1087789 159.638875,46.6867842 158.601412,46.4377381 C157.563949,46.1886921 156.46999,46.0641691 155.319536,46.0641691 L155.319536,46.0641691 L150.204123,46.0641691 L150.204123,61.7955776 L155.319536,61.7955776 Z M155.55579,58.3711945 L154.395064,58.3711945 L154.395064,49.5923214 L155.50443,49.5923214 C156.305639,49.5923214 156.973314,49.6787957 157.507453,49.8517444 C158.041593,50.024693 158.469589,50.2875749 158.791442,50.6403902 C159.113296,50.9932054 159.34099,51.4394129 159.474525,51.9790127 C159.608059,52.5186124 159.674827,53.1481455 159.674827,53.8676118 C159.674827,54.6631756 159.608059,55.3480522 159.474525,55.9222417 C159.34099,56.4964312 159.11672,56.9633926 158.801714,57.3231257 C158.486709,57.6828589 158.06556,57.9474703 157.538269,58.11696 C157.010977,58.2864497 156.350151,58.3711945 155.55579,58.3711945 L155.55579,58.3711945 Z M178.626506,62.0965083 C179.694785,62.0965083 180.610697,61.9581494 181.374243,61.6814315 C182.137789,61.4047137 182.790055,61.0207677 183.331042,60.5295936 C183.87203,60.0384194 184.306874,59.457312 184.635575,58.7862713 C184.964277,58.1152305 185.227922,57.3819283 185.426513,56.5863645 L185.426513,56.5863645 L181.451282,55.6939495 C181.211604,56.6762978 180.888039,57.4217065 180.480587,57.9301755 C180.073134,58.4386445 179.461955,58.692879 178.64705,58.692879 C177.613011,58.692879 176.835769,58.2605074 176.315326,57.3957642 C175.794882,56.531021 175.53466,55.375724 175.53466,53.9298734 C175.53466,52.4563509 175.78461,51.3131604 176.28451,50.5003018 C176.78441,49.6874431 177.558227,49.2810138 178.605962,49.2810138 C179.016839,49.2810138 179.366084,49.3519228 179.653698,49.4937407 C179.941311,49.6355586 180.182701,49.8258021 180.377867,50.0644712 C180.573034,50.3031403 180.737384,50.5867761 180.870919,50.9153785 C181.004454,51.2439809 181.126005,51.5985257 181.235572,51.9790127 L181.235572,51.9790127 L185.210803,50.785667 C185.046452,50.0938725 184.810198,49.4401266 184.502041,48.8244294 C184.193883,48.2087322 183.783007,47.6777799 183.269411,47.2315724 C182.755815,46.7853649 182.120669,46.4308202 181.363971,46.1679383 C180.607274,45.9050563 179.694785,45.7736154 178.626506,45.7736154 C177.633555,45.7736154 176.695387,45.9292691 175.812002,46.2405767 C174.928618,46.5518842 174.156512,47.0361404 173.495686,47.6933453 C172.834859,48.3505501 172.30928,49.19281 171.918947,50.220125 C171.528614,51.2474399 171.333448,52.4840227 171.333448,53.9298734 C171.333448,55.375724 171.521766,56.6123068 171.898403,57.6396218 C172.27504,58.6669367 172.790348,59.5109261 173.444326,60.1715899 C174.098305,60.8322537 174.87041,61.3182394 175.760643,61.6295469 C176.650875,61.9408545 177.606163,62.0965083 178.626506,62.0965083 Z M198.410211,61.7955776 L198.410211,58.3711945 L191.867002,58.3711945 L191.867002,46.0641691 L187.655518,46.0641691 L187.655518,61.7955776 L198.410211,61.7955776 Z M207.100249,62.0965083 C208.038417,62.0965083 208.964601,61.9408545 209.878802,61.6295469 C210.793002,61.3182394 211.611331,60.8322537 212.333789,60.1715899 C213.056247,59.5109261 213.638322,58.6669367 214.080014,57.6396218 C214.521706,56.6123068 214.742552,55.375724 214.742552,53.9298734 C214.742552,52.4840227 214.521706,51.2474399 214.080014,50.220125 C213.638322,49.19281 213.056247,48.3505501 212.333789,47.6933453 C211.611331,47.0361404 210.793002,46.5518842 209.878802,46.2405767 C208.964601,45.9292691 208.038417,45.7736154 207.100249,45.7736154 C206.162081,45.7736154 205.234185,45.9292691 204.316561,46.2405767 C203.398936,46.5518842 202.578895,47.0361404 201.856437,47.6933453 C201.13398,48.3505501 200.551905,49.19281 200.110212,50.220125 C199.66852,51.2474399 199.447674,52.4840227 199.447674,53.9298734 C199.447674,55.375724 199.66852,56.6123068 200.110212,57.6396218 C200.551905,58.6669367 201.13398,59.5109261 201.856437,60.1715899 C202.578895,60.8322537 203.398936,61.3182394 204.316561,61.6295469 C205.234185,61.9408545 206.162081,62.0965083 207.100249,62.0965083 Z M207.100249,58.692879 C205.990882,58.692879 205.138314,58.2605074 204.542543,57.3957642 C203.946772,56.531021 203.648886,55.375724 203.648886,53.9298734 C203.648886,52.4701868 203.946772,51.3304553 204.542543,50.5106787 C205.138314,49.6909021 205.990882,49.2810138 207.100249,49.2810138 C208.19592,49.2810138 209.041641,49.6909021 209.637412,50.5106787 C210.233183,51.3304553 210.531068,52.4701868 210.531068,53.9298734 C210.531068,55.375724 210.233183,56.531021 209.637412,57.3957642 C209.041641,58.2605074 208.19592,58.692879 207.100249,58.692879 Z M223.134705,62.0342468 C225.401374,62.0342468 227.05344,61.4635162 228.090903,60.3220552 C229.128366,59.1805942 229.647098,57.5687128 229.647098,55.4864111 L229.647098,55.4864111 L229.647098,46.0641691 L225.528061,46.0641691 L225.528061,55.4656573 C225.528061,56.5517748 225.344879,57.3473385 224.978514,57.8523486 C224.612149,58.3573586 224.011242,58.6098636 223.175793,58.6098636 C222.333496,58.6098636 221.725741,58.3573586 221.352528,57.8523486 C220.979315,57.3473385 220.792709,56.5517748 220.792709,55.4656573 L220.792709,55.4656573 L220.792709,46.0641691 L216.591497,46.0641691 L216.591497,55.4864111 C216.591497,57.5687128 217.113652,59.1805942 218.157963,60.3220552 C219.202275,61.4635162 220.861188,62.0342468 223.134705,62.0342468 Z M237.351033,61.7955776 C238.487791,61.7955776 239.574902,61.6710546 240.612365,61.4220086 C241.649828,61.1729625 242.560605,60.7440499 243.344694,60.1352707 C244.128783,59.5264914 244.753658,58.7084444 245.219318,57.6811294 C245.684978,56.6538145 245.917808,55.3688061 245.917808,53.8261042 C245.917808,52.3387458 245.688402,51.0952451 245.22959,50.0956019 C244.770778,49.0959588 244.149327,48.2986655 243.365238,47.7037222 C242.581148,47.1087789 241.670372,46.6867842 240.632909,46.4377381 C239.595446,46.1886921 238.501487,46.0641691 237.351033,46.0641691 L237.351033,46.0641691 L232.23562,46.0641691 L232.23562,61.7955776 L237.351033,61.7955776 Z M237.587287,58.3711945 L236.426561,58.3711945 L236.426561,49.5923214 L237.535927,49.5923214 C238.337136,49.5923214 239.004811,49.6787957 239.53895,49.8517444 C240.07309,50.024693 240.501086,50.2875749 240.822939,50.6403902 C241.144793,50.9932054 241.372487,51.4394129 241.506022,51.9790127 C241.639556,52.5186124 241.706324,53.1481455 241.706324,53.8676118 C241.706324,54.6631756 241.639556,55.3480522 241.506022,55.9222417 C241.372487,56.4964312 241.148217,56.9633926 240.833211,57.3231257 C240.518206,57.6828589 240.097058,57.9474703 239.569766,58.11696 C239.042474,58.2864497 238.381648,58.3711945 237.587287,58.3711945 L237.587287,58.3711945 Z"/><path fill="#F0AB00" fill-rule="nonzero" d="M31.2696198,82.5904107 L31.2696198,67.3429691 L27.9599688,67.3429691 L27.9599688,82.5904107 L31.2696198,82.5904107 Z M37.5400129,82.5904107 L37.5400129,75.2181318 C37.9055366,74.9029912 38.2826906,74.6414916 38.6714749,74.4336329 C39.0602592,74.2257742 39.4706427,74.1218448 39.9026252,74.1218448 C40.3678372,74.1218448 40.69847,74.2492421 40.8945237,74.5040366 C41.0905773,74.7588312 41.1886041,75.1343178 41.1886041,75.6304967 L41.1886041,75.6304967 L41.1886041,82.5904107 L44.4583798,82.5904107 L44.4583798,74.5744404 C44.4583798,74.0112103 44.3802907,73.5284417 44.2241123,73.1261346 C44.067934,72.7238274 43.8502813,72.3952766 43.5711541,72.140482 C43.2920269,71.8856875 42.9580711,71.6962679 42.5692868,71.5722231 C42.1805025,71.4481784 41.7568273,71.3861561 41.2982612,71.3861561 C40.8197574,71.3861561 40.3861134,71.4481784 39.9973291,71.5722231 C39.6085448,71.6962679 39.2579743,71.8538382 38.9456177,72.0449341 C38.6332611,72.23603 38.3607798,72.445565 38.1281738,72.673539 C37.8955678,72.9015131 37.6995142,73.122782 37.5400129,73.3373458 L37.5400129,73.3373458 L37.5400129,71.607425 L34.2502995,71.607425 L34.2502995,82.5904107 L37.5400129,82.5904107 Z M51.0976195,82.5904107 L51.0976195,74.021268 L53.4602318,74.021268 L53.4602318,71.607425 L51.0976195,71.607425 L51.0976195,70.9536759 C51.0976195,70.6653557 51.1374948,70.4323528 51.2172455,70.2546672 C51.2969961,70.0769815 51.4083147,69.9428791 51.5512012,69.85236 C51.6940877,69.7618409 51.8585734,69.7031711 52.0446582,69.6763506 C52.230743,69.6495301 52.4267966,69.6361199 52.6328191,69.6361199 C52.7923203,69.6361199 52.9700978,69.642825 53.1661514,69.6562353 C53.362205,69.6696455 53.5034301,69.6897609 53.5898266,69.7165813 L53.5898266,69.7165813 L53.5898266,67.4133728 C53.5499513,67.3999626 53.4519245,67.3848761 53.2957462,67.3681133 C53.1395679,67.3513505 52.9617904,67.3362639 52.7624139,67.3228537 C52.5630373,67.3094435 52.3619993,67.2960332 52.1592997,67.282623 C51.9566002,67.2692127 51.7721769,67.2625076 51.6060298,67.2625076 C50.8018776,67.2625076 50.1522423,67.3630844 49.6571238,67.564238 C49.1620053,67.7653916 48.7782054,68.0335964 48.5057241,68.3688523 C48.2332428,68.7041083 48.0521424,69.0879764 47.962423,69.5204566 C47.8727035,69.9529368 47.8278438,70.397151 47.8278438,70.8530991 L47.8278438,70.8530991 L47.8278438,71.607425 L46.013517,71.607425 L46.013517,74.021268 L47.8278438,74.021268 L47.8278438,82.5904107 L51.0976195,82.5904107 Z M58.4047707,82.5904107 L58.4047707,75.7713042 C58.7171274,75.3757021 59.114219,75.0270359 59.5960457,74.7253056 C60.0778724,74.4235752 60.6444342,74.27271 61.295731,74.27271 C61.408711,74.27271 61.5632279,74.2794151 61.7592815,74.2928254 C61.9553351,74.3062356 62.0865913,74.3196458 62.1530502,74.3330561 L62.1530502,74.3330561 L62.2028943,71.3861561 L62.0932372,71.3861561 C61.581504,71.3861561 61.1312453,71.451531 60.742461,71.5822808 C60.3536767,71.7130307 60.013075,71.8773061 59.7206561,72.0751071 C59.4282371,72.2729081 59.1756935,72.4925008 58.9630251,72.7338851 C58.7503568,72.9752694 58.5709179,73.2133011 58.4247084,73.4479803 L58.4247084,73.4479803 L58.4047707,73.4479803 L58.4047707,71.607425 L55.1150574,71.607425 L55.1150574,82.5904107 L58.4047707,82.5904107 Z M66.1405816,82.7513335 C66.9513796,82.7513335 67.6608279,82.6004683 68.2689264,82.298738 C68.877025,81.9970076 69.4302949,81.5578223 69.9287364,80.981182 C69.9287364,81.2963226 69.9536584,81.5846427 70.0035026,81.8461424 C70.0533467,82.1076421 70.1114982,82.3557315 70.1779571,82.5904107 L70.1779571,82.5904107 L73.4477328,82.5904107 C73.3347527,82.3155008 73.2550021,81.9651583 73.2084809,81.5393832 C73.1619597,81.1136081 73.1386991,80.5721697 73.1386991,79.915068 L73.1386991,79.915068 L73.1386991,75.6908428 C73.1386991,74.2760626 72.8113892,73.2049197 72.1567695,72.4774143 C71.5021498,71.7499088 70.4271778,71.3861561 68.9318535,71.3861561 C68.2539732,71.3861561 67.6392288,71.4414733 67.0876203,71.5521078 C66.5360118,71.6627423 66.0425547,71.8102549 65.6072492,71.9946457 C65.1719437,72.1790365 64.7798365,72.3885714 64.4309275,72.6232506 C64.0820185,72.8579298 63.7713233,73.0959615 63.498842,73.3373458 L63.498842,73.3373458 L64.894478,75.2382472 C65.3929194,74.83594 65.9395435,74.5090655 66.5343503,74.2576235 C67.129157,74.0061815 67.7721465,73.8804605 68.4633186,73.8804605 C68.9949894,73.8804605 69.3721434,73.9994764 69.5947806,74.2375081 C69.8174178,74.4755399 69.9287364,74.7957093 69.9287364,75.1980165 L69.9287364,75.1980165 L69.9287364,75.4595161 C67.5362175,75.6539646 65.7883496,76.1082364 64.6851326,76.8223317 C63.5819156,77.5364269 63.0303071,78.5237557 63.0303071,79.7843182 C63.0303071,80.2536765 63.1117192,80.6744228 63.2745434,81.0465569 C63.4373676,81.418691 63.6616662,81.7304791 63.9474393,81.9819211 C64.2332124,82.2333631 64.5638452,82.424459 64.9393377,82.5552088 C65.3148303,82.6859586 65.7152449,82.7513335 66.1405816,82.7513335 Z M67.4464981,80.2670868 C67.0876203,80.2670868 66.7968628,80.1799202 66.5742256,80.0055871 C66.3515884,79.831254 66.2402698,79.5664018 66.2402698,79.2110305 C66.2402698,78.7014414 66.5293659,78.285724 67.1075579,77.9638782 C67.68575,77.6420325 68.6261428,77.4140585 69.9287364,77.2799561 L69.9287364,77.2799561 L69.9287364,79.3116073 C69.6629009,79.5865172 69.3256222,79.8144912 68.9169003,79.9955294 C68.5081783,80.1765677 68.0180442,80.2670868 67.4464981,80.2670868 Z M79.8178141,82.8217373 C80.4425274,82.8217373 81.04398,82.7530098 81.6221721,82.6155549 C82.2003641,82.4780999 82.7104358,82.2618598 83.1523872,81.9668346 C83.5943386,81.6718093 83.948232,81.2862649 84.2140674,80.8102015 C84.4799029,80.334138 84.6128206,79.7675554 84.6128206,79.1104537 C84.6128206,78.4935827 84.4832258,77.9856699 84.2240363,77.5867153 C83.9648467,77.1877607 83.6292295,76.8675912 83.2171846,76.6262069 C82.8051397,76.3848226 82.3332818,76.2021081 81.801611,76.0780634 C81.2699401,75.9540187 80.7382693,75.8450605 80.2065984,75.7511888 C79.5287181,75.6304967 79.0352611,75.4863366 78.7262274,75.3187086 C78.4171937,75.1510806 78.2626769,74.9029912 78.2626769,74.5744404 C78.2626769,74.27271 78.3889487,74.0363545 78.6414924,73.865374 C78.894036,73.6943934 79.2595597,73.6089032 79.7380635,73.6089032 C80.2564426,73.6089032 80.7798061,73.7128325 81.308154,73.9206912 C81.8365019,74.1285499 82.379803,74.4235752 82.9380574,74.805767 L82.9380574,74.805767 L84.2240363,72.924981 C83.6259066,72.4489175 82.9596565,72.0734308 82.2252862,71.7985209 C81.4909158,71.523611 80.5654762,71.3861561 79.4489675,71.3861561 C78.837546,71.3861561 78.2759687,71.4649412 77.7642355,71.6225115 C77.2525023,71.7800818 76.8072279,72.0063796 76.4284125,72.3014049 C76.049597,72.5964301 75.7538551,72.9601829 75.5411867,73.3926631 C75.3285184,73.8251433 75.2221842,74.3162933 75.2221842,74.8661131 C75.2221842,75.5098045 75.3484561,76.0344801 75.6009997,76.4401399 C75.8535434,76.8457996 76.1808532,77.1726742 76.5829293,77.4207636 C76.9850054,77.668853 77.4402485,77.8549201 77.9486588,77.9789648 C78.457069,78.1030095 78.9704637,78.2119677 79.4888428,78.3058393 C80.2398279,78.4399417 80.7714987,78.597512 81.0838553,78.7785503 C81.3962119,78.9595885 81.5523903,79.2412035 81.5523903,79.6233953 C81.5523903,79.9787666 81.392889,80.2469714 81.0738865,80.4280096 C80.754884,80.6090479 80.3361932,80.699567 79.8178141,80.699567 C79.1532256,80.699567 78.4803296,80.5721697 77.7991264,80.3173752 C77.1179231,80.0625806 76.5314237,79.7139144 76.0396282,79.2713765 L76.0396282,79.2713765 L74.7337116,81.1320472 C75.291966,81.6081107 75.9798152,82.0087415 76.7972591,82.3339398 C77.614703,82.6591381 78.6215547,82.8217373 79.8178141,82.8217373 Z M91.0128084,82.7312182 C91.1856014,82.7312182 91.384978,82.724513 91.6109381,82.7111028 C91.8368982,82.6976926 92.054551,82.6842823 92.2638964,82.6708721 C92.4732418,82.6574619 92.660988,82.6406991 92.8271352,82.6205837 C92.9932823,82.6004683 93.1095853,82.5837055 93.1760442,82.5702953 L93.1760442,82.5702953 L93.1760442,80.196683 C93.0630641,80.2436189 92.9019014,80.2771445 92.692556,80.2972598 C92.4832106,80.3173752 92.2821726,80.3274329 92.0894419,80.3274329 C91.4913122,80.3274329 91.0908976,80.2167984 90.888198,79.9955294 C90.6854985,79.7742605 90.5841488,79.3686008 90.5841488,78.7785503 L90.5841488,78.7785503 L90.5841488,74.021268 L93.3754207,74.021268 L93.3754207,71.607425 L90.5841488,71.607425 L90.5841488,67.845853 L87.3143731,67.845853 L87.3143731,71.607425 L85.5000463,71.607425 L85.5000463,74.021268 L87.3143731,74.021268 L87.3143731,79.5027032 C87.3143731,80.0257025 87.3559099,80.4850032 87.4389834,80.8806052 C87.522057,81.2762073 87.6915271,81.6114632 87.9473937,81.8863731 C88.2032603,82.161283 88.5770913,82.370818 89.0688869,82.5149781 C89.5606824,82.6591381 90.2086562,82.7312182 91.0128084,82.7312182 Z M98.4395856,82.5904107 L98.4395856,75.7713042 C98.7519422,75.3757021 99.1490338,75.0270359 99.6308605,74.7253056 C100.112687,74.4235752 100.679249,74.27271 101.330546,74.27271 C101.443526,74.27271 101.598043,74.2794151 101.794096,74.2928254 C101.99015,74.3062356 102.121406,74.3196458 102.187865,74.3330561 L102.187865,74.3330561 L102.237709,71.3861561 L102.128052,71.3861561 C101.616319,71.3861561 101.16606,71.451531 100.777276,71.5822808 C100.388492,71.7130307 100.04789,71.8773061 99.7554709,72.0751071 C99.4630519,72.2729081 99.2105083,72.4925008 98.9978399,72.7338851 C98.7851716,72.9752694 98.6057327,73.2133011 98.4595232,73.4479803 L98.4595232,73.4479803 L98.4395856,73.4479803 L98.4395856,71.607425 L95.1498722,71.607425 L95.1498722,82.5904107 L98.4395856,82.5904107 Z M106.863246,82.8217373 C107.341749,82.8217373 107.775393,82.7597149 108.164178,82.6356702 C108.552962,82.5116255 108.903532,82.3557315 109.215889,82.1679881 C109.528246,81.9802448 109.799066,81.7707098 110.028349,81.5393832 C110.257632,81.3080566 110.455347,81.0884639 110.621494,80.8806052 L110.621494,80.8806052 L110.621494,82.5904107 L113.911207,82.5904107 L113.911207,71.607425 L110.621494,71.607425 L110.621494,79.070223 C110.25597,79.3853636 109.878816,79.6485395 109.490032,79.8597508 C109.101248,80.070962 108.687541,80.1765677 108.248913,80.1765677 C107.790347,80.1765677 107.461375,80.0474941 107.261999,79.789347 C107.062622,79.5311999 106.962934,79.1540369 106.962934,78.6578581 L106.962934,78.6578581 L106.962934,71.607425 L103.683189,71.607425 L103.683189,79.6233953 C103.683189,80.1866253 103.761278,80.6710702 103.917457,81.0767299 C104.073635,81.4823897 104.294611,81.8159694 104.580384,82.077469 C104.866157,82.3389687 105.203436,82.5283883 105.59222,82.6457279 C105.981004,82.7630675 106.404679,82.8217373 106.863246,82.8217373 Z M121.158545,82.8217373 C121.882947,82.8217373 122.512645,82.7278656 123.047638,82.5401223 C123.582632,82.3523789 124.044521,82.1042895 124.433306,81.795854 C124.82209,81.4874185 125.1494,81.1303709 125.415235,80.7247112 C125.681071,80.3190515 125.903708,79.9050103 126.083147,79.4825878 L126.083147,79.4825878 L123.361657,78.537166 C123.129051,79.2747291 122.82334,79.7843182 122.444524,80.0659332 C122.065709,80.3475482 121.656987,80.4883557 121.218358,80.4883557 C120.839543,80.4883557 120.517218,80.406218 120.251382,80.2419426 C119.985547,80.0776672 119.767894,79.8446643 119.598424,79.5429339 C119.428954,79.2412035 119.302682,78.8875085 119.219608,78.4818487 C119.136535,78.076189 119.094998,77.6252697 119.094998,77.1290909 C119.094998,76.0294513 119.28939,75.2030453 119.678174,74.649873 C120.066959,74.0967006 120.593645,73.8201144 121.258234,73.8201144 C121.736738,73.8201144 122.138814,73.9525405 122.464462,74.2173928 C122.79011,74.482245 123.062592,74.9666899 123.281906,75.6707274 L123.281906,75.6707274 L126.043271,74.7454209 C125.877124,74.302883 125.677748,73.8787842 125.445142,73.4731245 C125.212536,73.0674648 124.913471,72.7104172 124.547947,72.4019817 C124.182423,72.0935462 123.733826,71.847133 123.202155,71.6627423 C122.670484,71.4783515 122.035802,71.3861561 121.298109,71.3861561 C120.699979,71.3861561 120.078589,71.4783515 119.433938,71.6627423 C118.789287,71.847133 118.197803,72.1589211 117.659487,72.5981064 C117.12117,73.0372917 116.679219,73.6239897 116.333633,74.3582003 C115.988046,75.0924109 115.815253,76.0093359 115.815253,77.1089755 C115.815253,78.1817946 115.974755,79.0819569 116.293757,79.8094624 C116.61276,80.5369678 117.026466,81.1236658 117.534876,81.5695562 C118.043287,82.0154467 118.614833,82.3356161 119.249515,82.5300646 C119.884197,82.724513 120.52054,82.8217373 121.158545,82.8217373 Z M132.313664,82.7312182 C132.486457,82.7312182 132.685834,82.724513 132.911794,82.7111028 C133.137754,82.6976926 133.355407,82.6842823 133.564752,82.6708721 C133.774098,82.6574619 133.961844,82.6406991 134.127991,82.6205837 C134.294138,82.6004683 134.410441,82.5837055 134.4769,82.5702953 L134.4769,82.5702953 L134.4769,80.196683 C134.36392,80.2436189 134.202757,80.2771445 133.993412,80.2972598 C133.784067,80.3173752 133.583029,80.3274329 133.390298,80.3274329 C132.792168,80.3274329 132.391754,80.2167984 132.189054,79.9955294 C131.986355,79.7742605 131.885005,79.3686008 131.885005,78.7785503 L131.885005,78.7785503 L131.885005,74.021268 L134.676277,74.021268 L134.676277,71.607425 L131.885005,71.607425 L131.885005,67.845853 L128.615229,67.845853 L128.615229,71.607425 L126.800902,71.607425 L126.800902,74.021268 L128.615229,74.021268 L128.615229,79.5027032 C128.615229,80.0257025 128.656766,80.4850032 128.739839,80.8806052 C128.822913,81.2762073 128.992383,81.6114632 129.24825,81.8863731 C129.504116,82.161283 129.877947,82.370818 130.369743,82.5149781 C130.861538,82.6591381 131.509512,82.7312182 132.313664,82.7312182 Z M139.531096,82.8217373 C140.0096,82.8217373 140.443244,82.7597149 140.832028,82.6356702 C141.220813,82.5116255 141.571383,82.3557315 141.88374,82.1679881 C142.196096,81.9802448 142.466916,81.7707098 142.696199,81.5393832 C142.925482,81.3080566 143.123197,81.0884639 143.289344,80.8806052 L143.289344,80.8806052 L143.289344,82.5904107 L146.579058,82.5904107 L146.579058,71.607425 L143.289344,71.607425 L143.289344,79.070223 C142.923821,79.3853636 142.546667,79.6485395 142.157882,79.8597508 C141.769098,80.070962 141.355392,80.1765677 140.916763,80.1765677 C140.458197,80.1765677 140.129226,80.0474941 139.929849,79.789347 C139.730473,79.5311999 139.630784,79.1540369 139.630784,78.6578581 L139.630784,78.6578581 L139.630784,71.607425 L136.35104,71.607425 L136.35104,79.6233953 C136.35104,80.1866253 136.429129,80.6710702 136.585307,81.0767299 C136.741486,81.4823897 136.962461,81.8159694 137.248234,82.077469 C137.534008,82.3389687 137.871286,82.5283883 138.260071,82.6457279 C138.648855,82.7630675 139.07253,82.8217373 139.531096,82.8217373 Z M152.360978,82.5904107 L152.360978,75.7713042 C152.673335,75.3757021 153.070427,75.0270359 153.552253,74.7253056 C154.03408,74.4235752 154.600642,74.27271 155.251939,74.27271 C155.364919,74.27271 155.519435,74.2794151 155.715489,74.2928254 C155.911543,74.3062356 156.042799,74.3196458 156.109258,74.3330561 L156.109258,74.3330561 L156.159102,71.3861561 L156.049445,71.3861561 C155.537712,71.3861561 155.087453,71.451531 154.698669,71.5822808 C154.309884,71.7130307 153.969283,71.8773061 153.676864,72.0751071 C153.384445,72.2729081 153.131901,72.4925008 152.919233,72.7338851 C152.706564,72.9752694 152.527125,73.2133011 152.380916,73.4479803 L152.380916,73.4479803 L152.360978,73.4479803 L152.360978,71.607425 L149.071265,71.607425 L149.071265,82.5904107 L152.360978,82.5904107 Z M162.668747,82.8217373 C164.542887,82.8217373 166.121284,82.2719175 167.40394,81.1722779 L167.40394,81.1722779 L166.137899,79.1909151 C165.76573,79.5328762 165.297195,79.8379591 164.732294,80.1061639 C164.167394,80.3743687 163.559296,80.5084711 162.907999,80.5084711 C162.216827,80.5084711 161.643619,80.3156989 161.188376,79.9301545 C160.733133,79.5446102 160.462313,78.8992424 160.375916,77.9940513 L160.375916,77.9940513 L167.583379,77.9940513 L167.583379,77.501225 C167.583379,76.2540728 167.427201,75.2348946 167.114844,74.4436905 C166.802488,73.6524865 166.405396,73.0305866 165.923569,72.5779911 C165.441743,72.1253955 164.903426,71.8136074 164.308619,71.6426269 C163.713812,71.4716464 163.137282,71.3861561 162.579027,71.3861561 C162.020773,71.3861561 161.422643,71.4850566 160.784638,71.6828576 C160.146633,71.8806586 159.555149,72.2025044 159.010187,72.6483948 C158.465224,73.0942853 158.013304,73.6809832 157.654426,74.4084887 C157.295548,75.1359941 157.116109,76.0361564 157.116109,77.1089755 C157.116109,78.1683844 157.272288,79.0618416 157.584644,79.789347 C157.897001,80.5168525 158.310707,81.1035504 158.825764,81.5494409 C159.34082,81.9953313 159.932303,82.3188533 160.600215,82.5200069 C161.268127,82.7211605 161.957637,82.8217373 162.668747,82.8217373 Z M164.642575,76.0428615 L160.415792,76.0428615 C160.542063,75.2315421 160.802915,74.6465204 161.198345,74.2877965 C161.593775,73.9290726 162.047357,73.7497107 162.55909,73.7497107 C163.788579,73.7497107 164.483074,74.5140943 164.642575,76.0428615 L164.642575,76.0428615 Z M181.569646,82.7513335 C182.201005,82.7513335 182.774212,82.6356702 183.289268,82.4043436 C183.804325,82.173017 184.249599,81.8193219 184.625091,81.3432584 C185.000584,80.867195 185.28968,80.2754682 185.492379,79.5680781 C185.695079,78.860688 185.796429,78.034282 185.796429,77.0888602 C185.796429,76.1434383 185.695079,75.3136798 185.492379,74.5995846 C185.28968,73.8854894 185.003907,73.2920863 184.63506,72.8193754 C184.266214,72.3466644 183.824262,71.9896168 183.309206,71.7482325 C182.79415,71.5068482 182.230911,71.3861561 181.61949,71.3861561 C180.815338,71.3861561 180.144103,71.5789283 179.605786,71.9644726 C179.06747,72.350017 178.622195,72.7942312 178.269963,73.2971151 L178.269963,73.2971151 L178.269963,67.3429691 L174.98025,67.3429691 L174.98025,82.5904107 L178.269963,82.5904107 L178.269963,81.29297 C178.675362,81.7623284 179.143897,82.1227286 179.675568,82.3741706 C180.207239,82.6256125 180.838598,82.7513335 181.569646,82.7513335 Z M180.453137,80.2670868 C180.014508,80.2670868 179.629047,80.1832728 179.296753,80.0156448 C178.964458,79.8480168 178.622195,79.5932223 178.269963,79.2512612 L178.269963,79.2512612 L178.269963,75.1980165 C178.542445,74.9231066 178.861447,74.6750172 179.226971,74.4537482 C179.592495,74.2324793 179.987925,74.1218448 180.413261,74.1218448 C181.144309,74.1218448 181.677641,74.3900496 182.013258,74.9264591 C182.348876,75.4628687 182.516684,76.1903742 182.516684,77.1089755 C182.516684,78.1147434 182.345553,78.8925373 182.00329,79.4423571 C181.661026,79.9921769 181.144309,80.2670868 180.453137,80.2670868 Z M189.435051,86.7945205 C189.980014,86.7945205 190.456856,86.7257931 190.865578,86.5883381 C191.2743,86.4508832 191.631516,86.2480533 191.937227,85.9798485 C192.242938,85.7116438 192.508773,85.3914743 192.734733,85.0193402 C192.960693,84.647206 193.166716,84.2231072 193.352801,83.7470438 L193.352801,83.7470438 L197.928493,71.607425 L194.738468,71.607425 L192.33598,78.7383195 L192.296105,78.7383195 L189.903586,71.607425 L186.514184,71.607425 L190.681155,82.6507567 L190.471809,83.1838137 C190.338892,83.5324799 190.162776,83.7788931 189.943461,83.9230531 C189.724147,84.0672132 189.438374,84.1392933 189.086142,84.1392933 C188.594347,84.1392933 188.165687,84.1007388 187.800163,84.0236299 C187.43464,83.9465211 187.17545,83.8878513 187.022595,83.8476206 L187.022595,83.8476206 L186.334745,86.4022711 C186.620519,86.4827325 187.004318,86.5682228 187.486145,86.6587419 C187.967972,86.749261 188.617607,86.7945205 189.435051,86.7945205 Z M210.568967,82.8820834 C211.619017,82.8820834 212.524519,82.7546861 213.285473,82.4998915 C214.046427,82.245097 214.67114,81.9048122 215.159613,81.4790371 C215.648085,81.053262 216.011948,80.562112 216.2512,80.0055871 C216.490451,79.4490622 216.610077,78.8623643 216.610077,78.2454933 C216.610077,77.4609943 216.450576,76.8072451 216.131574,76.2842458 C215.812571,75.7612465 215.39388,75.3254138 214.875501,74.9767475 C214.357122,74.6280813 213.772284,74.34479 213.120987,74.1268737 C212.469691,73.9089573 211.808425,73.70948 211.137191,73.5284417 C210.146954,73.2535318 209.382677,72.9685643 208.84436,72.673539 C208.306043,72.3785138 208.036885,71.9292708 208.036885,71.32581 C208.036885,70.8698619 208.224631,70.5010803 208.600124,70.2194653 C208.975616,69.9378503 209.515594,69.7970428 210.220058,69.7970428 C210.957752,69.7970428 211.662215,69.9931675 212.33345,70.385417 C213.004684,70.7776665 213.539678,71.3023421 213.938431,71.9594438 L213.938431,71.9594438 L216.241231,70.1892923 C215.968749,69.78028 215.649747,69.3863542 215.284223,69.007515 C214.918699,68.6286757 214.49004,68.295096 213.998244,68.0067759 C213.506449,67.7184557 212.951517,67.4888054 212.33345,67.3178249 C211.715383,67.1468443 211.017565,67.061354 210.239996,67.061354 C209.422552,67.061354 208.679874,67.1636071 208.011963,67.3681133 C207.344051,67.5726194 206.772505,67.8709972 206.297324,68.2632467 C205.822144,68.6554962 205.451635,69.133236 205.1858,69.696466 C204.919965,70.259696 204.787047,70.8966824 204.787047,71.607425 C204.787047,72.4053342 204.94821,73.0624359 205.270535,73.5787301 C205.59286,74.0950243 206.014874,74.5207994 206.536576,74.8560554 C207.058278,75.1913114 207.646439,75.4628687 208.301059,75.6707274 C208.955679,75.8785861 209.621929,76.0763871 210.299809,76.2641305 C211.296692,76.5390404 212.055984,76.8307131 212.577686,77.1391486 C213.099388,77.4475841 213.360239,77.8901219 213.360239,78.4667622 C213.360239,79.0568127 213.116003,79.495998 212.62753,79.7843182 C212.139058,80.0726383 211.506037,80.2167984 210.728469,80.2167984 C209.857858,80.2167984 209.065336,79.9938532 208.350903,79.5479627 C207.63647,79.1020723 207.069909,78.4600571 206.651218,77.6219172 L206.651218,77.6219172 L204.139073,79.130569 C204.424846,79.6803888 204.765448,80.1849491 205.160878,80.6442497 C205.556308,81.1035504 206.018197,81.4974762 206.546545,81.826027 C207.074893,82.1545779 207.673023,82.412725 208.340934,82.6004683 C209.008846,82.7882117 209.751523,82.8820834 210.568967,82.8820834 Z M220.936549,82.5904107 L222.102902,79.1909151 L227.246817,79.1909151 L228.363326,82.5904107 L231.73279,82.5904107 L226.389498,67.282623 L223.219411,67.282623 L217.876119,82.5904107 L220.936549,82.5904107 Z M226.469249,76.7569568 L222.920346,76.7569568 L224.694797,71.5671943 L224.734672,71.5671943 L226.469249,76.7569568 Z M236.936518,82.5904107 L236.936518,77.1693216 L239.079817,77.1693216 C239.830802,77.1693216 240.576802,77.1039467 241.317818,76.9731969 C242.058835,76.842447 242.726746,76.5960339 243.321553,76.2339574 C243.91636,75.871881 244.393202,75.3706733 244.75208,74.7303344 C245.110958,74.0899955 245.290397,73.2568844 245.290397,72.2310011 C245.290397,71.2252332 245.120927,70.4072086 244.781986,69.7769274 C244.443046,69.1466462 243.987803,68.6487911 243.416257,68.2833621 C242.844711,67.9179331 242.186768,67.6698436 241.442429,67.5390938 C240.69809,67.408344 239.927167,67.3429691 239.129661,67.3429691 L239.129661,67.3429691 L233.636836,67.3429691 L233.636836,82.5904107 L236.936518,82.5904107 Z M239.209411,74.5744404 L236.936518,74.5744404 L236.936518,70.0887155 L239.209411,70.0887155 C240.252815,70.0887155 240.985524,70.2814877 241.407538,70.667032 C241.829552,71.0525764 242.040559,71.6007199 242.040559,72.3114626 C242.040559,73.0557308 241.826229,73.6189609 241.397569,74.0011527 C240.96891,74.3833445 240.239524,74.5744404 239.209411,74.5744404 L239.209411,74.5744404 Z"/></g></svg>