<svg xmlns="http://www.w3.org/2000/svg" xmlns:xlink="http://www.w3.org/1999/xlink" width="96" height="96" viewBox="0 0 96 96"><defs><polygon id="a" points="5.091 29.091 96.727 29.091 96.727 96 5.091 96"/></defs><g fill="none" fill-rule="evenodd"><mask id="b" fill="#fff"><use xlink:href="#a"/></mask><path fill="#F0AB00" d="M54.6773163,30.5454545 C64.4880681,30.5454545 73.0363908,36.0594937 77.5069585,44.2154069 C79.1976471,43.841235 80.9536726,43.6440801 82.7551554,43.6440801 C87.6461912,43.6440801 92.20215,45.0973594 96.0251029,47.6008844 C102.272532,51.6921187 114.68668,100.118489 106.016722,101.002608 L105.753419,101.027396 L77.5069585,116.505996 L28.5390648,101.090909 L28.5393341,101.077024 C23.4614648,100.899261 18.6500758,99.0239923 14.7732595,95.9935694 C9.39709829,91.7911411 5.81818182,85.3672751 5.81818182,78.1683144 C5.81818182,65.635113 15.7071778,55.4512154 27.9816655,55.2487908 L28.3543421,55.2457198 L28.60882,55.2474588 C29.5938559,41.4373577 40.8887456,30.5454545 54.6773163,30.5454545 Z M55.2059241,34.9090909 C42.9263551,34.9090909 32.9717977,45.145674 32.9717977,57.7731392 C32.9717977,58.7036632 33.0258538,59.6212039 33.1309129,60.522622 C31.8175962,60.2070841 30.4478021,60.0406482 29.0398907,60.0406482 C19.1936278,60.0406482 11.2116547,68.1809254 11.2116547,78.2224664 C11.2116547,86.9461455 17.2359868,94.2348608 25.2733528,95.9977588 C26.325633,96.2285636 27.4124185,96.3646505 28.5247075,96.3968391 L28.5249724,97.4545455 L105.417993,97.4545455 C102.133729,70.2800999 98.981225,55.4220946 95.9604819,52.8805297 C92.4377563,49.9166114 87.9220414,48.1362263 82.998582,48.1362263 C80.5065533,48.1362263 78.1189855,48.5923465 75.9117686,49.4271916 C72.6698479,40.9273039 64.6213374,34.9090909 55.2059241,34.9090909 Z" mask="url(#b)"/></g></svg>