<svg xmlns="http://www.w3.org/2000/svg" width="32px" height="32px" viewBox="0 0 32 32">
  <rect fill="none" width="32" height="32"/>
	<path fill="#000000" d="M29.236,17.861c1.111-1.5,1.776-3.35,1.776-5.359c0-4.982-4.039-9.021-9.021-9.021c-3.915,0-7.238,2.498-8.486,5.984
		c-0.554-0.16-1.136-0.254-1.742-0.254c-3.479,0-6.297,2.82-6.297,6.297c0,0.229,0.012,0.453,0.035,0.672
		c-2.596,0.777-4.488,3.428-4.488,6.277C1.013,25.936,3.833,29,7.31,29h17.398c3.479,0,6.299-3.064,6.299-6.543
		C31.007,20.762,30.325,18.993,29.236,17.861z M21.991,4.324c4.508,0,8.176,3.67,8.176,8.178c0,1.782-0.579,3.429-1.551,4.773
		c-0.87-0.689-1.927-1.153-3.082-1.305c0.219-0.639,0.338-1.324,0.338-2.037c0-3.48-2.818-6.299-6.297-6.299
		c-1.963,0-3.717,0.898-4.869,2.305c-0.132-0.069-0.271-0.125-0.407-0.186C15.432,6.596,18.447,4.324,21.991,4.324z"/>
</svg>
