<!--
  ~ SPDX-FileCopyrightText: 2024 SAP SE or an SAP affiliate company and Juno contributors
  ~ SPDX-License-Identifier: Apache-2.0
-->

<svg width="136" height="75" xmlns="http://www.w3.org/2000/svg"><g fill="none" fill-rule="evenodd"><path d="M.98.05h134v74H.98z"/><path d="M52.496 37.638c0 .827.091 1.497.251 1.989.183.491.411 1.027.731 1.608.114.179.16.358.16.514 0 .223-.137.447-.434.67l-1.439.938a1.112 1.112 0 01-.594.201c-.228 0-.457-.111-.685-.312a6.93 6.93 0 01-.822-1.05c-.229-.38-.457-.805-.709-1.318-1.781 2.055-4.02 3.083-6.715 3.083-1.92 0-3.45-.537-4.569-1.609-1.12-1.072-1.69-2.502-1.69-4.29 0-1.898.685-3.44 2.078-4.601 1.394-1.162 3.244-1.743 5.597-1.743.777 0 1.576.067 2.421.179.845.111 1.713.29 2.627.491v-1.63c0-1.698-.365-2.882-1.073-3.575-.731-.693-1.965-1.028-3.724-1.028-.8 0-1.622.09-2.467.29a18.5 18.5 0 00-2.467.76 6.65 6.65 0 01-.8.29 1.43 1.43 0 01-.365.068c-.32 0-.48-.224-.48-.693v-1.094c0-.358.046-.626.16-.782.115-.157.32-.313.64-.47.8-.402 1.759-.737 2.878-1.005 1.12-.29 2.307-.424 3.564-.424 2.718 0 4.705.603 5.984 1.81 1.257 1.206 1.896 3.038 1.896 5.495v7.238h.046zm-9.274 3.396c.754 0 1.53-.134 2.353-.402.822-.268 1.553-.76 2.17-1.43.365-.424.64-.894.776-1.43a7.853 7.853 0 00.229-1.943v-.939c-.663-.156-1.37-.29-2.102-.38-.73-.089-1.439-.133-2.147-.133-1.53 0-2.65.29-3.403.893-.754.603-1.12 1.452-1.12 2.57 0 1.05.274 1.831.845 2.367.549.559 1.348.827 2.399.827zm18.343 2.413c-.412 0-.686-.067-.868-.224-.183-.134-.343-.446-.48-.87l-5.368-17.27c-.137-.447-.206-.737-.206-.894 0-.357.183-.558.548-.558h2.239c.434 0 .731.067.89.223.184.134.32.447.458.872l3.837 14.789 3.564-14.79c.114-.446.251-.737.434-.87.183-.135.502-.224.913-.224h1.828c.434 0 .73.067.914.223.182.134.342.447.434.872l3.609 14.968 3.952-14.968c.137-.447.296-.738.456-.872.183-.134.48-.223.891-.223h2.125c.365 0 .57.179.57.558 0 .112-.022.224-.045.358a3.124 3.124 0 01-.16.558l-5.505 17.27c-.137.446-.297.737-.48.87-.182.135-.48.224-.868.224h-1.964c-.434 0-.731-.067-.914-.223-.183-.157-.343-.447-.434-.894l-3.54-14.41-3.518 14.388c-.114.447-.252.737-.434.893-.183.157-.503.224-.914.224h-1.964zm29.352.603a15.44 15.44 0 01-3.517-.402c-1.143-.268-2.033-.559-2.627-.894-.366-.2-.617-.424-.708-.625a1.547 1.547 0 01-.138-.626v-1.14c0-.468.183-.692.526-.692.137 0 .274.023.411.067.137.045.343.134.571.224.777.335 1.622.603 2.513.782.913.178 1.804.268 2.718.268 1.44 0 2.558-.246 3.335-.738.777-.491 1.188-1.206 1.188-2.122 0-.625-.206-1.14-.617-1.564-.411-.424-1.188-.804-2.307-1.161l-3.312-1.006c-1.668-.514-2.901-1.273-3.655-2.278-.754-.983-1.142-2.078-1.142-3.24 0-.938.205-1.765.617-2.48.41-.715.96-1.34 1.644-1.832.686-.513 1.462-.893 2.376-1.161.914-.268 1.873-.38 2.878-.38.503 0 1.028.022 1.53.09.526.066 1.006.156 1.485.245.457.112.891.223 1.302.358.412.134.731.268.96.402.32.178.548.357.685.558.137.179.206.425.206.737v1.05c0 .47-.183.715-.526.715-.182 0-.48-.09-.868-.268-1.302-.58-2.764-.871-4.386-.871-1.302 0-2.33.201-3.038.625-.708.425-1.073 1.073-1.073 1.989 0 .625.228 1.161.685 1.586.457.424 1.302.849 2.513 1.229l3.243 1.005c1.645.514 2.833 1.229 3.541 2.145.708.916 1.05 1.966 1.05 3.127 0 .961-.205 1.832-.593 2.592a6.04 6.04 0 01-1.668 1.966c-.708.558-1.553.96-2.535 1.25-1.028.314-2.102.47-3.267.47z" fill="#FFF" fill-rule="nonzero"/><g fill="#FFF"><path d="M95.24 55.822c-7.516 5.36-18.437 8.206-27.828 8.206-13.16 0-25.018-4.699-33.974-12.507-.709-.618-.069-1.456.777-.971 9.687 5.426 21.636 8.713 33.997 8.713 8.34 0 17.501-1.676 25.932-5.117 1.257-.552 2.33.794 1.097 1.676z"/><path d="M98.37 52.38c-.959-1.19-6.35-.573-8.796-.286-.73.088-.845-.53-.182-.993 4.295-2.911 11.355-2.073 12.178-1.102.822.992-.229 7.808-4.25 11.073-.617.507-1.211.243-.937-.42.914-2.183 2.947-7.102 1.988-8.271z"/></g></g></svg>