<!--
  ~ SPDX-FileCopyrightText: 2024 SAP SE or an SAP affiliate company and Juno contributors
  ~ SPDX-License-Identifier: Apache-2.0
-->

<svg xmlns="http://www.w3.org/2000/svg" width="2734" height="1051" viewBox="0 0 2734 1051"><defs><filter id="a" width="101.3%" height="102.4%" x="-.7%" y="-1.2%" filterUnits="objectBoundingBox"><feGaussianBlur in="SourceGraphic" stdDeviation="3.5"/></filter><filter id="b" width="101.9%" height="103.1%" x="-1%" y="-1.6%" filterUnits="objectBoundingBox"><feGaussianBlur in="SourceGraphic" stdDeviation="3.5"/></filter><filter id="c" width="102.5%" height="103.4%" x="-1.3%" y="-1.7%" filterUnits="objectBoundingBox"><feGaussianBlur in="SourceGraphic" stdDeviation="3.5"/></filter><filter id="d" width="101.5%" height="102.6%" x="-.7%" y="-1.3%" filterUnits="objectBoundingBox"><feGaussianBlur in="SourceGraphic" stdDeviation="4"/></filter><filter id="e" width="102.5%" height="104.5%" x="-1.3%" y="-2.3%" filterUnits="objectBoundingBox"><feGaussianBlur in="SourceGraphic" stdDeviation="5"/></filter><filter id="f" width="103.7%" height="105.9%" x="-1.8%" y="-3%" filterUnits="objectBoundingBox"><feGaussianBlur in="SourceGraphic" stdDeviation="5"/></filter><filter id="g" width="105.6%" height="107%" x="-2.8%" y="-3.5%" filterUnits="objectBoundingBox"><feGaussianBlur in="SourceGraphic" stdDeviation="5"/></filter><filter id="h" width="102.5%" height="104.3%" x="-1.2%" y="-2.2%" filterUnits="objectBoundingBox"><feGaussianBlur in="SourceGraphic" stdDeviation="5"/></filter></defs><g fill="none" fill-rule="evenodd"><g fill="#FFF" opacity=".124" transform="scale(-1 1) rotate(-13 113.496 6880.905)"><path fill-rule="nonzero" d="M400.212744,50.3380723 L749.298153,14.8642185 L952.643769,105.670624 L1129.21565,87.692038 L1297.57664,233.712137 L1458.60982,254.759236 L1418.79335,335.097949 L1315.6958,379.491292 L1439.25103,389.756493 L1533.22704,440.862966 L1542.27613,432.148769 L1537.449,443.158533 L1599.58515,476.950084 L1509.05465,556.285454 L1583.05766,594.800254 L1357.93487,623.115745 L1328.18331,607.295123 L1238.90295,593.426369 L1323.92654,854.934662 L1087.35123,587.098597 L1047.22032,690.013643 L1047.78584,725.255807 L774.721521,802.108928 L731.946574,901.864218 L730.063395,901.116057 L765.220593,804.782863 L482.0919,884.469368 L481.485496,886.807547 L478.449623,885.494918 L473.655747,886.845143 L476.155212,884.502843 L152.510505,744.560494 L19.0804009,769.383068 L18.5851484,767.42001 L135.280127,729.882255 L44.8049746,624.122501 L551.785646,548.707953 L585.261346,384.130102 L557.945289,335.635108 L34.7084099,620.173579 L33.6119117,618.474232 L512.380354,254.743507 L404.615142,63.4266949 L447.957469,61.628807 L400.212744,50.3380723 Z M534.798492,673.441536 L156.083868,743.895054 L477.768597,882.990386 L481.222375,879.755493 L523.578782,716.646481 L252.421832,767.292698 L252.050037,765.29834 L524.142251,714.477713 L534.798492,673.441536 Z M727.982019,637.502675 L536.998654,673.031722 L526.343426,714.06587 L694.592754,682.641705 L483.035405,880.835819 L482.682731,882.197132 L766.077956,802.434548 L815.453397,667.146225 L734.311242,648.738703 L727.982019,637.502675 Z M688.135883,685.911446 L525.779957,716.235652 L483.990058,877.162709 L688.135883,685.911446 Z M772.213276,802.814945 L767.625468,804.106264 L744.564813,867.294713 L772.213276,802.814945 Z M1093.68012,570.867326 L1088.18022,584.973448 L1318.97729,846.268415 L1236.6582,593.078433 L1093.68012,570.867326 Z M817.445805,667.598644 L768.482832,801.757949 L773.240897,800.418953 L829.064808,670.234032 L817.445805,667.598644 Z M831.074444,670.690508 L775.749142,799.712937 L1045.73362,723.725916 L1045.27352,695.008505 L1036.57639,717.312181 L831.074444,670.690508 Z M136.709067,731.552958 L34.3554338,764.478063 L149.173272,743.117016 L145.093903,741.354051 L136.709067,731.552958 Z M554.61819,597.121795 L138.801805,730.879402 L146.327554,739.677216 L152.746635,742.45259 L535.361961,671.272768 L554.61819,597.121795 Z M726.929062,635.634167 L586.780481,386.826354 L553.48827,550.506587 L48.7289457,625.589666 L137.371852,729.2087 L557.50678,594.062764 L537.562123,670.862954 L726.929062,635.634167 Z M938.958378,419.096163 L831.887217,668.794611 L1035.32263,714.947376 L1045.18738,689.649477 L1043.12635,560.96218 L1067.62781,564.767792 L1019.06616,509.789825 L1014.57987,513.934569 L991.141026,478.174298 L938.958378,419.096163 Z M1045.19143,563.335472 L1047.13519,684.654615 L1085.84223,585.389348 L1069.72866,567.147554 L1045.19143,563.335472 Z M871.26312,210.744294 L782.752973,158.404758 L874.045533,369.994143 L622.439114,300.562537 L602.074189,311.636645 L587.397661,383.791296 L729.034975,635.242612 L738.038767,633.56854 L820.828824,658.333186 L818.1471,665.678401 L829.87758,668.339149 L938.35859,415.354585 L983.360905,466.303894 L938.430014,397.751781 L1064.68784,464.887804 L1156.93755,379.67794 L1010.70129,293.201101 L999.246848,310.764971 L871.263648,357.360857 L871.26312,210.744294 Z M737.926831,635.652426 L730.087931,637.11112 L735.634447,646.958829 L816.154692,665.225983 L818.185611,659.660019 L737.926831,635.652426 Z M1489.17516,548.226117 L1447.3052,526.434968 L1358.46774,612.000774 L1334.2862,608.243579 L1358.31874,621.022878 L1576.35365,593.597801 L1507.41694,557.720817 L1471.03728,589.602689 L1489.17516,548.226117 Z M513.384665,256.526806 L45.4677202,612.013056 L556.950098,333.868039 L513.384665,256.526806 Z M1279.57808,439.142559 L1188.74109,439.142559 L1224.79091,550.020575 L1328.83191,605.343435 L1357.78567,609.841245 L1445.40805,525.447966 L1279.57808,439.142559 Z M1225.69286,552.796963 L1238.19963,591.264701 L1322.73003,604.395994 L1225.69286,552.796963 Z M1122.18797,497.759147 L1094.43512,568.931868 L1235.95488,590.915751 L1223.11672,551.427535 L1122.18797,497.759147 Z M1072.86422,567.634461 L1086.67021,583.265213 L1091.62893,570.548807 L1072.86422,567.634461 Z M1490.97704,549.164429 L1476.54981,582.074318 L1505.48736,556.715556 L1490.97704,549.164429 Z M1065.00707,467.354803 L1020.5559,508.413296 L1070.76236,565.2547 L1092.38394,568.613349 L1120.38609,496.801562 L1065.00707,467.354803 Z M1536.63116,445.022984 L1491.79387,547.302007 L1507.12406,555.281207 L1596.05985,477.341483 L1536.63116,445.022984 Z M1166.11621,385.104932 L1122.9298,495.857164 L1222.21375,548.650132 L1186.60984,439.142559 L1172.04116,439.142827 L1184.82012,433.639487 L1169.73721,387.246312 L1166.11621,385.104932 Z M1533.5635,443.354311 L1448.84663,524.950914 L1489.99198,546.364709 L1534.84447,444.051197 L1533.5635,443.354311 Z M1311.73328,381.197498 L1187.32026,434.771548 L1188.08135,437.113777 L1280.07411,437.114045 L1446.94948,523.962897 L1531.69473,442.338905 L1438.65758,391.743107 L1311.73328,381.197498 Z M1000.5396,488.815261 L1014.96175,510.819432 L1017.72336,508.269253 L1000.5396,488.815261 Z M944.460302,403.255432 L992.759478,476.943842 L1019.21209,506.892724 L1063.10993,466.345484 L944.460302,403.255432 Z M1158.75971,380.755223 L1066.58499,465.896109 L1121.12792,494.898564 L1164.34777,384.060109 L1158.75971,380.755223 Z M1536.30888,440.710807 L1535.09581,441.879386 L1535.6613,442.186746 L1536.30888,440.710807 Z M1185.45048,435.57596 L1181.87914,437.113777 L1185.9501,437.113777 L1185.45048,435.57596 Z M1170.9442,369.500554 L1160.31533,379.318846 L1165.09467,382.144939 L1166.77446,377.839504 L1168.6626,378.577158 L1166.86311,383.190776 L1171.42847,385.89088 L1186.6899,432.834061 L1307.43429,380.840432 L1170.9442,369.500554 Z M599.749376,312.90159 L559.725889,334.666365 L585.878526,381.095044 L599.749376,312.90159 Z M1128.54929,89.798447 L956.362053,107.331182 L1090.45031,167.210687 L1120.67676,120.865936 L1198.79079,217.813157 L1091.20329,169.767967 L1011.80998,291.499967 L1158.49216,378.240548 L1170.22329,367.406108 L1311.39783,379.134226 L1417.3076,333.528218 L1455.53224,256.403051 L1296.71118,235.645141 L1128.54929,89.798447 Z M703.909959,111.781316 L695.579544,118.110102 L711.689204,121.919871 L603.763581,303.331825 L602.602188,309.041832 L622.191287,298.389464 L870.508113,366.913857 L779.789697,156.65189 L703.909959,111.781316 Z M873.289985,211.943305 L873.289985,354.463221 L997.917849,309.089509 L1008.95413,292.168451 L873.289985,211.943305 Z M693.48782,119.699653 L515.014265,255.289249 L558.730699,332.899296 L600.277374,310.305763 L601.847067,302.588751 L708.533237,123.258136 L693.48782,119.699653 Z M952.311363,107.744039 L799.597233,123.294655 L873.290513,168.592018 L873.289985,209.586874 L1010.06282,290.467317 L1089.32844,168.931094 L952.311363,107.744039 Z M455.264317,63.3573294 L408.00695,65.3161185 L514.009953,253.504935 L690.93093,119.094061 L455.264317,63.3573294 Z M1120.84923,124.312089 L1092.32516,168.04756 L1191.92631,212.525565 L1120.84923,124.312089 Z M748.96615,16.9367652 L412.408287,51.1369602 L455.455855,61.3184033 L735.850201,49.6956146 L781.38788,155.240873 L871.26312,208.387864 L871.26312,169.726377 L793.429183,121.883521 L948.59308,106.083481 L748.96615,16.9367652 Z M734.540953,51.7790697 L462.762703,63.0469257 L693.022654,117.50451 L703.769929,109.341507 L778.42359,153.488005 L734.540953,51.7790697 Z" filter="url(#a)"/><path fill-rule="nonzero" d="M885.916244,558.714111 L399.072131,53.606056 L1481.07213,580.183158 L890.841811,560.903094 L1051.12561,727.200448 L1049.66345,728.606056 L887.933555,560.808846 L553.173914,549.874718 L553.240256,547.848965 L885.916244,558.714111 Z M408.470178,60.4336497 L888.823485,558.809372 L1471.6375,577.846432 L408.470178,60.4336497 Z" filter="url(#b)"/><path fill-rule="nonzero" d="M1417.45701,334.962485 L1439.64006,388.017249 L1437.77005,388.797073 L1418.13206,341.829792 L1363.03497,613.611621 L1325.27313,856.12213 L734.579066,902.027563 L734.421847,900.009841 L1323.51736,854.228044 L1361.04067,613.255336 L1417.45701,334.962485 Z M1186.40856,276.027563 L1186.45231,276.966951 L607.812779,303.920257 L1353.49453,619.876129 L1193.08211,277.007708 L1193.93378,276.609154 L1355.38481,621.698708 L603.64006,303.173364 L1186.40856,276.027563 Z" filter="url(#c)"/><path d="M732.242346,883.967522 C742.471433,883.967522 750.763747,892.257524 750.763747,902.483761 C750.763747,912.709997 742.471433,921 732.242346,921 C722.013259,921 713.720946,912.709997 713.720946,902.483761 C713.720946,892.257524 722.013259,883.967522 732.242346,883.967522 Z M475.041936,864.998245 C485.271023,864.998245 493.563337,873.288248 493.563337,883.514484 C493.563337,893.740721 485.271023,902.030723 475.041936,902.030723 C464.812849,902.030723 456.520536,893.740721 456.520536,883.514484 C456.520536,873.288248 464.812849,864.998245 475.041936,864.998245 Z M1321.69971,835.408649 C1331.9288,835.408649 1340.22111,843.698652 1340.22111,853.924888 C1340.22111,864.151125 1331.9288,872.441127 1321.69971,872.441127 C1311.47062,872.441127 1303.17831,864.151125 1303.17831,853.924888 C1303.17831,843.698652 1311.47062,835.408649 1321.69971,835.408649 Z M247.003412,747.986374 C257.232499,747.986374 265.524813,756.276376 265.524813,766.502613 C265.524813,776.728849 257.232499,785.018852 247.003412,785.018852 C236.774325,785.018852 228.482012,776.728849 228.482012,766.502613 C228.482012,756.276376 236.774325,747.986374 247.003412,747.986374 Z M18.5214004,747.035015 C28.7504874,747.035015 37.0428008,755.325018 37.0428008,765.551254 C37.0428008,775.77749 28.7504874,784.067493 18.5214004,784.067493 C8.29231341,784.067493 0,775.77749 0,765.551254 C0,755.325018 8.29231341,747.035015 18.5214004,747.035015 Z M1041.44282,698.319731 C1051.67191,698.319731 1059.96422,706.609734 1059.96422,716.83597 C1059.96422,727.062207 1051.67191,735.35221 1041.44282,735.35221 C1031.21373,735.35221 1022.92142,727.062207 1022.92142,716.83597 C1022.92142,706.609734 1031.21373,698.319731 1041.44282,698.319731 Z M687.622555,662.517431 C697.851642,662.517431 706.143956,670.807434 706.143956,681.03367 C706.143956,691.259907 697.851642,699.549909 687.622555,699.549909 C677.393468,699.549909 669.101155,691.259907 669.101155,681.03367 C669.101155,670.807434 677.393468,662.517431 687.622555,662.517431 Z M813.204103,640.572344 C823.43319,640.572344 831.725504,648.862347 831.725504,659.088583 C831.725504,669.31482 823.43319,677.604822 813.204103,677.604822 C802.975016,677.604822 794.682703,669.31482 794.682703,659.088583 C794.682703,648.862347 802.975016,640.572344 813.204103,640.572344 Z M728.822219,617.352746 C739.051306,617.352746 747.343619,625.642748 747.343619,635.868985 C747.343619,646.095221 739.051306,654.385224 728.822219,654.385224 C718.593132,654.385224 710.300819,646.095221 710.300819,635.868985 C710.300819,625.642748 718.593132,617.352746 728.822219,617.352746 Z M1354.66401,601.493265 C1364.89309,601.493265 1373.18541,609.783267 1373.18541,620.009504 C1373.18541,630.23574 1364.89309,638.525743 1354.66401,638.525743 C1344.43492,638.525743 1336.14261,630.23574 1336.14261,620.009504 C1336.14261,609.783267 1344.43492,601.493265 1354.66401,601.493265 Z M38.2008508,601.008336 C48.4299378,601.008336 56.7222512,609.298338 56.7222512,619.524575 C56.7222512,629.750811 48.4299378,638.040814 38.2008508,638.040814 C27.9717638,638.040814 19.6794504,629.750811 19.6794504,619.524575 C19.6794504,609.298338 27.9717638,601.008336 38.2008508,601.008336 Z M552.694118,573.511265 C562.923205,573.511265 571.215518,581.801268 571.215518,592.027504 C571.215518,602.253741 562.923205,610.543743 552.694118,610.543743 C542.465031,610.543743 534.172717,602.253741 534.172717,592.027504 C534.172717,581.801268 542.465031,573.511265 552.694118,573.511265 Z M1569.82826,579.92752 C1575.87905,579.92752 1580.78419,584.830838 1580.78419,590.879388 C1580.78419,596.927938 1575.87905,601.831257 1569.82826,601.831257 C1563.77746,601.831257 1558.87233,596.927938 1558.87233,590.879388 C1558.87233,584.830838 1563.77746,579.92752 1569.82826,579.92752 Z M1470.70318,567.411099 C1476.75397,567.411099 1481.65911,572.314417 1481.65911,578.362967 C1481.65911,584.411517 1476.75397,589.314836 1470.70318,589.314836 C1464.65238,589.314836 1459.74725,584.411517 1459.74725,578.362967 C1459.74725,572.314417 1464.65238,567.411099 1470.70318,567.411099 Z M1041.23982,545.232381 C1051.46891,545.232381 1059.76122,553.522384 1059.76122,563.74862 C1059.76122,573.974857 1051.46891,582.264859 1041.23982,582.264859 C1031.01074,582.264859 1022.71842,573.974857 1022.71842,563.74862 C1022.71842,553.522384 1031.01074,545.232381 1041.23982,545.232381 Z M548.193069,527.909463 C558.422156,527.909463 566.714469,536.199465 566.714469,546.425702 C566.714469,556.651938 558.422156,564.941941 548.193069,564.941941 C537.963982,564.941941 529.671669,556.651938 529.671669,546.425702 C529.671669,536.199465 537.963982,527.909463 548.193069,527.909463 Z M1014.25789,485.207627 C1024.48697,485.207627 1032.77929,493.497629 1032.77929,503.723866 C1032.77929,513.950102 1024.48697,522.240105 1014.25789,522.240105 C1004.0288,522.240105 995.736485,513.950102 995.736485,503.723866 C995.736485,493.497629 1004.0288,485.207627 1014.25789,485.207627 Z M1596.95723,464.150623 C1604.16055,464.150623 1610,469.987907 1610,477.188562 C1610,484.389217 1604.16055,490.226501 1596.95723,490.226501 C1589.7539,490.226501 1583.91445,484.389217 1583.91445,477.188562 C1583.91445,469.987907 1589.7539,464.150623 1596.95723,464.150623 Z M1279.9126,422.545512 C1290.14169,422.545512 1298.434,430.835514 1298.434,441.061751 C1298.434,451.287987 1290.14169,459.57799 1279.9126,459.57799 C1269.68351,459.57799 1261.3912,451.287987 1261.3912,441.061751 C1261.3912,430.835514 1269.68351,422.545512 1279.9126,422.545512 Z M1532.97831,416.894861 C1543.20739,416.894861 1551.49971,425.184863 1551.49971,435.4111 C1551.49971,445.637336 1543.20739,453.927339 1532.97831,453.927339 C1522.74922,453.927339 1514.4569,445.637336 1514.4569,435.4111 C1514.4569,425.184863 1522.74922,416.894861 1532.97831,416.894861 Z M1179.58846,425.558324 C1185.63926,425.558324 1190.54439,430.461642 1190.54439,436.510193 C1190.54439,442.558743 1185.63926,447.462061 1179.58846,447.462061 C1173.53767,447.462061 1168.63253,442.558743 1168.63253,436.510193 C1168.63253,430.461642 1173.53767,425.558324 1179.58846,425.558324 Z M939.715726,388.974688 C949.944813,388.974688 958.237126,397.264691 958.237126,407.490928 C958.237126,417.717164 949.944813,426.007167 939.715726,426.007167 C929.486639,426.007167 921.194326,417.717164 921.194326,407.490928 C921.194326,397.264691 929.486639,388.974688 939.715726,388.974688 Z M1163.93714,360.890147 C1171.14046,360.890147 1176.97991,366.727431 1176.97991,373.928086 C1176.97991,381.128741 1171.14046,386.966025 1163.93714,386.966025 C1156.73381,386.966025 1150.89436,381.128741 1150.89436,373.928086 C1150.89436,366.727431 1156.73381,360.890147 1163.93714,360.890147 Z M870.866088,335.853554 C881.095175,335.853554 889.387489,344.143556 889.387489,354.369793 C889.387489,364.596029 881.095175,372.886032 870.866088,372.886032 C860.637001,372.886032 852.344688,364.596029 852.344688,354.369793 C852.344688,344.143556 860.637001,335.853554 870.866088,335.853554 Z M1411.45776,317.777893 C1421.68685,317.777893 1429.97916,326.067895 1429.97916,336.294132 C1429.97916,346.520368 1421.68685,354.810371 1411.45776,354.810371 C1401.22868,354.810371 1392.93636,346.520368 1392.93636,336.294132 C1392.93636,326.067895 1401.22868,317.777893 1411.45776,317.777893 Z M603.099517,277.561331 C613.328604,277.561331 621.620918,285.851334 621.620918,296.07757 L621.620918,296.07757 L621.627202,296.287373 L621.627202,296.287373 L621.630846,296.597739 C621.630846,297.591482 621.518981,298.559106 621.307153,299.48871 C619.705866,308.08553 612.162949,314.59381 603.099517,314.59381 C592.87043,314.59381 584.578117,306.303807 584.578117,296.07757 C584.578117,285.851334 592.87043,277.561331 603.099517,277.561331 Z M996.989631,289.96376 C1003.04042,289.96376 1007.94556,294.867079 1007.94556,300.915629 C1007.94556,306.964179 1003.04042,311.867497 996.989631,311.867497 C990.938838,311.867497 986.033701,306.964179 986.033701,300.915629 C986.033701,294.867079 990.938838,289.96376 996.989631,289.96376 Z M1194.19637,260.758777 C1201.3997,260.758777 1207.23914,266.596061 1207.23914,273.796716 C1207.23914,280.997371 1201.3997,286.834655 1194.19637,286.834655 C1186.99305,286.834655 1181.1536,280.997371 1181.1536,273.796716 C1181.1536,266.596061 1186.99305,260.758777 1194.19637,260.758777 Z M1457.13869,240.94111 C1464.34202,240.94111 1470.18146,246.778394 1470.18146,253.979049 C1470.18146,261.179703 1464.34202,267.016988 1457.13869,267.016988 C1449.93537,267.016988 1444.09592,261.179703 1444.09592,253.979049 C1444.09592,246.778394 1449.93537,240.94111 1457.13869,240.94111 Z M1297.15071,207.423612 C1307.37979,207.423612 1315.67211,215.713615 1315.67211,225.939851 C1315.67211,236.166088 1307.37979,244.45609 1297.15071,244.45609 C1286.92162,244.45609 1278.62931,236.166088 1278.62931,225.939851 C1278.62931,215.713615 1286.92162,207.423612 1297.15071,207.423612 Z M1196.80493,209.650057 C1201.99132,209.650057 1206.19572,213.852901 1206.19572,219.037373 C1206.19572,224.221844 1201.99132,228.424689 1196.80493,228.424689 C1191.61853,228.424689 1187.41413,224.221844 1187.41413,219.037373 C1187.41413,213.852901 1191.61853,209.650057 1196.80493,209.650057 Z M872.300713,147.06795 C880.368437,147.06795 886.90862,153.605708 886.90862,161.670442 C886.90862,169.735175 880.368437,176.272933 872.300713,176.272933 C864.232989,176.272933 857.692806,169.735175 857.692806,161.670442 C857.692806,153.605708 864.232989,147.06795 872.300713,147.06795 Z M1118.79675,106.829191 C1129.02584,106.829191 1137.31815,115.119193 1137.31815,125.34543 C1137.31815,135.571666 1129.02584,143.861669 1118.79675,143.861669 C1108.56767,143.861669 1100.27535,135.571666 1100.27535,125.34543 C1100.27535,115.119193 1108.56767,106.829191 1118.79675,106.829191 Z M800.826312,102.217441 C808.029637,102.217441 813.869086,108.054725 813.869086,115.255379 C813.869086,122.456034 808.029637,128.293318 800.826312,128.293318 C793.622987,128.293318 787.783539,122.456034 787.783539,115.255379 C787.783539,108.054725 793.622987,102.217441 800.826312,102.217441 Z M700.657809,104.303511 C706.708603,104.303511 711.613739,109.206829 711.613739,115.255379 C711.613739,121.303929 706.708603,126.207248 700.657809,126.207248 C694.607016,126.207248 689.701879,121.303929 689.701879,115.255379 C689.701879,109.206829 694.607016,104.303511 700.657809,104.303511 Z M1125.33052,75.0985277 C1131.38132,75.0985277 1136.28645,80.0018464 1136.28645,86.0503964 C1136.28645,92.0989464 1131.38132,97.002265 1125.33052,97.002265 C1119.27973,97.002265 1114.37459,92.0989464 1114.37459,86.0503964 C1114.37459,80.0018464 1119.27973,75.0985277 1125.33052,75.0985277 Z M393.850664,34.2919713 C404.079751,34.2919713 412.372065,42.5819739 412.372065,52.8082103 C412.372065,63.0344468 404.079751,71.3244494 393.850664,71.3244494 C383.621577,71.3244494 375.329264,63.0344468 375.329264,52.8082103 C375.329264,42.5819739 383.621577,34.2919713 393.850664,34.2919713 Z M733.003889,36.5062288 C740.207214,36.5062288 746.046662,42.3435128 746.046662,49.5441676 C746.046662,56.7448224 740.207214,62.5821065 733.003889,62.5821065 C725.800563,62.5821065 719.961115,56.7448224 719.961115,49.5441676 C719.961115,42.3435128 725.800563,36.5062288 733.003889,36.5062288 Z M747.611795,0 C754.81512,0 760.654569,5.83728405 760.654569,13.0379388 C760.654569,20.2385936 754.81512,26.0758777 747.611795,26.0758777 C743.85553,26.0758777 740.470134,24.4885836 738.090235,21.948387 C735.599412,19.9108652 734.008997,16.8131868 734.008997,13.3441506 C734.008997,10.8622069 734.823095,8.57035291 736.198897,6.72091196 C738.424216,2.71291334 742.701071,0 747.611795,0 Z" filter="url(#d)" opacity=".567"/></g><g fill="#FFF" opacity=".14" transform="scale(1 -1) rotate(17 3611.735 2270.331)"><path fill-rule="nonzero" d="M296.990017,37.1607467 L560.896995,10.3726995 L713.767,78.563 L846.548982,65.0576204 L973.142,174.729 L1094.4631,190.568495 L1064.34279,251.274989 L987.635,284.269 L1079.61758,291.902339 L1150.158,330.22 L1157.70099,322.964303 L1153.677,332.132 L1200.4976,357.566236 L1132.444,417.137 L1188.44632,446.251181 L1018.37134,467.61892 L995.975,455.723 L929.278,445.374 L993.431315,642.471103 L815.078,440.776 L785.068,517.652 L785.494871,544.253328 L580.144,601.984 L548.032241,676.788965 L546.174066,676.051306 L572.445,604.149 L360.174,663.826 L359.683365,665.717217 L357.225,664.655 L352.760234,665.910455 L355.087,663.732 L112.18,558.817 L11.9412224,577.444537 L11.4526134,575.509308 L98.84,547.43 L30.7756613,467.956787 L412.172,411.287 L437.287,287.949 L416.911,251.815 L23.7601167,465.373142 L22.6782833,463.697817 L382.439,190.685 L301.334938,46.8614192 L332.574,45.567 L296.990017,37.1607467 Z M399.278,505.467 L115.706,558.162 L356.68,662.241 L359.112,659.966 L390.843,537.911 L187.361886,575.874776 L186.99508,573.9087 L391.399,535.773 L399.278,505.467 Z M544.709,478.442 L401.448,505.064 L393.57,535.368 L520.490647,511.68926 L360.901,661.031 L360.757,661.584 L573.291,601.833 L610.275,500.61 L549.435615,486.823332 L544.709,478.442 Z M514.119,514.912 L393.014,537.506 L361.842,657.411 L514.119,514.912 Z M577.669,602.68 L574.818,603.481 L560.484,642.712 L577.669,602.68 Z M819.908,428.403 L815.896,438.682 L988.547,633.929 L927.063,445.03 L819.908,428.403 Z M612.242,501.056 L575.664,601.166 L578.683,600.317 L620.492,502.925 L612.242,501.056 Z M622.476,503.375 L581.158,599.621 L783.47,542.745 L783.146,522.575 L776.974096,538.386128 L622.476,503.375 Z M100.251,549.077 L27.017,572.609 L108.887,557.395 L106.486707,556.35923 L100.251,549.077 Z M414.162,448.213 L102.315,548.414 L107.704,554.705 L112.413,556.74 L399.834,503.329 L414.162,448.213 Z M543.67,476.6 L438.787,290.609 L413.85279,413.059563 L34.648,469.403 L100.905,546.767 L417.013252,445.196924 L402.004,502.926 L543.67,476.6 Z M703.51,314.607 L623.278,501.506 L775.737,536.055 L783.061,517.292 L781.508311,420.421121 L799.555,423.221 L763.646,382.612 L760.245415,385.750818 L742.482,358.679 L703.51,314.607 Z M783.546,422.761 L784.983,512.369 L813.589,439.092 L801.629,425.567 L783.546,422.761 Z M652.31,157.845 L586.517,118.982 L655.055686,277.657119 L465.518,225.412 L450.39,233.629 L439.396,287.617 L545.748,476.214 L552.406455,474.977729 L614.943485,493.663229 L612.934,499.162 L621.295,501.056 L702.918495,310.918776 L734.805,346.979 L702.333809,297.493281 L797.923,348.265 L866.913,284.609 L757.449,219.95 L748.919329,233.014988 L652.310556,268.148752 L652.31,157.845 Z M552.296,477.032 L546.787,478.056 L550.741,485.068 L610.967,498.716 L612.336,494.971 L552.296,477.032 Z M1116.772,411.245 L1085.645,395.063 L1018.89708,459.280036 L1001.997,456.658 L1018.75,465.556 L1181.83,445.066 L1130.828,418.552 L1102.7962,443.090765 L1116.772,411.245 Z M383.431,192.444 L34.383,457.326 L415.928,250.073 L383.431,192.444 Z M959.45,329.459 L891.548,329.459 L918.518,412.318 L996.613,453.798 L1018.225,457.151 L1083.772,394.089 L959.45,329.459 Z M919.409,415.056 L928.584,443.242 L990.59,452.863 L919.409,415.056 Z M841.312,373.575 L820.653,426.495 L926.369,442.898 L916.867,413.705 L841.312,373.575 Z M804.723,426.047 L814.406,436.998 L817.884,428.089 L804.723,426.047 Z M1118.551,412.169 L1108.237,435.669 L1128.923,417.561 L1118.551,412.169 Z M798.237,350.696 L765.115,381.256 L802.648,423.701 L818.629,426.181 L839.534,372.63 L798.237,350.696 Z M1152.87,333.97 L1119.356,410.333 L1130.539,416.147 L1197.019,357.952 L1152.87,333.97 Z M874.331,288.991 L842.044,371.699 L915.976,410.968 L889.446,329.459 L877.509134,329.459795 L887.98,324.955 L876.736,290.411 L874.331,288.991 Z M1150.49,332.677 L1087.166,393.599 L1117.577,409.409 L1151.107,333.012 L1150.49,332.677 Z M983.723,285.951 L890.446,326.072 L890.897,327.459 L959.940759,327.459795 L1085.293,392.625 L1148.645,331.675 L1079.032,293.861 L983.723,285.951 Z M751.754,369.165 L760.623,382.68 L762.32,381.114 L751.754,369.165 Z M708.286,302.919 L744.077,357.465 L763.79,379.758 L796.365,349.702 L708.286,302.919 Z M868.712,285.671 L799.795,349.259 L840.266,370.755 L872.587,287.96 L868.712,285.671 Z M888.602,326.865 L887.221,327.459 L888.795,327.459 L888.602,326.865 Z M877.925,277.171 L870.247,284.255 L873.324,286.073 L874.484821,283.100079 L876.347892,283.827378 L875.068,287.103 L878.403956,289.073422 L889.824,324.162 L979.479,285.599 L877.925,277.171 Z M448.095,234.876 L418.669,250.86 L437.896,284.957 L448.095,234.876 Z M845.892,67.135 L717.438,80.2 L817.24,124.718 L840.031179,89.8119436 L899.582427,163.638177 L817.982,127.239 L758.543,218.273 L868.448,283.193 L877.214829,275.105875 L983.391,283.916 L1062.878,249.727 L1091.426,192.189 L972.288173,176.635121 L845.892,67.135 Z M526.753,83.681 L521.021,88.031 L532.955269,90.8507098 L451.674,227.321 L450.911,231.071 L465.272776,223.269793 L651.565,274.62 L583.592,117.255 L526.753,83.681 Z M654.31,159.027 L654.31,265.293 L747.608,231.363 L755.725,218.931 L654.31,159.027 Z M518.956,89.598 L385.039,191.224 L417.686,249.118 L448.616,232.317 L449.782495,226.591175 L529.841,92.17 L518.956,89.598 Z M713.44,80.606 L599.397,92.206 L654.310556,125.922299 L654.31,156.704 L756.82,217.255 L816.132,126.414 L713.44,80.606 Z M339.786,47.271 L304.682,48.724 L384.047,189.465 L516.432,89.002 L339.786,47.271 Z M840.201,93.208 L819.089,125.543 L892.809,158.427 L840.201,93.208 Z M560.569,12.416 L309.026,37.948 L339.977,45.26 L550.901761,36.5274119 L585.17,115.864 L652.31,155.523 L652.31,127.04 L593.309396,90.814892 L709.77,78.969 L560.569,12.416 Z M549.611,38.582 L347.189,46.964 L518.497,87.435 L526.614353,81.2759238 L582.246,114.136 L549.611,38.582 Z" filter="url(#e)"/><path fill-rule="nonzero" d="M664.917,418.234 L298.550397,38.226629 L1113.84064,434.894628 L669.777,420.393 L789.814859,544.900072 L788.37504,546.288209 L666.909,420.299 L415.447729,412.088935 L415.513003,410.09 L664.917,418.234 Z M307.822,44.962 L667.785,418.328 L1104.53,432.589 L307.822,44.962 Z" filter="url(#f)"/><polygon fill-rule="nonzero" points="1021.721 460.964 1064.334 250.48 1081.328 291.177 1079.482 291.948 1065 257.266 1023.689 461.316 995.24 644.261 550.483 678.871 550.328 676.877 993.506 642.389" filter="url(#g)"/><path d="M550.318782,664.17538 C558.006481,664.17538 564.238592,670.404133 564.238592,678.08769 C564.238592,685.771247 558.006481,692 550.318782,692 C542.631083,692 536.398972,685.771247 536.398972,678.08769 C536.398972,670.404133 542.631083,664.17538 550.318782,664.17538 Z M357.019095,649.922677 C364.706794,649.922677 370.938905,656.15143 370.938905,663.834987 C370.938905,671.518544 364.706794,677.747297 357.019095,677.747297 C349.331396,677.747297 343.099285,671.518544 343.099285,663.834987 C343.099285,656.15143 349.331396,649.922677 357.019095,649.922677 Z M993.327112,627.690321 C1001.01481,627.690321 1007.24692,633.919074 1007.24692,641.602631 C1007.24692,649.286187 1001.01481,655.514941 993.327112,655.514941 C985.639413,655.514941 979.407301,649.286187 979.407301,641.602631 C979.407301,633.919074 985.639413,627.690321 993.327112,627.690321 Z M185.636105,562.004963 C193.323804,562.004963 199.555915,568.233716 199.555915,575.917273 C199.555915,583.600829 193.323804,589.829583 185.636105,589.829583 C177.948406,589.829583 171.716295,583.600829 171.716295,575.917273 C171.716295,568.233716 177.948406,562.004963 185.636105,562.004963 Z M13.9198102,561.290152 C21.6075091,561.290152 27.8396205,567.518906 27.8396205,575.202462 C27.8396205,582.886019 21.6075091,589.114772 13.9198102,589.114772 C6.23211132,589.114772 1.8189894e-12,582.886019 1.8189894e-12,575.202462 C1.8189894e-12,567.518906 6.23211132,561.290152 13.9198102,561.290152 Z M782.699264,524.687572 C790.386963,524.687572 796.619074,530.916326 796.619074,538.599882 C796.619074,546.283439 790.386963,552.512192 782.699264,552.512192 C775.011565,552.512192 768.779453,546.283439 768.779453,538.599882 C768.779453,530.916326 775.011565,524.687572 782.699264,524.687572 Z M516.784653,497.787255 C524.472352,497.787255 530.704464,504.016009 530.704464,511.699565 C530.704464,519.383122 524.472352,525.611875 516.784653,525.611875 C509.096955,525.611875 502.864843,519.383122 502.864843,511.699565 C502.864843,504.016009 509.096955,497.787255 516.784653,497.787255 Z M611.165817,481.298656 C618.853516,481.298656 625.085627,487.527409 625.085627,495.210966 C625.085627,502.894523 618.853516,509.123276 611.165817,509.123276 C603.478118,509.123276 597.246007,502.894523 597.246007,495.210966 C597.246007,487.527409 603.478118,481.298656 611.165817,481.298656 Z M547.748376,463.852443 C555.436075,463.852443 561.668186,470.081196 561.668186,477.764753 C561.668186,485.448309 555.436075,491.677063 547.748376,491.677063 C540.060677,491.677063 533.828566,485.448309 533.828566,477.764753 C533.828566,470.081196 540.060677,463.852443 547.748376,463.852443 Z M1018.10152,451.936308 C1025.78922,451.936308 1032.02133,458.165061 1032.02133,465.848617 C1032.02133,473.532174 1025.78922,479.760927 1018.10152,479.760927 C1010.41382,479.760927 1004.18171,473.532174 1004.18171,465.848617 C1004.18171,458.165061 1010.41382,451.936308 1018.10152,451.936308 Z M28.7099562,451.571953 C36.3976551,451.571953 42.6297664,457.800706 42.6297664,465.484262 C42.6297664,473.167819 36.3976551,479.396572 28.7099562,479.396572 C21.0222573,479.396572 14.790146,473.167819 14.790146,465.484262 C14.790146,457.800706 21.0222573,451.571953 28.7099562,451.571953 Z M415.378809,430.91183 C423.066508,430.91183 429.298619,437.140584 429.298619,444.82414 C429.298619,452.507697 423.066508,458.73645 415.378809,458.73645 C407.69111,458.73645 401.458999,452.507697 401.458999,444.82414 C401.458999,437.140584 407.69111,430.91183 415.378809,430.91183 Z M1179.80881,435.732729 C1184.3563,435.732729 1188.04277,439.416873 1188.04277,443.961495 C1188.04277,448.506117 1184.3563,452.19026 1179.80881,452.19026 C1175.26132,452.19026 1171.57485,448.506117 1171.57485,443.961495 C1171.57485,439.416873 1175.26132,435.732729 1179.80881,435.732729 Z M1105.31108,426.328426 C1109.85857,426.328426 1113.54504,430.01257 1113.54504,434.557191 C1113.54504,439.101813 1109.85857,442.785957 1105.31108,442.785957 C1100.76359,442.785957 1097.07712,439.101813 1097.07712,434.557191 C1097.07712,430.01257 1100.76359,426.328426 1105.31108,426.328426 Z M782.5467,409.664286 C790.234399,409.664286 796.46651,415.89304 796.46651,423.576596 C796.46651,431.260153 790.234399,437.488906 782.5467,437.488906 C774.859001,437.488906 768.626889,431.260153 768.626889,423.576596 C768.626889,415.89304 774.859001,409.664286 782.5467,409.664286 Z M411.996033,396.648586 C419.683732,396.648586 425.915843,402.87734 425.915843,410.560896 C425.915843,418.244453 419.683732,424.473206 411.996033,424.473206 C404.308334,424.473206 398.076223,418.244453 398.076223,410.560896 C398.076223,402.87734 404.308334,396.648586 411.996033,396.648586 Z M762.268348,364.564254 C769.956047,364.564254 776.188159,370.793007 776.188159,378.476564 C776.188159,386.16012 769.956047,392.388874 762.268348,392.388874 C754.58065,392.388874 748.348538,386.16012 748.348538,378.476564 C748.348538,370.793007 754.58065,364.564254 762.268348,364.564254 Z M1200.19767,348.742922 C1205.61135,348.742922 1210,353.128807 1210,358.539071 C1210,363.949335 1205.61135,368.335221 1200.19767,368.335221 C1194.78399,368.335221 1190.39533,363.949335 1190.39533,358.539071 C1190.39533,353.128807 1194.78399,348.742922 1200.19767,348.742922 Z M961.921893,317.482621 C969.609592,317.482621 975.841703,323.711375 975.841703,331.394931 C975.841703,339.078488 969.609592,345.307241 961.921893,345.307241 C954.234194,345.307241 948.002083,339.078488 948.002083,331.394931 C948.002083,323.711375 954.234194,317.482621 961.921893,317.482621 Z M1152.11413,313.236964 C1159.80183,313.236964 1166.03394,319.465717 1166.03394,327.149274 C1166.03394,334.83283 1159.80183,341.061583 1152.11413,341.061583 C1144.42643,341.061583 1138.19432,334.83283 1138.19432,327.149274 C1138.19432,319.465717 1144.42643,313.236964 1152.11413,313.236964 Z M886.523007,319.746319 C891.070498,319.746319 894.756967,323.430463 894.756967,327.975085 C894.756967,332.519707 891.070498,336.203851 886.523007,336.203851 C881.975517,336.203851 878.289047,332.519707 878.289047,327.975085 C878.289047,323.430463 881.975517,319.746319 886.523007,319.746319 Z M706.24598,292.258941 C713.933679,292.258941 720.165791,298.487694 720.165791,306.171251 C720.165791,313.854807 713.933679,320.083561 706.24598,320.083561 C698.558281,320.083561 692.32617,313.854807 692.32617,306.171251 C692.32617,298.487694 698.558281,292.258941 706.24598,292.258941 Z M874.760207,271.157418 C880.173886,271.157418 884.562541,275.543303 884.562541,280.953567 C884.562541,286.363831 880.173886,290.749717 874.760207,290.749717 C869.346528,290.749717 864.957874,286.363831 864.957874,280.953567 C864.957874,275.543303 869.346528,271.157418 874.760207,271.157418 Z M654.501843,252.345993 C662.189542,252.345993 668.421653,258.574746 668.421653,266.258302 C668.421653,273.941859 662.189542,280.170612 654.501843,280.170612 C646.814144,280.170612 640.582033,273.941859 640.582033,266.258302 C640.582033,258.574746 646.814144,252.345993 654.501843,252.345993 Z M1060.78503,238.764714 C1068.47273,238.764714 1074.70484,244.993467 1074.70484,252.677024 C1074.70484,260.360581 1068.47273,266.589334 1060.78503,266.589334 C1053.09733,266.589334 1046.86522,260.360581 1046.86522,252.677024 C1046.86522,244.993467 1053.09733,238.764714 1060.78503,238.764714 Z M453.261128,208.54771 C460.948827,208.54771 467.180938,214.776464 467.180938,222.46002 C467.180938,222.465379 467.180935,222.470738 467.180929,222.476095 C467.186026,222.600462 467.1884,222.72538 467.1884,222.850852 C467.1884,223.602661 467.103163,224.334573 466.941821,225.03746 C465.732954,231.489808 460.067535,236.37233 453.261128,236.37233 C445.573429,236.37233 439.341318,230.143577 439.341318,222.46002 C439.341318,214.776464 445.573429,208.54771 453.261128,208.54771 Z M749.290343,217.866365 C753.837834,217.866365 757.524303,221.550509 757.524303,226.09513 C757.524303,230.639752 753.837834,234.323896 749.290343,234.323896 C744.742853,234.323896 741.056384,230.639752 741.056384,226.09513 C741.056384,221.550509 744.742853,217.866365 749.290343,217.866365 Z M897.50162,195.92299 C902.915299,195.92299 907.303953,200.308875 907.303953,205.719139 C907.303953,211.129403 902.915299,215.515289 897.50162,215.515289 C892.087941,215.515289 887.699287,211.129403 887.699287,205.719139 C887.699287,200.308875 892.087941,195.92299 897.50162,195.92299 Z M1095.11666,181.032843 C1100.53033,181.032843 1104.91899,185.418728 1104.91899,190.828992 C1104.91899,196.239256 1100.53033,200.625142 1095.11666,200.625142 C1089.70298,200.625142 1085.31432,196.239256 1085.31432,190.828992 C1085.31432,185.418728 1089.70298,181.032843 1095.11666,181.032843 Z M974.877239,155.849229 C982.564938,155.849229 988.797049,162.077982 988.797049,169.761539 C988.797049,177.445095 982.564938,183.673848 974.877239,183.673848 C967.18954,183.673848 960.957429,177.445095 960.957429,169.761539 C960.957429,162.077982 967.18954,155.849229 974.877239,155.849229 Z M899.462087,157.522084 C903.359936,157.522084 906.519767,160.679921 906.519767,164.575311 C906.519767,168.470701 903.359936,171.628539 899.462087,171.628539 C895.564238,171.628539 892.404407,168.470701 892.404407,164.575311 C892.404407,160.679921 895.564238,157.522084 899.462087,157.522084 Z M655.580039,110.500566 C661.643359,110.500566 666.558652,115.412758 666.558652,121.472254 C666.558652,127.531749 661.643359,132.443941 655.580039,132.443941 C649.516718,132.443941 644.601426,127.531749 644.601426,121.472254 C644.601426,115.412758 649.516718,110.500566 655.580039,110.500566 Z M840.834828,80.2668837 C848.522527,80.2668837 854.754638,86.495637 854.754638,94.1791936 C854.754638,101.86275 848.522527,108.091504 840.834828,108.091504 C833.147129,108.091504 826.915018,101.86275 826.915018,94.1791936 C826.915018,86.495637 833.147129,80.2668837 840.834828,80.2668837 Z M601.863253,76.801812 C607.276932,76.801812 611.665587,81.1876975 611.665587,86.5979615 C611.665587,92.0082255 607.276932,96.394111 601.863253,96.394111 C596.449574,96.394111 592.06092,92.0082255 592.06092,86.5979615 C592.06092,81.1876975 596.449574,76.801812 601.863253,76.801812 Z M526.581335,78.3691959 C531.128825,78.3691959 534.815295,82.0533398 534.815295,86.5979615 C534.815295,91.1425832 531.128825,94.8267271 526.581335,94.8267271 C522.033845,94.8267271 518.347375,91.1425832 518.347375,86.5979615 C518.347375,82.0533398 522.033845,78.3691959 526.581335,78.3691959 Z M845.745301,56.4258211 C850.292792,56.4258211 853.979261,60.1099649 853.979261,64.6545866 C853.979261,69.1992084 850.292792,72.8833522 845.745301,72.8833522 C841.197811,72.8833522 837.511342,69.1992084 837.511342,64.6545866 C837.511342,60.1099649 841.197811,56.4258211 845.745301,56.4258211 Z M295.999568,25.7655202 C303.687267,25.7655202 309.919378,31.9942735 309.919378,39.6778301 C309.919378,47.3613867 303.687267,53.59014 295.999568,53.59014 C288.311869,53.59014 282.079757,47.3613867 282.079757,39.6778301 C282.079757,31.9942735 288.311869,25.7655202 295.999568,25.7655202 Z M550.891121,27.4292186 C556.3048,27.4292186 560.693454,31.8151041 560.693454,37.2253681 C560.693454,42.635632 556.3048,47.0215176 550.891121,47.0215176 C545.477442,47.0215176 541.088788,42.635632 541.088788,37.2253681 C541.088788,31.8151041 545.477442,27.4292186 550.891121,27.4292186 Z M561.869734,0 C567.283413,0 571.672067,4.38588552 571.672067,9.79614949 C571.672067,15.2064135 567.283413,19.592299 561.869734,19.592299 C559.044106,19.592299 556.497719,18.3974796 554.708846,16.4858118 C552.839398,14.9555047 551.646513,12.6300958 551.646513,10.0262239 C551.646513,8.15907982 552.259873,6.43511633 553.296196,5.04462603 C554.969024,2.0356792 558.1815,0 561.869734,0 Z" filter="url(#h)"/></g></g></svg>