<!--
  ~ SPDX-FileCopyrightText: 2024 SAP SE or an SAP affiliate company and Juno contributors
  ~ SPDX-License-Identifier: Apache-2.0
-->

<svg xmlns="http://www.w3.org/2000/svg" width="510" height="90" viewBox="0 0 510 90" fill="none"><path d="M101.098 27.87c0-2.536.343-4.754 1.029-6.656.685-1.915 1.63-3.506 2.833-4.774a11.43 11.43 0 0 1 4.269-2.853c1.631-.621 3.371-.931 5.221-.931s3.447.233 4.793.699c1.358.453 2.516 1.1 3.474 1.941s1.727 1.824 2.309 2.95 1.029 2.348 1.339 3.668l-6.113 1.785a15.12 15.12 0 0 0-.834-2.309c-.311-.712-.693-1.313-1.145-1.805a4.76 4.76 0 0 0-1.611-1.145c-.621-.285-1.371-.427-2.251-.427-2.251 0-3.953.886-5.104 2.659-1.151 1.759-1.727 4.159-1.727 7.2 0 3.105.595 5.563 1.785 7.374s2.898 2.717 5.123 2.717c1.747 0 3.086-.524 4.018-1.572.931-1.061 1.662-2.6 2.192-4.619l6.075 1.358c-.376 1.475-.874 2.833-1.495 4.075-.621 1.229-1.429 2.29-2.425 3.183-.997.88-2.187 1.565-3.571 2.057-1.372.492-2.982.737-4.832.737-1.902 0-3.668-.31-5.298-.931a11.68 11.68 0 0 1-4.25-2.833c-1.19-1.255-2.122-2.84-2.795-4.754-.672-1.928-1.009-4.192-1.009-6.792zm28.605.039c0-2.562.388-4.8 1.164-6.715.789-1.928 1.824-3.519 3.105-4.774 1.281-1.268 2.756-2.212 4.425-2.833 1.682-.621 3.409-.931 5.181-.931a14.53 14.53 0 0 1 5.143.931c1.656.621 3.124 1.566 4.405 2.833 1.294 1.255 2.329 2.846 3.105 4.774.776 1.915 1.164 4.153 1.164 6.715 0 2.601-.388 4.858-1.164 6.773-.776 1.902-1.811 3.48-3.105 4.735-1.281 1.255-2.749 2.199-4.405 2.833a14.53 14.53 0 0 1-5.143.931c-1.772 0-3.499-.31-5.181-.931-1.669-.634-3.144-1.578-4.425-2.833s-2.316-2.833-3.105-4.735c-.776-1.915-1.164-4.172-1.164-6.773zm6.482 0c0 1.54.168 2.937.504 4.192.349 1.242.841 2.303 1.475 3.183a6.5 6.5 0 0 0 2.329 1.999c.918.453 1.947.679 3.085.679s2.161-.226 3.066-.679a6.5 6.5 0 0 0 2.329-1.999c.634-.88 1.126-1.941 1.475-3.183.349-1.255.524-2.652.524-4.192 0-3.092-.666-5.511-1.999-7.258-1.319-1.759-3.118-2.639-5.395-2.639-2.303 0-4.114.88-5.433 2.639-1.307 1.747-1.96 4.166-1.96 7.258zm25.926 14.709v-29.42h6.462l12.323 18.766h.078V13.199h5.977v29.42h-5.977l-12.828-18.921h-.077v18.921h-5.958zm28.546-29.419h6.56l6.714 21.036h.078l6.947-21.036h6.094L206.9 42.735h-6.113l-10.13-29.536zm30.099 29.419v-29.42h20.027v5.414h-13.564v6.326h9.819v5.123h-9.819v7.316h14.282v5.24h-20.745zm25.151 0v-29.42h11.042c1.798 0 3.409.168 4.832.505 1.436.336 2.652.873 3.648 1.611a7.19 7.19 0 0 1 2.29 2.853c.531 1.151.796 2.529.796 4.134 0 2.342-.524 4.172-1.572 5.492s-2.562 2.29-4.541 2.911l6.54 11.915h-6.831l-6.113-11.081h-3.746v11.081h-6.345zm6.345-16.088h4.425c1.876 0 3.26-.297 4.153-.893.906-.608 1.358-1.662 1.358-3.163 0-1.462-.452-2.49-1.358-3.085-.893-.595-2.277-.893-4.153-.893h-4.425v8.034zm19.892 1.262c0-2.303.31-4.386.931-6.249.621-1.876 1.507-3.467 2.659-4.774 1.151-1.32 2.555-2.335 4.211-3.047s3.519-1.067 5.589-1.067a16.19 16.19 0 0 1 3.939.466c1.242.298 2.374.815 3.396 1.553 1.023.724 1.915 1.688 2.678 2.892.777 1.203 1.398 2.704 1.863 4.502l-5.918 1.63c-.608-2.07-1.398-3.532-2.368-4.386-.957-.867-2.167-1.3-3.629-1.3-.608 0-1.307.117-2.096.349-.776.22-1.513.686-2.212 1.397-.699.699-1.294 1.675-1.785 2.93s-.738 2.917-.738 4.987.22 3.765.66 5.084c.453 1.32 1.022 2.367 1.708 3.144.698.763 1.462 1.3 2.29 1.611.841.297 1.656.446 2.445.446 1.617 0 2.956-.466 4.017-1.397 1.061-.944 1.74-2.238 2.038-3.881h-5.124V27.87h11.275v14.749h-5.201v-4.056h-.077c-.168.453-.453.944-.854 1.475-.388.53-.906 1.029-1.553 1.494s-1.41.854-2.289 1.164c-.867.323-1.857.485-2.97.485-2.238 0-4.165-.382-5.783-1.145-1.604-.776-2.936-1.85-3.997-3.221-1.061-1.384-1.844-3.008-2.348-4.871-.505-1.876-.757-3.927-.757-6.152zm31.671 14.826v-29.42h20.027v5.414h-13.565v6.326h9.819v5.123h-9.819v7.316h14.283v5.24h-20.745zm25.15 0v-29.42h9.024c2.251 0 4.334.252 6.248.757 1.928.505 3.591 1.332 4.988 2.484 1.41 1.152 2.51 2.659 3.299 4.522.802 1.85 1.203 4.114 1.203 6.792 0 2.756-.408 5.084-1.223 6.986-.802 1.889-1.914 3.416-3.337 4.58s-3.086 2.005-4.988 2.523-3.965.776-6.19.776h-9.024zm6.423-5.24h3.028c1.591 0 2.949-.188 4.075-.563s2.038-.945 2.736-1.708c.712-.763 1.223-1.746 1.533-2.95.324-1.216.485-2.659.485-4.328 0-3.131-.685-5.447-2.057-6.947-1.358-1.514-3.642-2.271-6.85-2.271h-2.95v18.766zm32.311-9.508c0-2.536.343-4.754 1.029-6.656.686-1.915 1.63-3.506 2.833-4.774 1.216-1.281 2.639-2.232 4.27-2.853s3.37-.931 5.22-.931 3.448.233 4.793.699c1.359.453 2.516 1.1 3.474 1.941s1.727 1.824 2.309 2.95 1.029 2.348 1.339 3.668l-6.113 1.785a15.12 15.12 0 0 0-.834-2.309c-.311-.712-.692-1.313-1.145-1.805a4.76 4.76 0 0 0-1.611-1.145c-.621-.285-1.371-.427-2.251-.427-2.251 0-3.952.886-5.104 2.659-1.151 1.759-1.727 4.159-1.727 7.2 0 3.105.595 5.563 1.785 7.374s2.898 2.717 5.124 2.717c1.746 0 3.085-.524 4.017-1.572.931-1.061 1.662-2.6 2.193-4.619l6.074 1.358c-.375 1.475-.874 2.833-1.495 4.075-.621 1.229-1.429 2.29-2.425 3.183-.997.88-2.187 1.565-3.571 2.057-1.371.492-2.982.737-4.832.737-1.902 0-3.668-.31-5.298-.931a11.68 11.68 0 0 1-4.25-2.833c-1.19-1.255-2.122-2.84-2.794-4.754-.673-1.928-1.01-4.192-1.01-6.792zm30.39 14.748v-29.42h6.463v24.18h12.963v5.24h-19.426zm20.881-14.709c0-2.562.389-4.8 1.165-6.715.789-1.928 1.824-3.519 3.105-4.774a12.34 12.34 0 0 1 4.424-2.833c1.682-.621 3.409-.931 5.182-.931s3.486.31 5.142.931 3.125 1.566 4.406 2.833c1.293 1.255 2.328 2.846 3.105 4.774.776 1.915 1.164 4.153 1.164 6.715 0 2.601-.388 4.858-1.164 6.773-.777 1.902-1.812 3.48-3.105 4.735a12.75 12.75 0 0 1-4.406 2.833c-1.656.621-3.37.931-5.142.931a14.85 14.85 0 0 1-5.182-.931 12.7 12.7 0 0 1-4.424-2.833c-1.281-1.255-2.316-2.833-3.105-4.735-.776-1.915-1.165-4.172-1.165-6.773zm6.482 0c0 1.54.168 2.937.505 4.192.349 1.242.84 2.303 1.474 3.183.634.867 1.411 1.533 2.329 1.999.919.453 1.947.679 3.086.679s2.16-.226 3.066-.679c.918-.466 1.695-1.132 2.329-1.999.634-.88 1.125-1.941 1.474-3.183.35-1.255.524-2.652.524-4.192 0-3.092-.666-5.511-1.998-7.258-1.32-1.759-3.118-2.639-5.395-2.639-2.303 0-4.114.88-5.434 2.639-1.307 1.747-1.96 4.166-1.96 7.258zm25.325 3.454V13.199h6.482v18.009c0 2.148.427 3.791 1.28 4.929.867 1.139 2.271 1.708 4.212 1.708 1.901 0 3.273-.569 4.114-1.708.854-1.139 1.28-2.781 1.28-4.929V13.199h6.366v18.125c0 1.811-.233 3.448-.699 4.91-.466 1.449-1.184 2.685-2.154 3.706-.957 1.022-2.186 1.805-3.687 2.348s-3.273.815-5.317.815c-2.032 0-3.798-.272-5.298-.815s-2.743-1.326-3.726-2.348c-.971-1.022-1.689-2.251-2.154-3.687-.466-1.449-.699-3.079-.699-4.89zM480.1 42.618v-29.42h9.023c2.252 0 4.334.252 6.249.757 1.928.505 3.59 1.332 4.988 2.484 1.41 1.152 2.509 2.659 3.299 4.522.802 1.85 1.203 4.114 1.203 6.792 0 2.756-.408 5.084-1.223 6.986-.802 1.889-1.915 3.416-3.338 4.58s-3.085 2.005-4.987 2.523-3.965.776-6.191.776H480.1zm6.423-5.24h3.027c1.592 0 2.95-.188 4.076-.563s2.037-.945 2.736-1.708c.711-.763 1.223-1.746 1.533-2.95.323-1.216.485-2.659.485-4.328 0-3.131-.686-5.447-2.057-6.947-1.358-1.514-3.642-2.271-6.85-2.271h-2.95v18.766z" fill="#fff"/><path d="M102.326 77.235V52.05h5.515v25.185h-5.515zm10.482 0V59.094h5.482v2.857a9.47 9.47 0 0 1 .981-1.096 7.28 7.28 0 0 1 1.362-1.03 7.62 7.62 0 0 1 1.744-.781c.654-.21 1.379-.316 2.176-.316.765 0 1.468.105 2.11.316.654.199 1.213.51 1.678.93s.825.964 1.08 1.628c.266.664.399 1.462.399 2.392v13.24h-5.449V65.739c0-.82-.166-1.44-.499-1.861-.321-.421-.869-.631-1.644-.631a4.37 4.37 0 0 0-2.06.515c-.643.343-1.268.775-1.878 1.296v12.177h-5.482zm19.603-14.154v-3.987h3.024v-1.246a10.99 10.99 0 0 1 .216-2.193 4.43 4.43 0 0 1 .914-1.91c.454-.554 1.09-.997 1.91-1.329.831-.332 1.916-.498 3.256-.498l.914.033 1.013.067.881.083.498.066v3.804c-.144-.044-.382-.078-.714-.1l-.881-.033a6.93 6.93 0 0 0-.98.067c-.31.044-.587.144-.831.299-.232.144-.415.365-.548.664-.133.288-.199.67-.199 1.146v1.08h3.937v3.987h-3.937v14.154h-5.449V63.081h-3.024zm15.184 14.154V59.094h5.483v3.04h.033a8.98 8.98 0 0 1 .897-1.179 6.33 6.33 0 0 1 1.263-1.08c.487-.332 1.052-.604 1.694-.814.653-.221 1.407-.332 2.259-.332h.183l-.083 4.868a6.38 6.38 0 0 0-.664-.066l-.765-.033c-1.085 0-2.032.249-2.84.748-.798.498-1.457 1.074-1.977 1.728v11.263h-5.483zm12.659-4.635c0-2.082.92-3.71 2.758-4.884 1.839-1.185 4.751-1.938 8.738-2.259v-.432c0-.665-.188-1.191-.564-1.578-.366-.399-.992-.598-1.878-.598-1.151 0-2.226.21-3.223.631-.985.41-1.893.947-2.724 1.611l-2.326-3.14c.454-.399.969-.792 1.545-1.179.587-.388 1.241-.731 1.96-1.03.731-.31 1.557-.554 2.476-.731.919-.188 1.943-.282 3.073-.282 2.492 0 4.281.604 5.366 1.811 1.097 1.196 1.645 2.963 1.645 5.299v6.977l.116 2.691c.078.698.21 1.274.399 1.728h-5.449l-.299-1.229c-.078-.432-.117-.908-.117-1.429-.83.952-1.755 1.678-2.774 2.176-1.008.498-2.187.748-3.538.748-.709 0-1.379-.105-2.011-.316a5.15 5.15 0 0 1-1.644-.947c-.476-.421-.853-.936-1.13-1.545-.266-.62-.399-1.318-.399-2.093zm5.35-.947c0 .587.182 1.025.548 1.312.376.288.864.432 1.462.432.952 0 1.766-.149 2.442-.449.687-.299 1.251-.676 1.694-1.13v-3.356c-2.17.222-3.737.598-4.701 1.13s-1.445 1.218-1.445 2.06zm14.154 3.173l2.176-3.073c.82.731 1.794 1.307 2.924 1.728 1.141.421 2.265.631 3.372.631.864 0 1.562-.15 2.094-.448s.797-.742.797-1.329c0-.631-.26-1.096-.781-1.395s-1.406-.559-2.658-.781l-2.575-.532a8.23 8.23 0 0 1-2.276-.93 5.04 5.04 0 0 1-1.628-1.611c-.421-.676-.631-1.545-.631-2.608 0-.908.177-1.717.531-2.425a5.12 5.12 0 0 1 1.479-1.811c.631-.488 1.373-.858 2.226-1.113.853-.266 1.789-.399 2.808-.399 1.86 0 3.4.227 4.618.681 1.229.454 2.342 1.074 3.339 1.861l-2.143 3.107c-.93-.631-1.838-1.119-2.724-1.462-.875-.343-1.745-.515-2.609-.515-.797 0-1.406.144-1.827.432-.421.277-.631.665-.631 1.163 0 .543.254.953.764 1.229.52.277 1.346.515 2.475.714l2.658.548c.886.199 1.673.498 2.359.897a4.92 4.92 0 0 1 1.678 1.595c.432.653.648 1.49.648 2.508 0 1.085-.221 2.021-.664 2.808a5.45 5.45 0 0 1-1.778 1.91c-.731.487-1.578.842-2.542 1.063-.963.233-1.966.349-3.007.349-1.993 0-3.671-.266-5.033-.797-1.363-.543-2.509-1.207-3.439-1.993zm17.609-11.745v-3.987h3.024v-6.213h5.449v6.213h4.651v3.987h-4.651v7.858c0 .975.166 1.645.498 2.01.344.366 1.014.548 2.01.548.322 0 .654-.017.997-.05.355-.033.626-.089.814-.166v3.921c-.111.022-.304.05-.581.083l-.947.083-1.08.066-.997.033c-1.34 0-2.42-.116-3.239-.349-.82-.244-1.446-.593-1.878-1.047-.42-.454-.703-1.008-.847-1.661-.133-.653-.199-1.412-.199-2.276V63.08h-3.024zm16.082 14.154V59.094h5.482v3.04h.033a8.98 8.98 0 0 1 .897-1.179 6.33 6.33 0 0 1 1.263-1.08c.487-.332 1.052-.604 1.694-.814.654-.221 1.407-.332 2.259-.332h.183l-.083 4.868a6.38 6.38 0 0 0-.664-.066l-.765-.033c-1.085 0-2.032.249-2.84.748-.798.498-1.457 1.074-1.977 1.728v11.263h-5.482zm14.22-4.901v-13.24h5.466V70.74c0 .82.166 1.445.498 1.877.332.421.881.631 1.645.631a4.31 4.31 0 0 0 2.06-.515 11.02 11.02 0 0 0 1.894-1.312V59.094h5.482v18.141h-5.482v-2.824a14.29 14.29 0 0 1-.997 1.097c-.377.376-.825.72-1.346 1.03s-1.107.565-1.761.764c-.642.21-1.362.316-2.159.316a7.26 7.26 0 0 1-2.127-.299 4.23 4.23 0 0 1-1.678-.93c-.476-.432-.847-.98-1.113-1.645-.255-.676-.382-1.478-.382-2.409zm20.218-4.153c0-1.816.288-3.328.864-4.535.576-1.218 1.312-2.187 2.209-2.907a8.07 8.07 0 0 1 2.957-1.545c1.075-.31 2.11-.465 3.107-.465 1.229 0 2.287.155 3.173.465.886.299 1.634.703 2.243 1.213a6.58 6.58 0 0 1 1.495 1.777c.387.665.72 1.362.997 2.093l-4.602 1.528c-.366-1.163-.82-1.96-1.362-2.392-.543-.443-1.213-.665-2.011-.665-1.107 0-1.988.46-2.641 1.379-.642.908-.964 2.27-.964 4.087 0 .82.067 1.567.2 2.243.144.665.354 1.246.631 1.744a3.27 3.27 0 0 0 1.097 1.163c.443.266.98.399 1.611.399.731 0 1.412-.233 2.043-.698s1.141-1.307 1.529-2.525l4.535 1.562c-.299.698-.67 1.384-1.113 2.06-.443.665-.991 1.251-1.645 1.761-.642.51-1.412.919-2.309 1.229-.886.31-1.932.465-3.14.465-1.063 0-2.126-.161-3.189-.482a7.89 7.89 0 0 1-2.858-1.578c-.841-.742-1.528-1.711-2.06-2.907-.531-1.207-.797-2.697-.797-4.469zm18.324-5.1v-3.987h3.023v-6.213h5.449v6.213h4.652v3.987h-4.652v7.858c0 .975.166 1.645.499 2.01.343.366 1.013.548 2.01.548a10.38 10.38 0 0 0 .997-.05c.354-.033.625-.089.814-.166v3.921c-.111.022-.305.05-.582.083l-.947.083-1.08.066-.996.033c-1.34 0-2.42-.116-3.24-.349-.819-.244-1.445-.593-1.877-1.047-.421-.454-.703-1.008-.847-1.661-.133-.653-.2-1.412-.2-2.276V63.08h-3.023zm15.915 9.253v-13.24h5.465V70.74c0 .82.167 1.445.499 1.877.332.421.88.631 1.644.631.731 0 1.418-.172 2.06-.515a11 11 0 0 0 1.894-1.312V59.094h5.483v18.141h-5.483v-2.824c-.277.343-.609.709-.996 1.097-.377.376-.826.72-1.346 1.03s-1.108.565-1.761.764c-.642.21-1.362.316-2.16.316-.764 0-1.473-.1-2.126-.299a4.23 4.23 0 0 1-1.678-.93c-.476-.432-.847-.98-1.113-1.645-.255-.676-.382-1.478-.382-2.409zm21.198 4.901V59.094h5.482v3.04h.033a8.98 8.98 0 0 1 .897-1.179c.354-.398.776-.759 1.263-1.08.487-.332 1.052-.604 1.694-.814.654-.221 1.407-.332 2.26-.332h.182l-.083 4.868a6.31 6.31 0 0 0-.664-.066l-.764-.033c-1.086 0-2.033.249-2.841.748-.798.498-1.456 1.074-1.977 1.728v11.263h-5.482zm12.609-9.054c0-1.772.299-3.256.897-4.452.598-1.207 1.351-2.176 2.259-2.907.908-.742 1.894-1.274 2.957-1.595 1.064-.332 2.06-.498 2.991-.498s1.888.144 2.874.432c.996.277 1.894.792 2.691 1.545.808.742 1.473 1.767 1.993 3.073s.781 2.99.781 5.05v.814h-12.011c.144 1.495.593 2.564 1.346 3.206.764.631 1.722.947 2.874.947a7.05 7.05 0 0 0 3.04-.665c.941-.443 1.722-.947 2.342-1.512l2.11 3.273c-2.137 1.816-4.768 2.724-7.891 2.724-1.185 0-2.337-.166-3.455-.498-1.108-.332-2.093-.864-2.957-1.595-.853-.742-1.54-1.711-2.06-2.907-.521-1.207-.781-2.686-.781-4.436zm5.499-1.761h7.044c-.266-2.525-1.424-3.788-3.473-3.788-.852 0-1.611.299-2.275.897-.654.587-1.086 1.55-1.296 2.891zm24.288 10.815V52.05h5.482v9.835c.587-.831 1.329-1.562 2.226-2.193.897-.642 2.016-.963 3.356-.963 1.019 0 1.954.199 2.807.598a5.89 5.89 0 0 1 2.21 1.778c.62.775 1.096 1.755 1.428 2.941.344 1.174.515 2.542.515 4.103s-.171 2.929-.515 4.103c-.332 1.163-.814 2.138-1.445 2.924-.62.786-1.362 1.373-2.226 1.761-.853.376-1.805.565-2.857.565-1.219 0-2.271-.205-3.157-.615a7.16 7.16 0 0 1-2.342-1.794v2.143h-5.482zm5.482-5.515c.587.565 1.157.986 1.711 1.263s1.196.415 1.927.415c1.152 0 2.01-.454 2.575-1.362.576-.908.864-2.193.864-3.854 0-1.517-.283-2.719-.847-3.605-.554-.886-1.44-1.329-2.658-1.329-.709 0-1.368.183-1.977.548a8.21 8.21 0 0 0-1.595 1.229v6.695zm12.709 11.811l1.146-4.22 1.296.282c.609.133 1.323.199 2.143.199.587 0 1.063-.122 1.428-.366.366-.233.659-.637.881-1.213l.349-.88-6.944-18.241h5.648l3.987 11.778h.066l4.004-11.778h5.316l-7.625 20.052c-.31.786-.653 1.484-1.03 2.093a6.73 6.73 0 0 1-1.329 1.595c-.509.443-1.107.775-1.794.997-.676.233-1.468.349-2.376.349-1.362 0-2.447-.078-3.256-.233l-1.91-.415zm29.703-12.011l4.187-2.492c.697 1.384 1.639 2.448 2.824 3.19 1.196.731 2.52 1.096 3.97 1.096 1.296 0 2.348-.238 3.157-.714.819-.476 1.229-1.202 1.229-2.176 0-.953-.437-1.683-1.312-2.193-.864-.51-2.127-.991-3.788-1.445l-3.339-.98c-1.086-.343-2.066-.792-2.941-1.346a6.85 6.85 0 0 1-2.109-2.11c-.532-.853-.798-1.938-.798-3.256 0-1.174.222-2.226.665-3.156a6.75 6.75 0 0 1 1.844-2.359c.797-.653 1.75-1.146 2.857-1.479 1.119-.343 2.359-.515 3.721-.515 1.296 0 2.459.144 3.489.432 1.03.277 1.955.653 2.774 1.13a9.83 9.83 0 0 1 2.143 1.661c.61.62 1.141 1.268 1.595 1.944l-3.837 2.924a7.41 7.41 0 0 0-2.675-2.592c-1.119-.653-2.293-.98-3.522-.98-1.174 0-2.076.233-2.708.698-.62.465-.93 1.074-.93 1.827 0 .997.448 1.739 1.346 2.226s2.17.958 3.82 1.412l3.306.997c1.086.354 2.06.82 2.924 1.395a6.94 6.94 0 0 1 2.093 2.16c.532.864.798 1.944.798 3.24a7.22 7.22 0 0 1-.598 2.907c-.399.919-1.008 1.733-1.828 2.442-.808.698-1.849 1.257-3.123 1.678-1.262.421-2.769.631-4.518.631-1.363 0-2.603-.155-3.722-.465-1.107-.31-2.104-.736-2.99-1.279-.875-.543-1.645-1.191-2.309-1.944-.654-.764-1.218-1.6-1.695-2.509zm21.946 5.715l8.904-25.285h5.283l8.905 25.285h-5.616l-1.86-5.615h-8.572l-1.944 5.615h-5.1zm8.406-9.635h5.914l-2.891-8.572h-.066l-2.957 8.572zm17.859 9.635V52.05h9.153c1.329 0 2.614.111 3.854.332 1.241.21 2.337.62 3.29 1.229.952.598 1.711 1.418 2.276 2.459s.847 2.392.847 4.053c0 1.694-.299 3.073-.897 4.137-.598 1.052-1.396 1.877-2.392 2.475-.986.598-2.099 1.008-3.34 1.229a22.01 22.01 0 0 1-3.721.316h-3.572v8.954h-5.498zm5.498-13.24h3.788c1.717 0 2.93-.316 3.638-.947.72-.631 1.08-1.562 1.08-2.791 0-1.174-.354-2.077-1.063-2.708-.698-.642-1.916-.964-3.655-.964h-3.788v7.409zM7.8 4.157c-1.416 0-2.564 1.148-2.564 2.564v76.923c0 1.416 1.148 2.564 2.564 2.564h11.55c-2.815-3.512-4.499-7.969-4.499-12.82a20.52 20.52 0 0 1 17.955-20.355 21.97 21.97 0 0 1 21.812-19.389c7.781 0 14.617 4.047 18.518 10.15 1.537-.319 3.129-.487 4.761-.487 3.342 0 6.519.704 9.391 1.972V6.721c0-1.416-1.148-2.564-2.564-2.564H7.8zm79.488 46.894c-2.74-1.66-5.954-2.615-9.391-2.615-1.279 0-2.522.132-3.717.38l-3.461.719-1.904-2.979c-2.999-4.691-8.238-7.784-14.197-7.784A16.84 16.84 0 0 0 37.9 53.627l-.466 3.998-3.994.497a15.39 15.39 0 0 0-13.46 15.266c0 5.348 2.731 10.063 6.875 12.82h57.869c1.416 0 2.564-1.148 2.564-2.564V51.051z" fill="#f0ab00"/></svg>