<!--
  ~ SPDX-FileCopyrightText: 2024 SAP SE or an SAP affiliate company and Juno contributors
  ~ SPDX-License-Identifier: Apache-2.0
-->

<svg xmlns="http://www.w3.org/2000/svg" width="64" height="38" viewBox="0 0 64 38">
  <g fill="none">
    <path fill="#CB001C" d="M0 35.085h64V38H0z"/>
    <path fill="#FFF" d="M0 32.171h64v2.915H0z"/>
    <path fill="#CB001C" d="M0 29.219h64v2.915H0z"/>
    <path fill="#FFF" d="M0 26.305h64v2.915H0z"/>
    <path fill="#CB001C" d="M0 23.39h64v2.915H0z"/>
    <path fill="#FFF" d="M0 20.476h64v2.915H0z"/>
    <path fill="#CB001C" d="M0 17.524h64v2.915H0z"/>
    <path fill="#FFF" d="M0 14.61h64v2.915H0z"/>
    <path fill="#CB001C" d="M0 11.695h64v2.915H0z"/>
    <path fill="#FFF" d="M0 8.781h64v2.915H0z"/>
    <path fill="#CB001C" d="M0 5.829h64v2.915H0z"/>
    <path fill="#FFF" d="M0 2.915h64V5.83H0z"/>
    <path fill="#CB001C" d="M0 0h64v2.915H0z"/>
    <path fill="#2A3560" d="M0 0h29.21v20.476H0z"/>
    <path fill="#FFF" d="m2.646 2.25.253.775h.797l-.652.48.254.775-.652-.48-.653.48.254-.775-.652-.48h.797zM2.646 5.682l.253.774h.797l-.652.48.254.775-.652-.48-.653.48.254-.775-.652-.48h.797zM2.646 9.076l.253.774h.797l-.652.48.254.775-.652-.48-.653.48.254-.775-.652-.48h.797zM2.646 12.507l.253.775h.797l-.652.479.254.775-.652-.48-.653.48.254-.775-.652-.479h.797zM2.646 15.901l.253.775h.797l-.652.479.254.775-.652-.48-.653.48.254-.775-.652-.479h.797zM4.965 4.058l.254.775h.797l-.652.48.253.774-.652-.479-.616.479.217-.774-.652-.48h.833zM4.965 7.452l.254.775h.797l-.652.48.253.775-.652-.443-.616.443.217-.775-.652-.48h.833zM4.965 10.883l.254.775h.797l-.652.48.253.775-.652-.48-.616.48.217-.775-.652-.48h.833zM4.965 14.315l.254.774h.797l-.652.48.253.738-.652-.48-.616.48.217-.738-.652-.48h.833zM7.32 2.25l.254.775h.797l-.616.48.254.775-.689-.48-.616.48.254-.775-.652-.48h.797zM7.32 5.682l.254.774h.797l-.616.48.254.775-.689-.48-.616.48.254-.775-.652-.48h.797zM7.32 9.076l.254.774h.797l-.616.48.254.775-.689-.48-.616.48.254-.775-.652-.48h.797zM7.32 12.507l.254.775h.797l-.616.479.254.775-.689-.48-.616.48.254-.775-.652-.479h.797zM7.32 15.901l.254.775h.797l-.616.479.254.775-.689-.48-.616.48.254-.775-.652-.479h.797zM9.676 4.058l.254.775h.797l-.652.48.253.774-.652-.479-.652.479.253-.774-.652-.48h.797zM9.676 7.452l.254.775h.797l-.652.48.253.775-.652-.443-.652.443.253-.775-.652-.48h.797zM9.676 10.883l.254.775h.797l-.652.48.253.775-.652-.48-.652.48.253-.775-.652-.48h.797zM9.676 14.315l.254.774h.797l-.652.48.253.738-.652-.48-.652.48.253-.738-.652-.48h.797zM12.032 2.25l.253.775h.798l-.653.48.254.775-.652-.48-.616.48.217-.775-.616-.48h.797zM12.032 5.682l.253.774h.798l-.653.48.254.775-.652-.48-.616.48.217-.775-.616-.48h.797zM12.032 9.076l.253.774h.798l-.653.48.254.775-.652-.48-.616.48.217-.775-.616-.48h.797zM12.032 12.507l.253.775h.798l-.653.479.254.775-.652-.48-.616.48.217-.775-.616-.479h.797zM12.032 15.901l.253.775h.798l-.653.479.254.775-.652-.48-.616.48.217-.775-.616-.479h.797zM14.387 4.058l.254.775h.797l-.652.48.254.774-.653-.479-.652.479.254-.774-.653-.48h.798zM14.387 7.452l.254.775h.797l-.652.48.254.775-.653-.443-.652.443.254-.775-.653-.48h.798zM14.387 10.883l.254.775h.797l-.652.48.254.775-.653-.48-.652.48.254-.775-.653-.48h.798zM14.387 14.315l.254.774h.797l-.652.48.254.738-.653-.48-.652.48.254-.738-.653-.48h.798zM16.743 2.25l.254.775h.797l-.652.48.253.775-.652-.48-.652.48.253-.775-.652-.48h.797zM16.743 5.682l.254.774h.797l-.652.48.253.775-.652-.48-.652.48.253-.775-.652-.48h.797zM16.743 9.076l.254.774h.797l-.652.48.253.775-.652-.48-.652.48.253-.775-.652-.48h.797zM16.743 12.507l.254.775h.797l-.652.479.253.775-.652-.48-.652.48.253-.775-.652-.479h.797zM16.743 15.901l.254.775h.797l-.652.479.253.775-.652-.48-.652.48.253-.775-.652-.479h.797zM19.099 4.058l.217.775h.833l-.652.48.218.774-.616-.479-.653.479.254-.774-.652-.48h.797zM19.099 7.452l.217.775h.833l-.652.48.218.775-.616-.443-.653.443.254-.775-.652-.48h.797zM19.099 10.883l.217.775h.833l-.652.48.218.775-.616-.48-.653.48.254-.775-.652-.48h.797zM19.099 14.315l.217.774h.833l-.652.48.218.738-.616-.48-.653.48.254-.738-.652-.48h.797zM21.454 2.25l.254.775h.797l-.652.48.253.775-.652-.48-.652.48.253-.775-.652-.48h.797zM21.454 5.682l.254.774h.797l-.652.48.253.775-.652-.48-.652.48.253-.775-.652-.48h.797zM21.454 9.076l.254.774h.797l-.652.48.253.775-.652-.48-.652.48.253-.775-.652-.48h.797zM21.454 12.507l.254.775h.797l-.652.479.253.775-.652-.48-.652.48.253-.775-.652-.479h.797zM21.454 15.901l.254.775h.797l-.652.479.253.775-.652-.48-.652.48.253-.775-.652-.479h.797zM23.773 4.058l.254.775h.797l-.616.48.218.774-.653-.479-.652.479.254-.774-.616-.48h.797zM23.773 7.452l.254.775h.797l-.616.48.218.775-.653-.443-.652.443.254-.775-.616-.48h.797zM23.773 10.883l.254.775h.797l-.616.48.218.775-.653-.48-.652.48.254-.775-.616-.48h.797zM23.773 14.315l.254.774h.797l-.616.48.218.738-.653-.48-.652.48.254-.738-.616-.48h.797zM26.165 2.25l.254.775h.761l-.616.48.254.775-.653-.48-.652.48.254-.775-.653-.48h.798zM26.165 5.682l.254.774h.761l-.616.48.254.775-.653-.48-.652.48.254-.775-.653-.48h.798zM26.165 9.076l.254.774h.761l-.616.48.254.775-.653-.48-.652.48.254-.775-.653-.48h.798zM26.165 12.507l.254.775h.761l-.616.479.254.775-.653-.48-.652.48.254-.775-.653-.479h.798zM26.165 15.901l.254.775h.761l-.616.479.254.775-.653-.48-.652.48.254-.775-.653-.479h.798z"/>
  </g>
</svg>
