<!--
  ~ SPDX-FileCopyrightText: 2024 SAP SE or an SAP affiliate company and Juno contributors
  ~ SPDX-License-Identifier: Apache-2.0
-->

<svg xmlns="http://www.w3.org/2000/svg" width="64" height="38" viewBox="0 0 64 38">
  <g fill="none">
    <path fill="#3D9635" d="M0 0h64v37.471H0z"/>
    <g fill="#FFF">
      <path d="M18.095 10.706c0 .956-.19 2.485.572 2.485.952 0 .38-1.53.762-1.72 0-.192.19-.192.19 0v1.338c0 .382.19.573.572.573.19 0 .38 0 .571.191 0 .765 0 1.53.19 2.295 0 0 .572.19.572-1.339 0-.956-.19-1.53 0-1.72 0-.191.19-.191.38 0 .191.19.382.382.763.19.571-.19.952-.381.952-.764 0-.382 0-.764-.19-1.147 0 0-.19-.191 0-.382.19.191.19.191.19 0 0-.383-.19-.574-.38-.765-.191-.191-.572-.191-.572.191 0 .383.19.956.38 1.339 0 .19.191.382.191.573h-.38l-.382-.382c.19-.765 0-.765 0-1.147 0-.192-.19-.383-.38-.574-.191-.191-.191-.191-.382 0a1.147 1.147 0 0 0-.571 1.53c.19.382.19.573.19.573 0 .191-.19.191-.19 0-.19-.573-.19-1.147-.19-1.53 0-.382 0-1.146-.381-1.146-.19-.192-.381 0-.381 0v.955c.19.574.19.956.19 1.53 0 .765-.38.382-.38 0 .19-.382 0-1.147 0-1.338 0-.192-.191-.192-.382-.192-.19 0-.571.383-.571.956 0 0 0 .383-.19.574 0 .382-.191.573-.382 0 0-.382-.19-1.53-.38-1.147"/>
      <path d="m20.572 14.147-2.286 1.147c0-.573 1.143-1.53 1.905-1.53.38 0 .19.192.38.383m2.858-4.97s0 .19 0 0c-.381.19-.572.19-.381.573.19 1.338.38 2.485.571 3.823 0 .192-.19.383-.19.383-.381-.191-.381-.574-.953-.574-.38 0-.762.383-.762.765v.956c.19.382.572.191.762.191.19 0 .381-.382.572-.191 0 0 0 .765-.953 1.338-.571.191-1.142.382-1.333-.191-.19-.382 0-1.53-.38-1.338-1.144 3.25 2.856 3.632 3.428.19 0-.19.19-.19.19-.19v.19c0 3.25-3.238 3.442-3.619 2.295-.19-.191-.19-.765-.19-1.147 0-.191 0-.382-.19-.382-.191 0-.382.19-.382.573v.765c.19 2.485 4.19 1.53 4.762-.574.381-1.147 0-1.911.19-1.911.382.382.953 0 1.143 0 0 0 .19-.192.19 0 .382.19.763.19.953-.192-.19-.573-.19-.956-.19-1.338-.19 0-.381.191-.381.191v.383h-.19c0-.383-.572-.574-.763.19-.19.192-.38.192-.571 0 0-.573-.19-.573-.571-.382-.19-.955-.19-1.72-.381-2.676.19 0 .38.191.38 0 0-.574-.38-1.53-.761-1.72.19.19.19.19 0 0 .19.19.19.19 0 0 .19 0 .19 0 0 0 .19 0 .19 0 0 0 .19 0 0 0 0 0m-.953 4.97s.19 0 .19.191v.191h-.19s-.19 0-.19-.19c-.19 0 0 0 .19-.192-.19 0-.19 0 0 0-.19 0-.19 0 0 0-.19 0-.19 0 0 0"/>
      <path d="M26.286 9.176h-.19c-.191.192-.191.574 0 .765.19 0 .38.191.19.382-.381.383-1.524 1.339-1.714 1.339h.952c.19 0 1.333-1.53 1.333-1.53s-.19 0-.19-.19V9.75c.38-.191.19-.574 0-.765-.19.191-.381.191-.381.191m0 .383s.19 0 .19.19v.192s-.19 0-.19-.191c-.19 0-.19-.191 0-.191m-8 6.882c-.381.765-.572 1.72-.19 2.103.19.191.38.191.57.191.191-.19.382-.764.382-.956 0-.19-.19-.19-.19 0-.382.383-.572 0-.572-.19V16.44c.19-.191 0-.191 0 0m18.667-1.147c-.381-.956-.953-1.912-1.143-2.103-.19-.382-1.524-2.485-1.715-2.676-.38-.574.762.19-.19-.765l-.572-.574c-.19-.19-.571-.19-.571 0v.574c0 .191.19.382.381.573 1.524 1.912 2.667 3.824 4 6.31 0 0 0-1.148-.19-1.339"/>
      <path d="M35.048 18.353s.19.573.571.573c.572 0 1.143-.382 1.714-1.338.191-.191.381-.765.381-.956 0-2.103-.19-3.823-.38-5.353v-.382s.19 0 .19-.191c.19-.191-.19-.956-.571-1.338 0-.192-.191-.192-.191 0-.19.19-.19.573-.19.955.38 2.103.38 3.824.571 5.927 0 .191 0 .573-.19.573-.381.574-.953 1.339-1.905 1.53m8.571 0c-.38.191-.38.573 0 .573.572 0 1.334-.19 1.905-.955 0-.192.19-.765.19-1.148 0-2.102 0-4.205-.38-5.735v-.573c0-.192.19 0 .38-.192 0 .192-.571-.764-.761-1.147 0-.19-.191-.19-.191 0-.19.192-.19.574-.19.956.38 2.294.571 4.397.571 6.5 0 .191 0 .383-.19.574-.191.191-.381.573-.572.765-.19.19-.571.382-.762.382"/>
      <path d="M44 16.441v-1.338c0-.382-.19-1.912-.19-2.103 0-.382-.19-.765-.19-1.147 0-.191-.191-.574 0-.765 0-.191.19 0 .19-.191s-.572-1.338-.762-1.72c0-.192-.19-.192-.381.19-.19.192-.19.574 0 .956.38 2.295.762 4.78.762 7.074-.19 0 .571-.765.571-.956m-3.428-3.059c-.19 0-.953-.573-1.143-.956v-.382c.19 0 .19-.191.38 0l.191.191h.19v-.382c0-.382.382-.382.572-.191.19.19.19.382.19.573 0 .191-.19 0-.19 0l-.19.191v.956m-5.143 3.633v-2.677c0-.956-.19-2.867-.19-3.25 0-.573.19 0 .19-.382-.19-.574-.381-.956-.762-1.53-.19-.19-.19-.19-.381 0-.19.574 0 .765 0 1.147.19 1.339.38 2.486.571 3.633 0 1.147.19 2.485 0 3.823 0 0 .381-.382.572-.764"/>
      <path d="M44.953 15.868c-.572-.765-1.334-1.912-1.524-2.103-.19-.383-1.905-2.868-2.096-3.06-.571-.573.381-.19-.19-.573-.381-.382-.381-.573-.762-.764-.19 0-.19-.192-.19 0v.764c0 .191.19.383.19.574 1.524 1.912 3.238 4.206 4.572 6.5.19-.191 0-1.338 0-1.338m-6.096 9.94c-.38.192-.38.574-.19.765H25.333c-.952 0-3.619-.19-3.619-.19.572.764 1.334.955 2.477.955h14.476c-.19.383 0 .956.19.956s.19 0 .381-.191h2.095c.191.191.191.382.381.191.381 0 .572-.191.572-.765 0 0 0-1.147-.762-1.147h-.762c-.571 0-.952 0-1.714-.19 0 0 .19-.383 0-.574h-.19v.19m.38 1.53h2.095c.191.191 0 .383 0 .383h-.571c0-.192-.38-.192-.571 0h-.953c-.19 0-.19-.192 0-.383M27.048 9.941c-.381 1.338.19 2.677.762 2.677.38.19.571-.574.762-1.339l.19-.19c0 .955 0 1.146.381 1.529.571.382.952 0 1.143 0l.38-.383c0-.19.191-.19.382 0 .19.191.19.383.38.383.191.19.763 0 .953-.192.19-.19.19-.382.19-.382.191-.191.382 0 .382 0s-.191.191 0 .382c.19.192.19 0 .19 0 .19-.382.381-.955.381-.955 0-.192-.19-.192-.19-.192-.191 0-.191 0-.191.192-.19 0-.381.19-.571-.192-.19-.19-.19-.573-.19-.764 0 0-.191-.383 0-.383h.38c0-.19-.19-.573-.38-.764-.191-.192-.382-.192-.572 0-.19.19-.19.382-.19.382 0 .191 0 .382.19.573.19.383.38.765.38 1.339 0 0-.19.19-.38.19s-.381 0-.381-.764c0-.573 0-1.53-.19-1.72 0-.192-.191-.383-.382 0 0 .19-.38.382-.19.955-.19 0-.19.383-.19.956-.191.192-.191.192-.191.383-.19.19-.381.19-.572 0l-.38-.383V9.75c-.191-.19-.381-.19-.572 0-.38.383-.762 1.148-.762 1.722-.19.382-.19.382-.38.19-.191-.382-.191-2.102-.572-1.72"/>
      <path d="M28.572 12.618c-.381.382-.381.382-.381.764 0 0 .19.765.38 1.147.191.574.191 1.147.191 1.53a3.744 3.744 0 0 1-1.714 1.72c-.381.192-.572 0-.762 0-.19-.19-.19-.382-.19-.382.57-.382 1.142-.765 1.714-1.72.19-.383.19-.574 0-1.148 0-.19-.19-.382-.19-.573 0 0 .38.191.38 0 0-.383-.19-.765-.38-.956-.191-.191-.382-.191-.572 0-.19.191-.19.573-.19.765.19.19.38.382.57.764v.574c0 .191-1.142 1.147-1.142 1.147V15.485c-.381.191-.381.956-.572 1.147-.952.574-1.904 1.147-2.476 1.72-.38.383 2.095-.573 2.286-.764 0 0 0 .191.19.383.19.382.762.573 1.334.382.952-.382 1.333-.956 1.905-1.53 0-.19.19-.19.38-.19.381.764 1.334 1.338 2.667 1.338.381-.383.19-.574 0-.574 0 0-.571-.191-.762-.574 0-.19 0-.382.381-.573.762-.191 1.714-.191 2.476-.382 0-.192.19-.765.19-.765.191.191.191.191.382.191H31.81c.571 0 1.714-.191 1.904-1.338 0-.574-.19-.956-.952-.956-.571 0-.952.573-.762 1.147 0 .191 0 .382-.19.382-.953.192-2.096.765-2.096 1.147l-.19-.19c0-.765-.381-1.53-.762-2.295 0-.573-.19-.573-.19-.573m4 .955h.19c.19 0 .19.192.19.192h-.19c-.38 0-.38 0-.19-.192-.19 0-.19 0 0 0-.19 0-.19 0 0 0-.19 0-.19 0 0 0-.19 0-.19 0 0 0m-2.477 2.295c.381 0 .762 0 1.143.19.381 0 .381.192.19.383-.19.191-.57.191-.57.574v.382s-.191 0-.191-.191c-.19-.191-.762-.383-.762-1.147-.19 0 0-.191.19-.191M21.524 9.94c.38.191.952 0 .952-.382v-.191c0-.192-.19-.192-.19 0v.19s-.19 0-.19-.19v-.192.192-.192c-.191 0-.191.192-.191.192-.762.19-.762.382-.381.573"/>
      <path d="M30.476 13.765c.381.19.953 0 .953-.383v-.19c0-.192-.19-.192-.19 0v.19s-.191 0-.191-.19V13v.191V13c-.19 0-.19.191-.19.191-.572 0-.572.382-.382.574m5.143-1.53c.381.191.953 0 .953-.382v-.191c0-.191-.19-.191-.19 0v.19s-.191 0-.191-.19v-.191.19-.19c-.19 0-.19.19-.19.19-.572 0-.572.383-.382.574m2.857 3.824c-.571.573-.38 1.53-.19 1.912.19.382.38.573.571.764.381.191.572 0 .762 0 .19-.382.19-1.338.381-1.53.19-.382.381-.19.572-.19.19.19.19.382.38.382.381.191.572.382.953 0l.571-.574c.19-.382 0-2.676 0-3.823l-.38-1.53v-.955s0-.192 0 0l.19.19.19-.19c-.19-.574-.571-.956-.762-1.339 0 0-.19-.19-.19 0 0 0-.19.192-.19.383 0 .382 0 .573.19.956.19.573.19 1.147.38 1.72-.19 1.147 0 2.103 0 3.441 0 .574-.19 1.147-.38 1.147 0 0-.19.192-.381 0-.19 0-.571-.764-.571-.764-.19-.191-.381-.191-.572 0-.38.382-.571 1.147-.952 1.72 0 .192-.381.192-.572 0-.38-.764 0-1.911 0-1.72M35.81 9.176c.38.192.571.765.38.956 0 .383-.19.765-.38.574-.19 0 0-.383 0-.574 0-.19-.381-.573-.381-.764 0 0 .19-.192.38-.192"/>
      <path d="M39.238 16.441v-1.53c0-.382-.38-3.632-.571-3.823-.19-.573.38 0 .38-.382-.19-.383-.57-.956-.761-1.338 0-.192 0-.383-.19 0-.191.573-.191.955-.191 1.338.38 2.294.952 4.588.762 6.691.19 0 .571-.382.571-.956M44 10.132c.19.191.381.765.381.956 0 .383-.19.765-.19.765-.19 0 0-.574 0-.765 0-.191-.381-.573-.381-.765-.19-.19 0-.382.19-.19m-18.667 4.97c.191 0 .381.573.381.765 0 .19-.19.573-.19.573-.19 0 0-.382 0-.573 0-.192-.381-.383-.381-.574-.19-.191 0-.191.19-.191m-6.285-5.927c.38.192.38.574.38.765 0 .191-.19.574-.19.574V9.94c0-.191-.38-.382-.38-.573-.191-.192 0-.383.19-.192m6.857 2.295c-.19.19-.381.573-.19.764.19.191.38.191.38.191.19 0 .381-.573.381-.573s0-.191-.38.191c-.191 0-.191 0-.191-.191v-.382c.38 0 .19 0 0 0M28 8.985c-.19 0-.38.383-.38.765v.382c0 .191.19.191.38 0 .19 0 .19-.19.19-.19 0-.192-.19.19-.19-.192 0-.191.19-.382.19-.574 0-.382 0-.382-.19-.19m1.524.19c0 .192-.19.765-.19.765 0 .191.19.382.38 0s.19-.765.19-.956c0-.19-.19-.19-.38.191M40 14.53l1.524-.956c.19 0 .19.574 0 .574 0 .191-1.333 1.147-1.524 1.147-.19-.191-.19-.765 0-.765"/>
      <path d="M41.333 14.53c.191.19.381.764.381 1.146 0 .383-.19.765-.38.574-.191 0 0-.574 0-.574 0-.19-.191-.573-.191-.764-.19-.383 0-.574.19-.383m-8.571 3.06.381-.383h.19v.382s0 .191.191.191c.19-.19.38-.19.571-.19.19 0 .19.382 0 .382-.38 0-.571.19-.952.382h-.19v-.191c.19-.191.19-.383-.191-.574.19.191 0 .383 0 0 0 .191 0 0 0 0m9.905.383s.19.19 0 .19l-.19.192v.191c.19 0 .952-.382.952-.382.19 0 0-.191 0-.191h-.19s-.191 0-.191-.192c0 0 0-.19.19-.19 0-.192 0-.192-.19-.192h-.381s-.19 0-.19.191c0 .383.19.383.19.383"/>
    </g>
  </g>
</svg>
