<!--
  ~ SPDX-FileCopyrightText: 2024 SAP SE or an SAP affiliate company and Juno contributors
  ~ SPDX-License-Identifier: Apache-2.0
-->

<svg xmlns="http://www.w3.org/2000/svg" width="64" height="38" viewBox="0 0 64 38">
  <g fill="none">
    <path fill="#CB1D23" d="M0 0h64v37.471H0z"/>
    <path fill="#F7DE29" d="M6.095 13.574 7.429 9.75 4.19 7.456h4l1.143-3.632 1.143 3.632h4L11.238 9.75l1.333 3.824-3.238-2.295zM17.143 15.485l1.143.574.952-1.147v1.529l1.333.574-1.523.382v1.338l-.762-1.147-1.334.191.762-.955zM24.19 8.412l-1.333-.191-.762 1.147-.19-1.339-1.334-.382 1.143-.573-.19-1.339 1.143.956 1.143-.573-.572 1.147zM21.143 14.721l.571-1.339-1.143-.764h1.334l.381-1.339.571 1.339h1.333l-1.142.764.381 1.339-1.143-.765zM17.143 2.294l1.333.765.953-1.147-.191 1.529 1.333.574-1.523.191-.191 1.529-.571-1.338-1.524.191.952-.956z"/>
  </g>
</svg>
