<!--
  ~ SPDX-FileCopyrightText: 2024 SAP SE or an SAP affiliate company and Juno contributors
  ~ SPDX-License-Identifier: Apache-2.0
-->

<svg xmlns="http://www.w3.org/2000/svg" width="64" height="38" viewBox="0 0 64 38">
  <g fill="none">
    <path fill="#180087" d="M0 0h63.247v37.471H0z"/>
    <path fill="#FFF" d="M16.565 22.941 17.506 26l3.012-1.147-1.694 2.676 2.635 1.53-3.012.382.377 3.059-2.259-2.294-2.071 2.294.377-3.059-3.2-.382 2.823-1.53-1.694-2.676L15.624 26zM49.882 28.485l.377 1.339 1.506-.574-.941 1.338 1.317.765-1.506.191.189 1.53-.942-1.148-1.129 1.148.376-1.53-1.505-.191 1.129-.765L48 29.25l1.318.574zM41.6 15.103l.376 1.338 1.506-.573-.941 1.338 1.318.765-1.506.191.188 1.529-.941-1.147-1.129 1.147.188-1.529-1.506-.191 1.318-.765-.753-1.338 1.317.573zM49.882 5.926l.377 1.339 1.506-.383-.941 1.147 1.317.765-1.506.191.189 1.53-.942-1.147-1.129 1.147.376-1.53-1.505-.191 1.129-.765L48 6.882l1.318.383zM57.224 12.809l.564 1.338 1.318-.382-.753 1.147 1.129.764-1.506.192.377 1.529-1.129-1.147-.942 1.147.189-1.529-1.506-.192 1.317-.764-.941-1.147 1.506.382zM53.271 19.5l.188.956h1.129l-.753.765.189.955-.753-.573-.942.573.189-.955-.565-.765h.941zM13.929 0v5.544H0v5.735h13.929v5.545h5.459v-5.545h13.93V5.544h-13.93V0z"/>
    <path fill="#FFF" d="M0 0v1.912l29.553 14.912h3.765v-1.912L3.765 0z"/>
    <path fill="#FFF" d="M29.553 0 0 14.912v1.912h3.765L33.318 1.912V0z"/>
    <path fill="#EA0020" d="M14.871 0v6.691H0v3.441h14.871v6.692h3.388v-6.692h15.059V6.691H18.259V0z"/>
    <path fill="#EA0020" d="M0 0v1.338l8.659 4.397h2.447L0 0zm30.682 0L19.576 5.544h2.448L33.318 0h-2.636zM11.106 11.28 0 16.823h2.447l11.106-5.545h-2.447zm11.106 0 11.106 5.544v-1.148l-8.66-4.397h-2.446z"/>
  </g>
</svg>
