<!--
  ~ SPDX-FileCopyrightText: 2024 SAP SE or an SAP affiliate company and Juno contributors
  ~ SPDX-License-Identifier: Apache-2.0
-->

<svg xmlns="http://www.w3.org/2000/svg" width="64" height="38" viewBox="0 0 64 38">
  <g fill="none">
    <path fill="#EA0020" d="M0 0h15.048v38H0zm48.952 0H64v38H48.952z"/>
    <path fill="#FFF" d="M15.048 0h33.905v38H15.048z"/>
    <path fill="#EA0020" d="m32 4.847-2.286 4.46c-.19.387-.762.387-1.143.193l-1.523-.97 1.142 6.786c.191 1.164-.571 1.164-.952.776l-2.857-3.296L24 14.54c0 .194-.19.388-.571.388l-3.62-.776.953 3.684c.19.775.38 1.163-.19 1.357l-1.334.582 6.095 5.234c.19.194.381.582.19.97l-.57 1.938c2.095-.194 4-.581 6.095-.775.19 0 .571.194.571.388l-.19 6.785h.952l-.19-7.173c0-.194.19-.388.38-.388 2.096.194 4 .582 6.096.776l-.572-1.94c0-.387 0-.58.19-.969l6.096-5.234-1.333-.582c-.572-.194-.381-.582-.19-1.357l.952-3.684-3.62.776c-.38 0-.571-.194-.571-.388l-.38-1.745-2.858 3.296c-.381.582-1.143.582-.952-.775l1.142-6.786-1.523.97c-.19.58-.572.58-.953.193L32 4.846Z"/>
  </g>
</svg>
