<!--
  ~ SPDX-FileCopyrightText: 2024 SAP SE or an SAP affiliate company and Juno contributors
  ~ SPDX-License-Identifier: Apache-2.0
-->

<svg width="64" height="38" viewBox="0 0 64 38" fill="none" xmlns="http://www.w3.org/2000/svg">
<g clip-path="url(#clip0_134_16285)">
<rect width="64" height="38" fill="#30363C"/>
<g clip-path="url(#clip1_134_16285)">
<path d="M35.3912 27.1545C36.4555 26.1027 38.1817 26.1032 39.2467 27.1556C40.3117 28.208 40.3122 29.9138 39.2478 30.9656C38.5294 31.6755 37.5094 31.906 36.5948 31.6572L22.2959 45.787L22.2996 51.4743L26.2199 47.5832C25.8151 46.6212 25.9989 45.4747 26.7715 44.6811L26.8091 44.6433C27.8734 43.5915 29.5996 43.592 30.6646 44.6444C31.7295 45.6968 31.73 47.4026 30.6657 48.4544C29.862 49.2486 28.6809 49.4428 27.6921 49.0372L16.5974 60.0487L22.7163 60.0527L36.7908 46.1442C36.3799 45.1669 36.5764 43.9994 37.3803 43.2049C38.4446 42.1531 40.1708 42.1537 41.2358 43.2061C42.3008 44.2585 42.3013 45.9642 41.2369 47.016C40.433 47.8104 39.2516 48.0046 38.2627 47.5986L23.5778 62.1099L14.5267 62.104L-12.0476 88.4798L-13.5225 87.0286L20.2195 53.5386L20.2142 44.9356L34.9432 30.3806C34.3576 29.3536 34.5069 28.0283 35.3912 27.1545ZM38.0595 43.8762C37.3704 44.5572 37.3707 45.6619 38.0606 46.3437C38.7506 47.0255 39.8685 47.0258 40.5576 46.3448C41.2468 45.6638 41.2465 44.5591 40.5565 43.8773C39.8666 43.1955 38.7486 43.1952 38.0595 43.8762ZM27.4883 45.3145C26.7992 45.9955 26.7995 47.1003 27.4894 47.782C28.1794 48.4638 29.2973 48.4642 29.9864 47.7832C30.6756 47.1022 30.6752 45.9974 29.9853 45.3156C29.2954 44.6338 28.1774 44.6335 27.4883 45.3145ZM36.0704 27.8257C35.3813 28.5067 35.3816 29.6114 36.0716 30.2932C36.7615 30.975 37.8794 30.9753 38.5686 30.2943C39.2577 29.6133 39.2574 28.5086 38.5674 27.8268C37.8775 27.145 36.7596 27.1447 36.0704 27.8257ZM24.9414 18.3539C26.0244 17.2837 27.7781 17.2816 28.8585 18.3492C29.9388 19.4168 29.9367 21.1498 28.8537 22.22C28.0237 23.0402 26.7998 23.2331 25.787 22.7979L14.9772 33.5269L20.8659 33.5242L34.8943 19.6612C34.6049 18.7244 34.8361 17.6631 35.5873 16.9208C36.6703 15.8506 38.424 15.8485 39.5044 16.9161C40.5847 17.9836 40.5826 19.7167 39.4996 20.7869C38.6101 21.6659 37.2681 21.8244 36.2184 21.2615L21.7283 35.5805L12.904 35.5845L-13.8915 62.1801L-15.3664 60.729L24.332 21.3268C23.9239 20.3374 24.1273 19.1584 24.9414 18.3539ZM36.2665 17.592C35.5583 18.2919 35.5569 19.4239 36.2617 20.1204C36.9666 20.8169 38.1121 20.8156 38.8203 20.1157C39.5286 19.4158 39.53 18.2838 38.8251 17.5873C38.1203 16.8908 36.9748 16.8922 36.2665 17.592ZM25.6206 19.0252C24.9124 19.725 24.911 20.857 25.6158 21.5535C26.3206 22.2501 27.4662 22.2487 28.1744 21.5488C28.8827 20.8489 28.8841 19.7169 28.1792 19.0204C27.4744 18.3239 26.3289 18.3253 25.6206 19.0252ZM21.5854 2.95023C22.6685 1.88001 24.4222 1.87788 25.5026 2.94547C26.5829 4.01306 26.5807 5.7461 25.4977 6.81632C24.7157 7.58913 23.5839 7.805 22.6085 7.46331L8.55085 21.3548L8.54791 27.5478L19.6077 16.6745C19.1843 15.6795 19.3837 14.4859 20.2055 13.6739C21.2885 12.6037 23.0422 12.6016 24.1226 13.6692C25.2029 14.7368 25.2008 16.4698 24.1177 17.54C23.2953 18.3527 22.0861 18.5495 21.0787 18.1296L-18.8003 57.3361L-20.2683 55.8781L6.46565 29.5948L6.47008 20.5024L21.0527 6.09201C20.5466 5.07076 20.7245 3.80104 21.5854 2.95023ZM20.8847 14.3452C20.1765 15.045 20.1751 16.177 20.8799 16.8735C21.5847 17.5701 22.7303 17.5687 23.4385 16.8688C24.1467 16.1689 24.1481 15.0369 23.4433 14.3404C22.7385 13.6439 21.593 13.6453 20.8847 14.3452ZM22.2647 3.62146C21.5565 4.32134 21.555 5.45334 22.2599 6.14985C22.9647 6.84636 24.1102 6.84497 24.8185 6.14509C25.5267 5.44521 25.5281 4.31321 24.8233 3.6167C24.1185 2.92018 22.9729 2.92158 22.2647 3.62146ZM-5.49973 1.63561C-4.43537 0.583819 -2.7092 0.584314 -1.64422 1.63672C-0.579244 2.68912 -0.578743 4.39491 -1.6431 5.4467C-2.44702 6.24113 -3.62849 6.43524 -4.61744 6.02919L-18.2852 19.5353L-18.2812 25.5819L-7.13805 14.6183C-7.54852 13.6411 -7.35198 12.474 -6.54828 11.6798C-5.48392 10.628 -3.75775 10.6285 -2.69277 11.6809C-1.62779 12.7333 -1.62729 14.4391 -2.69165 15.4909C-3.49575 16.2855 -4.67757 16.4795 -5.66666 16.0731L-9.60435 19.947L-3.84899 19.9508L10.4496 5.82072C10.1978 4.9169 10.4311 3.90898 11.1495 3.19903C12.2139 2.14724 13.94 2.14774 15.005 3.20014C16.07 4.25254 16.0705 5.95833 15.0061 7.01012C14.1218 7.88398 12.7807 8.03147 11.7415 7.45281L-2.98743 22.0079L-11.6933 22.0025L-45.5834 55.3463L-47.0519 53.8887L-20.3611 27.6281L-20.3669 18.684L-6.08922 4.57474C-6.50006 3.59748 -6.30362 2.43001 -5.49973 1.63561ZM11.8288 3.87026C11.1396 4.55125 11.14 5.656 11.8299 6.33778C12.5198 7.01956 13.6378 7.01989 14.3269 6.3389C15.016 5.6579 15.0157 4.55315 14.3258 3.87137C13.6358 3.18959 12.5179 3.18927 11.8288 3.87026ZM-5.86903 12.351C-6.55816 13.032 -6.55783 14.1368 -5.8679 14.8186C-5.17797 15.5003 -4.06003 15.5007 -3.37089 14.8197C-2.68176 14.1387 -2.68209 13.0339 -3.37202 12.3522C-4.06195 11.6704 -5.1799 11.67 -5.86903 12.351ZM-4.82048 2.30684C-5.25112 2.73239 -5.41253 3.32342 -5.30467 3.8733L-3.90753 5.25394C-3.35108 5.36053 -2.75299 5.20103 -2.32235 4.77547C-1.63322 4.09448 -1.63355 2.98973 -2.32348 2.30795C-3.0134 1.62617 -4.13135 1.62584 -4.82048 2.30684Z" fill="#242A31"/>
</g>
<path d="M64 11.5773C63.9761 11.5594 63.9524 11.5427 63.9288 11.5271C61.8129 10.1286 59.2912 9.31685 56.584 9.31685C55.5869 9.31685 54.615 9.42698 53.6792 9.63599C51.2048 5.08012 46.4733 2 41.0432 2C33.4113 2 27.1597 8.08418 26.6144 15.7985L26.4736 15.7975L26.2673 15.7992C19.4735 15.9123 14 21.601 14 28.602C14 32.3162 15.6899 35.6611 18.2928 38H22.1735C18.8723 36.3384 16.5964 32.8293 16.5964 28.769C16.5964 23.1052 21.0249 18.5138 26.4878 18.5138C27.2689 18.5138 28.0289 18.6077 28.7575 18.7857C28.6992 18.2772 28.6692 17.7597 28.6692 17.2348C28.6692 10.1125 34.1922 4.33866 41.005 4.33866C46.2289 4.33866 50.6943 7.73316 52.493 12.5274C53.7175 12.0565 55.0422 11.7993 56.4248 11.7993C59.1564 11.7993 61.6618 12.8035 63.6163 14.4752C63.7437 14.5843 63.8718 14.7469 64 14.9574V11.5773Z" fill="#F0AB00"/>
</g>
<defs>
<clipPath id="clip0_134_16285">
<rect width="64" height="38" fill="white"/>
</clipPath>
<clipPath id="clip1_134_16285">
<rect width="42" height="41" fill="white" transform="matrix(-1 0 0 1 41 2)"/>
</clipPath>
</defs>
</svg>
