<!--
  ~ SPDX-FileCopyrightText: 2024 SAP SE or an SAP affiliate company and Juno contributors
  ~ SPDX-License-Identifier: Apache-2.0
-->

<svg xmlns="http://www.w3.org/2000/svg" width="25" height="41" viewBox="0 0 25 41"><g fill="none"><path fill="#FFF" d="M24.0578481,6 L25,6 L25,41 L24.1850386,41 L21.985114,38.8889541 L19.8063878,41 L19.4153948,41 L19.274072,40.8653495 L17.2366686,38.8912363 L15.0602977,41 L14.6693047,41 L14.5232712,40.8653495 L12.4858677,38.8912363 L10.3094969,41 L9.91850386,41 L9.77247032,40.8653495 L7.73506689,38.8912363 L5.55869606,41 L5.16770303,41 L5.02638025,40.8653495 L2.98897682,38.8912363 L0.810250612,41 L0,41 L0,6 L0.942151875,6 L0.942151875,39.5850287 L2.99368758,37.5972222 L5.36555493,39.8976917 L7.73977765,37.5972222 L10.1140004,39.8976917 L12.4882231,37.5972222 L14.8624458,39.8976917 L17.2366686,37.5972222 L19.6085359,39.8954095 L21.9804032,37.5972222 L24.0578481,39.5895931 L24.0578481,6 L24.0578481,6 Z M19.7310156,27.9594418 L5.27133974,27.9594418 L5.27133974,28.8723266 L19.7310156,28.8723266 L19.7310156,27.9594418 Z M19.7310156,22.4775691 L5.27133974,22.4775691 L5.27133974,23.3904538 L19.7310156,23.3904538 L19.7310156,22.4775691 Z M19.7310156,16.9934142 L5.27133974,16.9934142 L5.27133974,17.9062989 L19.7310156,17.9062989 L19.7310156,16.9934142 Z M19.7310156,11.5115415 L5.27133974,11.5115415 L5.27133974,12.4244262 L19.7310156,12.4244262 L19.7310156,11.5115415 Z"/><polygon fill="#0095DB" points="25 0 25 0 0 0 0 0 0 5 0 5 .942 5 24.058 5 25 5 25 5"/><rect width="6" height="5" x="18" fill="#F0AB00"/><rect width="6" height="5" x="12" fill="#F0AB00" opacity=".7"/><rect width="6" height="5" x="6" fill="#F0AB00" opacity=".4"/></g></svg>