<!--
  ~ SPDX-FileCopyrightText: 2024 SAP SE or an SAP affiliate company and Juno contributors
  ~ SPDX-License-Identifier: Apache-2.0
-->

<svg xmlns="http://www.w3.org/2000/svg" width="31" height="41" viewBox="0 0 31 41"><g fill="none"><path fill="#FFF" d="M28.4166667,37.4347826 L3.44444444,37.4347826 L3.44444444,2.67391304 L5.57784722,2.67391304 L5.57784722,1.7826087 L2.58333333,1.7826087 L2.58333333,3.56521739 L0,3.56521739 L0,41 L27.5555556,41 L27.5555556,38.326087 L29.2777778,38.326087 L29.2777778,34.0277717 L28.4166667,34.0277717 L28.4166667,37.4347826 Z M26.6944444,40.1086957 L0.861111111,40.1086957 L0.861111111,4.45652174 L2.58333333,4.45652174 L2.58333333,38.326087 L26.6944444,38.326087 L26.6944444,40.1086957 Z M22.3888889,0 L22.3888889,8.91304348 L31,8.91304348 L22.3888889,0 Z M23.25,2.1525 L28.9204167,8.02173913 L23.25,8.02173913 L23.25,2.1525 Z"/><g transform="translate(5)"><polygon fill="#008FD3" points="17.333 9 17.333 0 0 0 0 9 0 18 0 27 0 36 26 36 26 27 26 18 26 9"/><g fill="#F0AB00"><rect width="17.333" height="9"/><rect width="26" height="9" y="9" opacity=".7"/><rect width="26" height="9" y="18" opacity=".4"/></g></g></g></svg>