<!--
  ~ SPDX-FileCopyrightText: 2024 SAP SE or an SAP affiliate company and Juno contributors
  ~ SPDX-License-Identifier: Apache-2.0
-->

<svg xmlns="http://www.w3.org/2000/svg" width="110" height="41" viewBox="0 0 110 41"><g fill="none" fill-rule="evenodd"><path fill="#FFF" fill-rule="nonzero" d="M34.7368421,29.1504761 L36.1190446,26.0054925 C37.6127151,27.0975007 39.5968446,27.665345 41.5586805,27.665345 C43.0077638,27.665345 43.9218009,27.1193409 43.9218009,26.2894147 C43.8995074,23.9743573 35.2495947,25.7870909 35.1827139,19.9776073 C35.1604203,17.0291852 37.835651,14.7578082 41.6255612,14.7578082 C43.8772138,14.7578082 46.1288663,15.3038123 47.7340047,16.5487016 L46.4409766,19.7592057 C44.9695997,18.8419188 43.1415253,18.1867139 41.4026253,18.1867139 C40.2210651,18.1867139 39.4407895,18.732718 39.4407895,19.4316032 C39.4630831,21.7029803 48.1798765,20.4580909 48.2690509,26.0054925 C48.2690509,29.0194351 45.6607009,31.137931 41.9153779,31.137931 C39.1732664,31.137931 36.6540908,30.5045663 34.7368421,29.1504761 M87.7732913,24.869804 C87.0821901,26.0491729 85.7891619,26.8572589 84.2954914,26.8572589 C82.088426,26.8572589 80.3049389,25.1100458 80.3049389,22.9478696 C80.3049389,20.7856934 82.088426,19.0384803 84.2954914,19.0384803 C85.7891619,19.0384803 87.0821901,19.8465663 87.7732913,21.0259352 L91.5854951,18.9511196 C90.1587054,16.461341 87.4165939,14.7578082 84.2954914,14.7578082 C79.6807184,14.7578082 75.9353954,18.4269557 75.9353954,22.9478696 C75.9353954,27.4687835 79.6807184,31.137931 84.2954914,31.137931 C87.4388875,31.137931 90.1587054,29.4562384 91.5854951,26.9446196 L87.7732913,24.869804 L87.7732913,24.869804 Z M50.1862996,7.96551724 L54.9571277,7.96551724 L54.9571277,30.8321687 L50.1862996,30.8321687 L50.1862996,7.96551724 Z M93.4581566,7.96551724 L93.4581566,30.8321687 L98.2289848,30.8321687 L98.2289848,23.9743573 L103.891556,30.8321687 L110,30.8321687 L102.799171,22.6857876 L109.464954,15.0854106 L103.624033,15.0854106 L98.2289848,21.397218 L98.2289848,7.96551724 L93.4581566,7.96551724 Z M69.1358506,24.9134844 C68.4447493,26.0273327 67.0179596,26.8572589 65.4128212,26.8572589 C63.2057558,26.8572589 61.4222686,25.1100458 61.4222686,22.9478696 C61.4222686,20.7856934 63.2057558,19.0384803 65.4128212,19.0384803 C67.0179596,19.0384803 68.4447493,19.9120868 69.1358506,21.0477754 L69.1358506,24.9134844 Z M69.1358506,15.0854106 L69.1358506,16.9418246 C68.355575,15.6532549 66.4160327,14.7578082 64.387316,14.7578082 C60.1961212,14.7578082 56.89667,18.3832754 56.89667,22.9260294 C56.89667,27.4687835 60.1961212,31.137931 64.387316,31.137931 C66.4160327,31.137931 68.355575,30.2424843 69.1358506,28.9539147 L69.1358506,30.8103286 L73.9066787,30.8103286 L73.9066787,15.0854106 L69.1358506,15.0854106 Z"/><path fill="#E01E5A" fill-rule="nonzero" d="M5.57504873,25.2375479 C5.57504873,26.7800998 4.32910981,28.0268199 2.78752437,28.0268199 C1.24593892,28.0268199 0,26.7800998 0,25.2375479 C0,23.6949959 1.24593892,22.4482759 2.78752437,22.4482759 L5.57504873,22.4482759 L5.57504873,25.2375479 Z M6.96881092,25.2375479 C6.96881092,23.6949959 8.21474984,22.4482759 9.75633528,22.4482759 C11.2979207,22.4482759 12.5438596,23.6949959 12.5438596,25.2375479 L12.5438596,32.210728 C12.5438596,33.7532799 11.2979207,35 9.75633528,35 C8.21474984,35 6.96881092,33.7532799 6.96881092,32.210728 L6.96881092,25.2375479 Z"/><path fill="#36C5F0" fill-rule="nonzero" d="M9.7610202,12.5691684 C8.22202565,12.5691684 6.97818075,11.3245436 6.97818075,9.78458418 C6.97818075,8.24462475 8.22202565,7 9.7610202,7 C11.3000147,7 12.5438596,8.24462475 12.5438596,9.78458418 L12.5438596,12.5691684 L9.7610202,12.5691684 Z M9.7610202,13.9825558 C11.3000147,13.9825558 12.5438596,15.2271805 12.5438596,16.76714 C12.5438596,18.3070994 11.3000147,19.5517241 9.7610202,19.5517241 L2.78283945,19.5517241 C1.24384491,19.5517241 0,18.3070994 0,16.76714 C0,15.2271805 1.24384491,13.9825558 2.78283945,13.9825558 L9.7610202,13.9825558 Z"/><path fill="#2EB67D" fill-rule="nonzero" d="M22.4074074,16.76714 C22.4074074,15.2271805 23.6533463,13.9825558 25.1949318,13.9825558 C26.7365172,13.9825558 27.9824561,15.2271805 27.9824561,16.76714 C27.9824561,18.3070994 26.7365172,19.5517241 25.1949318,19.5517241 L22.4074074,19.5517241 L22.4074074,16.76714 Z M21.0136452,16.76714 C21.0136452,18.3070994 19.7677063,19.5517241 18.2261209,19.5517241 C16.6845354,19.5517241 15.4385965,18.3070994 15.4385965,16.76714 L15.4385965,9.78458418 C15.4385965,8.24462475 16.6845354,7 18.2261209,7 C19.7677063,7 21.0136452,8.24462475 21.0136452,9.78458418 L21.0136452,16.76714 L21.0136452,16.76714 Z"/><path fill="#ECB22E" fill-rule="nonzero" d="M18.2214359,29.4214559 C19.7604305,29.4214559 21.0042754,30.668176 21.0042754,32.210728 C21.0042754,33.7532799 19.7604305,35 18.2214359,35 C16.6824414,35 15.4385965,33.7532799 15.4385965,32.210728 L15.4385965,29.4214559 L18.2214359,29.4214559 Z M18.2214359,28.0268199 C16.6824414,28.0268199 15.4385965,26.7800998 15.4385965,25.2375479 C15.4385965,23.6949959 16.6824414,22.4482759 18.2214359,22.4482759 L25.1996167,22.4482759 C26.7386112,22.4482759 27.9824561,23.6949959 27.9824561,25.2375479 C27.9824561,26.7800998 26.7386112,28.0268199 25.1996167,28.0268199 L18.2214359,28.0268199 Z"/><rect width="110" height="41"/></g></svg>