<!--
  ~ SPDX-FileCopyrightText: 2024 SAP SE or an SAP affiliate company and Juno contributors
  ~ SPDX-License-Identifier: Apache-2.0
-->

<svg width="135" height="75" xmlns="http://www.w3.org/2000/svg"><g fill="none" fill-rule="evenodd"><path d="M.98.05h134v74H.98z"/><path d="M26.662 56.127a8962.901 8962.901 0 0011.051-1.94l.104-.021-5.685-6.706c-3.126-3.688-5.684-6.72-5.684-6.737 0-.033 5.87-16.064 5.903-16.12.01-.02 4.005 6.82 9.683 16.579l9.738 16.74.074.128-18.066-.002-18.066-.003 10.948-1.918zm69.28-1.621c-2.75-.175-4.35-1.728-4.773-4.635-.113-.773-.113-.793-.125-5.813l-.011-4.859h2.434l.01 4.7c.008 4.235.014 4.732.054 5.03.166 1.209.496 2.022 1.058 2.606.45.467.975.74 1.704.886.343.068 1.321.068 1.634 0a3.621 3.621 0 001.853-.998c.595-.59 1.035-1.427 1.248-2.373l.072-.32.008-4.738.008-4.74H103.601v14.9h-2.46v-1.181c0-.804-.008-1.18-.027-1.173a.97.97 0 00-.14.213 4.978 4.978 0 01-1.904 1.89c-.927.506-1.857.686-3.128.605zm27.912-.012a6.485 6.485 0 01-2.828-.916c-1.76-1.08-2.803-2.86-3.108-5.311-.105-.848-.118-1.987-.03-2.708.197-1.61.835-3.19 1.743-4.318.233-.29.761-.813 1.053-1.044a6.582 6.582 0 012.687-1.272c.57-.124 1.573-.182 2.178-.126 1.521.14 2.915.85 3.863 1.968.962 1.135 1.491 2.722 1.559 4.676.01.306.013.843.006 1.193l-.014.637-5.327.006-5.326.007v.236c0 .717.176 1.535.48 2.23.262.6.713 1.255 1.083 1.572a4.783 4.783 0 002.7 1.132c.377.035 1.336-.002 1.765-.067 1.224-.187 2.387-.663 3.327-1.361.11-.083.216-.16.235-.17.027-.018.034.197.033 1.1l-.001 1.12-.252.155a8.865 8.865 0 01-3.57 1.227c-.384.047-1.796.068-2.256.034zm4.636-9.459c0-1.202-.51-2.537-1.234-3.225-.515-.49-1.139-.79-1.88-.905-.351-.053-1.09-.033-1.46.041a3.826 3.826 0 00-1.992 1.05 5.378 5.378 0 00-1.319 2.093c-.1.29-.218.765-.255 1.03l-.017.125h8.157v-.209zm-72.255 9.084l4.02-10.472 4.008-10.44h2.575l.107.272c.327.83 8.024 20.651 8.024 20.661 0 .007-.616.012-1.37.012h-1.37l-1.11-2.93-1.109-2.929h-8.934l-.039.1a868.37 868.37 0 00-1.053 2.929l-1.015 2.83h-1.373c-1.086 0-1.37-.006-1.361-.033zm12.96-8.061c0-.005-.747-2.012-1.66-4.461-1.706-4.581-1.802-4.857-1.937-5.592-.063-.345-.095-.355-.133-.04a7.261 7.261 0 01-.232 1.007c-.045.139-.814 2.231-1.709 4.65a714.99 714.99 0 00-1.627 4.422c0 .012 1.642.022 3.649.022s3.649-.004 3.649-.008zm6.603 7.713v-.381l4.45-6.068 4.451-6.068-4.03-.013-4.029-.013-.007-1.015-.007-1.014h11.657v.685l-4.451 6.101A1949.87 1949.87 0 0079.38 52.1c0 .006 1.98.012 4.398.012h4.398v2.042H75.798v-.382zm32.66.364c-.01-.01-.018-3.374-.018-7.477V39.2h2.433v1.538c0 .846.01 1.538.023 1.538.012 0 .072-.139.131-.308a5.31 5.31 0 011.359-2.075 3.533 3.533 0 011.922-.948c.208-.033.385-.04.802-.029.524.013.798.051 1.116.155l.1.032v2.505l-.287-.143a3.091 3.091 0 00-1.61-.32 3.04 3.04 0 00-2.495 1.428 7.174 7.174 0 00-1.018 2.9c-.02.178-.032 1.623-.037 4.472l-.007 4.209h-1.198c-.66 0-1.206-.008-1.216-.018zM4.98 54.083c0-.01 2.678-4.621 5.952-10.248l5.952-10.23 6.937-5.773c3.815-3.175 6.947-5.777 6.96-5.782.012-.005-.038.12-.112.279L23.138 38.35 15.74 54.086l-5.38.007c-2.958.004-5.38-.001-5.38-.01z" fill="#FFF" fill-rule="nonzero"/></g></svg>