<!--
  ~ SPDX-FileCopyrightText: 2024 SAP SE or an SAP affiliate company and Juno contributors
  ~ SPDX-License-Identifier: Apache-2.0
-->

<svg xmlns="http://www.w3.org/2000/svg" width="111" height="111" viewBox="0 0 111 111">
  <defs>
    <circle id="region_icon_sm-b" cx="51.5" cy="51.5" r="51.5"/>
    <filter id="region_icon_sm-a" width="113.6%" height="113.6%" x="-6.8%" y="-4.9%" filterUnits="objectBoundingBox">
      <feOffset dy="2" in="SourceAlpha" result="shadowOffsetOuter1"/>
      <feGaussianBlur in="shadowOffsetOuter1" result="shadowBlurOuter1" stdDeviation="2"/>
      <feColorMatrix in="shadowBlurOuter1" values="0 0 0 0 0   0 0 0 0 0   0 0 0 0 0  0 0 0 0.5 0"/>
    </filter>
  </defs>
  <g fill="none" fill-rule="evenodd" transform="translate(4 2)">
    <use fill="#000" filter="url(#region_icon_sm-a)" xlink:href="#region_icon_sm-b"/>
    <use fill="#F0F0F0" xlink:href="#region_icon_sm-b"/>
    <g transform="translate(29 19)">
      <path fill="#000" fill-rule="nonzero" d="M22.5028169,64.3362676 L3.51091549,34.5461268 C2.8471831,33.5024648 2.30704225,32.4908451 1.8584507,31.4609155 C0.627112676,28.6183099 0,25.606338 0,22.5028169 C0,10.0933099 10.0978873,0 22.5073944,0 C34.9169014,0 45.0102113,10.0933099 45.0102113,22.5028169 C45.0102113,25.5926056 44.3830986,28.6045775 43.1517606,31.4471831 C42.7397887,32.3901408 42.2454225,33.3330986 41.6274648,34.3264085 C41.4306338,34.6422535 24.0133803,61.9605634 23.271831,63.1232394 L22.5028169,64.3362676 Z M22.5073944,1.83098592 C11.1049296,1.83098592 1.83098592,11.1049296 1.83098592,22.5028169 C1.83098592,25.35 2.40774648,28.1193662 3.54295775,30.7285211 C3.95492958,31.6714789 4.44929577,32.6007042 5.05809859,33.5619718 L22.5028169,60.9306338 C25.9633803,55.5017606 39.8742958,33.6764085 40.0757042,33.3605634 C40.6433099,32.4450704 41.1010563,31.584507 41.4764085,30.7193662 C42.6070423,28.1056338 43.1838028,25.3454225 43.1838028,22.5028169 C43.1792254,11.1049296 33.9052817,1.83098592 22.5073944,1.83098592 Z"/>
      <path d="M11.5580986,29.0577465 C13.7415493,32.8295775 17.815493,35.3700704 22.4890845,35.3700704 C27.1580986,35.3700704 31.2320423,32.8295775 33.415493,29.0577465 L11.5580986,29.0577465 Z"/>
      <g fill-rule="nonzero" transform="translate(9.613 10.07)">
        <path fill="#0095DB" d="M12.8764085,0.0549295775 C5.90492958,0.0549295775 0.256338028,5.70809859 0.256338028,12.6795775 C0.256338028,19.6510563 5.90492958,25.2996479 12.8764085,25.2996479 C19.8433099,25.2996479 25.4964789,19.6510563 25.4964789,12.6795775 C25.4964789,5.70809859 19.8433099,0.0549295775 12.8764085,0.0549295775 Z"/>
        <g fill="#FBBA00">
          <path d="M0.256338028,0.320422535 C0.256338028,2.61830986 0.874295775,4.76971831 1.94542254,6.62359155 L23.8073944,6.62359155 C24.8785211,4.76971831 25.4964789,2.61373239 25.4964789,0.320422535 C25.4964789,0.320422535 25.4964789,0.31584507 25.4964789,0.31584507 L0.256338028,0.31584507 C0.256338028,0.31584507 0.256338028,0.31584507 0.256338028,0.320422535 Z" opacity=".4" transform="translate(0 12.36)"/>
          <path d="M1.95,0.407394366 C0.874295775,2.26584507 0.256338028,4.41725352 0.251760563,6.71971831 L25.4964789,6.71971831 C25.4964789,4.42183099 24.8739437,2.26584507 23.7982394,0.407394366 L1.95,0.407394366 Z" opacity=".7" transform="translate(0 5.95)"/>
          <path d="M12.8764085,0.0549295775 C8.20739437,0.0549295775 4.1334507,2.59084507 1.95,6.36267606 L23.7982394,6.36267606 C21.6147887,2.59084507 17.5408451,0.0549295775 12.8764085,0.0549295775 Z"/>
        </g>
      </g>
    </g>
  </g>
</svg>
