<!--
  ~ SPDX-FileCopyrightText: 2024 SAP SE or an SAP affiliate company and Juno contributors
  ~ SPDX-License-Identifier: Apache-2.0
-->

<svg xmlns="http://www.w3.org/2000/svg" width="111" height="111" viewBox="0 0 111 111">
  <defs>
    <circle id="service_icon-b" cx="51.5" cy="51.5" r="51.5"/>
    <filter id="service_icon-a" width="113.6%" height="113.6%" x="-6.8%" y="-4.9%" filterUnits="objectBoundingBox">
      <feOffset dy="2" in="SourceAlpha" result="shadowOffsetOuter1"/>
      <feGaussianBlur in="shadowOffsetOuter1" result="shadowBlurOuter1" stdDeviation="2"/>
      <feColorMatrix in="shadowBlurOuter1" values="0 0 0 0 0   0 0 0 0 0   0 0 0 0 0  0 0 0 0.5 0"/>
    </filter>
  </defs>
  <g fill="none" fill-rule="evenodd" transform="translate(4 2)">
    <use fill="#000" filter="url(#service_icon-a)" xlink:href="#service_icon-b"/>
    <use fill="#19232F" xlink:href="#service_icon-b"/>
    <g fill-rule="nonzero" transform="translate(27 27)">
      <path fill="#FFF" d="M25.5434783,50 L0,50 L0,24.4565217 L6.54619565,24.4565217 C6.82065217,21.4130435 9.38586957,19.0217391 12.5,19.0217391 C15.6141304,19.0217391 18.1793478,21.4130435 18.4538043,24.4565217 L25.5434783,24.4565217 L25.5434783,32.6086957 L25,32.6086957 C22.3043478,32.6086957 20.1086957,34.8016304 20.1086957,37.5 C20.1086957,40.1983696 22.3043478,42.3913043 25,42.3913043 L25.5434783,42.3913043 L25.5434783,50 Z M1.08695652,48.9130435 L24.4565217,48.9130435 L24.4565217,43.4538043 C21.4130435,43.1793478 19.0217391,40.6141304 19.0217391,37.5 C19.0217391,34.3858696 21.4130435,31.8206522 24.4565217,31.5461957 L24.4565217,25.5434783 L17.3913043,25.5434783 L17.3913043,25 C17.3913043,22.3016304 15.1956522,20.1086957 12.5,20.1086957 C9.80434783,20.1086957 7.60869565,22.3016304 7.60869565,25 L7.60869565,25.5434783 L1.08695652,25.5434783 L1.08695652,48.9130435 Z M37.5,30.9782609 C34.3858696,30.9782609 31.8206522,28.5869565 31.5461957,25.5434783 L24.4565217,25.5434783 L24.4565217,17.3913043 L25,17.3913043 C27.6956522,17.3913043 29.8913043,15.1983696 29.8913043,12.5 C29.8913043,9.80163043 27.6956522,7.60869565 25,7.60869565 L24.4565217,7.60869565 L24.4565217,0 L50,0 L50,25.5434783 L43.4538043,25.5434783 C43.1793478,28.5869565 40.6141304,30.9782609 37.5,30.9782609 Z M25.5434783,24.4565217 L32.6086957,24.4565217 L32.6086957,25 C32.6086957,27.6983696 34.8043478,29.8913043 37.5,29.8913043 C40.1956522,29.8913043 42.3913043,27.6983696 42.3913043,25 L42.3913043,24.4565217 L48.9130435,24.4565217 L48.9130435,1.08695652 L25.5434783,1.08695652 L25.5434783,6.54619565 C28.5869565,6.82065217 30.9782609,9.38586957 30.9782609,12.5 C30.9782609,15.6141304 28.5869565,18.1793478 25.5434783,18.4538043 L25.5434783,24.4565217 Z M25.5434783,25.5434783 L17.3913043,25.5434783 L17.3913043,25 C17.3913043,22.3016304 15.1956522,20.1086957 12.5,20.1086957 C9.80434783,20.1086957 7.60869565,22.3016304 7.60869565,25 L7.60869565,25.5434783 L0,25.5434783 L0,0 L25.5434783,0 L25.5434783,6.54619565 C28.5869565,6.82065217 30.9782609,9.38586957 30.9782609,12.5 C30.9782609,15.6141304 28.5869565,18.1793478 25.5434783,18.4538043 L25.5434783,25.5434783 Z M18.4538043,24.4565217 L24.4565217,24.4565217 L24.4565217,17.3913043 L25,17.3913043 C27.6956522,17.3913043 29.8913043,15.1983696 29.8913043,12.5 C29.8913043,9.80163043 27.6956522,7.60869565 25,7.60869565 L24.4565217,7.60869565 L24.4565217,1.08695652 L1.08695652,1.08695652 L1.08695652,24.4565217 L6.54619565,24.4565217 C6.82065217,21.4130435 9.38586957,19.0217391 12.5,19.0217391 C15.6141304,19.0217391 18.1793478,21.4130435 18.4538043,24.4565217 Z"/>
      <g transform="translate(18.421 23.684)">
        <path fill="#008FD3" d="M23.8227147,0 L23.5457064,0 L23.5457064,1.71892497 C23.2686981,3.93896976 21.1218837,5.59910414 18.767313,5.59910414 C17.6204986,5.59910414 16.634349,5.20156775 15.7894737,4.54087346 C14.6121884,3.61702128 13.8504155,2.18085106 13.8504155,0.559910414 L13.8504155,0 L7.75623269,0 L5.5401662,0 L5.5401662,7.30403135 C2.43767313,7.58678611 0,10.2295633 0,13.4378499 C0,16.6461366 2.43767313,19.2889138 5.5401662,19.5716685 L5.5401662,26.3157895 L7.75623269,26.3157895 L15.7894737,26.3157895 L23.5457064,26.3157895 L31.5789474,26.3157895 L31.5789474,0 L23.8227147,0 Z"/>
        <path fill="#4FB81C" d="M23.5457064,1.71892497 C23.8227147,1.34658455 23.8227147,0.960246361 23.8227147,0.559910414 L23.8227147,0 L23.5457064,0"/>
        <path fill="#F0AB00" d="M5.5401662,0 L5.5401662,7.30403135 C2.43767313,7.58678611 0,10.2295633 0,13.4378499 C0,16.6461366 2.43767313,19.2889138 5.5401662,19.5716685 L5.5401662,26.3157895 L7.75623269,26.3157895 L7.75623269,0 L5.5401662,0 Z"/>
        <path fill="#F0AB00" d="M13.8504155,0.559910414 L13.8504155,0 L7.75623269,0 L7.75623269,26.3157895 L15.7894737,26.3157895 L15.7894737,4.54087346 C14.6121884,3.61702128 13.8504155,2.17805151 13.8504155,0.559910414 Z" opacity=".7"/>
        <path fill="#F0AB00" d="M18.767313,5.59910414 C17.6204986,5.59910414 16.634349,5.20156775 15.7894737,4.54087346 L15.7894737,26.3157895 L23.5457064,26.3157895 L23.5457064,1.71892497 C23.2686981,3.93896976 21.1218837,5.59910414 18.767313,5.59910414 Z" opacity=".4"/>
      </g>
    </g>
  </g>
</svg>
